JetBrainsMoro-ThinItalic.ufo
<glyph name="quotedbl" format="2">
  <advance width="600"/>
  <unicode hex="0022"/>
  <outline>
    <contour>
      <point x="401" y="430" type="line"/>
      <point x="448" y="430" type="line"/>
      <point x="490" y="640" type="line"/>
      <point x="505" y="730" type="line"/>
      <point x="439" y="730" type="line"/>
      <point x="424" y="640" type="line"/>
    </contour>
    <contour>
      <point x="201" y="430" type="line"/>
      <point x="248" y="430" type="line"/>
      <point x="290" y="640" type="line"/>
      <point x="305" y="730" type="line"/>
      <point x="239" y="730" type="line"/>
      <point x="224" y="640" type="line"/>
    </contour>
  </outline>
</glyph>
<glyph name="numbersign" format="2">
  <advance width="600"/>
  <unicode hex="0023"/>
  <outline>
    <contour>
      <point x="45" y="0" type="line"/>
      <point x="96" y="0" type="line"/>
      <point x="169" y="210" type="line"/>
      <point x="349" y="210" type="line"/>
      <point x="276" y="0" type="line"/>
      <point x="327" y="0" type="line"/>
      <point x="400" y="210" type="line"/>
      <point x="519" y="210" type="line"/>
      <point x="526" y="254" type="line"/>
      <point x="416" y="254" type="line"/>
      <point x="493" y="476" type="line"/>
      <point x="596" y="476" type="line"/>
      <point x="603" y="520" type="line"/>
      <point x="509" y="520" type="line"/>
      <point x="586" y="730" type="line"/>
      <point x="532" y="730" type="line"/>
      <point x="458" y="520" type="line"/>
      <point x="278" y="520" type="line"/>
      <point x="352" y="730" type="line"/>
      <point x="301" y="730" type="line"/>
      <point x="227" y="520" type="line"/>
      <point x="108" y="520" type="line"/>
      <point x="101" y="476" type="line"/>
      <point x="211" y="476" type="line"/>
      <point x="134" y="254" type="line"/>
      <point x="31" y="254" type="line"/>
      <point x="24" y="210" type="line"/>
      <point x="118" y="210" type="line"/>
    </contour>
    <contour>
      <point x="185" y="254" type="line"/>
      <point x="262" y="476" type="line"/>
      <point x="442" y="476" type="line"/>
      <point x="365" y="254" type="line"/>
    </contour>
  </outline>
</glyph>
<glyph name="dollar" format="2">
  <advance width="600"/>
  <unicode hex="0024"/>
  <outline>
    <contour>
      <point x="219" y="-140" type="line"/>
      <point x="259" y="-140" type="line"/>
      <point x="280" y="-9" type="line"/>
      <point x="397" y="-2"/>
      <point x="482" y="69"/>
      <point x="499" y="177" type="curve" smooth="yes"/>
      <point x="515" y="275"/>
      <point x="466" y="354"/>
      <point x="371" y="385" type="curve" smooth="yes"/>
      <point x="343" y="394" type="line"/>
      <point x="391" y="694" type="line"/>
      <point x="470" y="686"/>
      <point x="511" y="630"/>
      <point x="498" y="548" type="curve"/>
      <point x="548" y="548" type="line"/>
      <point x="566" y="660"/>
      <point x="508" y="732"/>
      <point x="398" y="739" type="curve"/>
      <point x="419" y="870" type="line"/>
      <point x="379" y="870" type="line"/>
      <point x="358" y="739" type="line"/>
      <point x="246" y="732"/>
      <point x="166" y="664"/>
      <point x="150" y="559" type="curve" smooth="yes"/>
      <point x="134" y="464"/>
      <point x="180" y="392"/>
      <point x="271" y="363" type="curve" smooth="yes"/>
      <point x="297" y="355" type="line"/>
      <point x="247" y="36" type="line"/>
      <point x="156" y="43"/>
      <point x="107" y="100"/>
      <point x="120" y="185" type="curve"/>
      <point x="70" y="185" type="line"/>
      <point x="52" y="72"/>
      <point x="118" y="-2"/>
      <point x="240" y="-9" type="curve"/>
    </contour>
    <contour>
      <point x="287" y="36" type="curve"/>
      <point x="335" y="343" type="line"/>
      <point x="352" y="338" type="line" smooth="yes"/>
      <point x="424" y="315"/>
      <point x="461" y="254"/>
      <point x="449" y="177" type="curve" smooth="yes"/>
      <point x="436" y="94"/>
      <point x="376" y="42"/>
    </contour>
    <contour>
      <point x="305" y="406" type="line"/>
      <point x="291" y="411" type="line" smooth="yes"/>
      <point x="224" y="433"/>
      <point x="189" y="491"/>
      <point x="200" y="563" type="curve" smooth="yes"/>
      <point x="212" y="638"/>
      <point x="270" y="687"/>
      <point x="351" y="694" type="curve"/>
    </contour>
  </outline>
</glyph>
<glyph name="parenleft" format="2">
  <advance width="600"/>
  <unicode hex="0028"/>
  <outline>
    <contour>
      <point x="422" y="-120" type="curve"/>
      <point x="429" y="-76" type="line"/>
      <point x="292" y="-40"/>
      <point x="229" y="84"/>
      <point x="257" y="260" type="curve" smooth="yes"/>
      <point x="289" y="460" type="line" smooth="yes"/>
      <point x="317" y="636"/>
      <point x="418" y="756"/>
      <point x="567" y="792" type="curve"/>
      <point x="574" y="840" type="line"/>
      <point x="392" y="797"/>
      <point x="271" y="658"/>
      <point x="239" y="460" type="curve" smooth="yes"/>
      <point x="207" y="260" type="line" smooth="yes"/>
      <point x="175" y="62"/>
      <point x="254" y="-76"/>
    </contour>
  </outline>
</glyph>
<glyph name="parenright" format="2">
  <advance width="600"/>
  <unicode hex="0029"/>
  <outline>
    <contour>
      <point x="53" y="-120" type="line"/>
      <point x="235" y="-76"/>
      <point x="356" y="62"/>
      <point x="388" y="260" type="curve" smooth="yes"/>
      <point x="420" y="460" type="line" smooth="yes"/>
      <point x="452" y="658"/>
      <point x="373" y="797"/>
      <point x="205" y="840" type="curve"/>
      <point x="198" y="796" type="line"/>
      <point x="335" y="760"/>
      <point x="398" y="636"/>
      <point x="370" y="460" type="curve" smooth="yes"/>
      <point x="338" y="260" type="line" smooth="yes"/>
      <point x="310" y="84"/>
      <point x="209" y="-36"/>
      <point x="60" y="-72" type="curve"/>
    </contour>
  </outline>
</glyph>
<glyph name="plus" format="2">
  <advance width="600"/>
  <unicode hex="002B"/>
  <outline>
    <contour>
      <point x="247" y="100" type="line"/>
      <point x="297" y="100" type="line"/>
      <point x="330" y="310" type="line"/>
      <point x="530" y="310" type="line"/>
      <point x="537" y="355" type="line"/>
      <point x="337" y="355" type="line"/>
      <point x="370" y="565" type="line"/>
      <point x="320" y="565" type="line"/>
      <point x="287" y="355" type="line"/>
      <point x="87" y="355" type="line"/>
      <point x="80" y="310" type="line"/>
      <point x="280" y="310" type="line"/>
    </contour>
  </outline>
</glyph>
<glyph name="hyphen" format="2">
  <advance width="600"/>
  <unicode hex="002D"/>
  <outline>
    <contour>
      <point x="145" y="308" type="line"/>
      <point x="465" y="308" type="line"/>
      <point x="472" y="353" type="line"/>
      <point x="152" y="353" type="line"/>
    </contour>
  </outline>
</glyph>
<glyph name="two" format="2">
  <advance width="600"/>
  <unicode hex="0032"/>
  <outline>
    <contour>
      <point x="52" y="0" type="line"/>
      <point x="486" y="0" type="line"/>
      <point x="493" y="45" type="line"/>
      <point x="119" y="45" type="line"/>
      <point x="361" y="258" type="line" smooth="yes"/>
      <point x="477" y="360"/>
      <point x="537" y="449"/>
      <point x="551" y="539" type="curve" smooth="yes"/>
      <point x="571" y="662"/>
      <point x="500" y="740"/>
      <point x="370" y="740" type="curve" smooth="yes"/>
      <point x="241" y="740"/>
      <point x="145" y="660"/>
      <point x="125" y="535" type="curve"/>
      <point x="175" y="535" type="line"/>
      <point x="190" y="634"/>
      <point x="263" y="696"/>
      <point x="363" y="696" type="curve" smooth="yes"/>
      <point x="463" y="696"/>
      <point x="516" y="634"/>
      <point x="501" y="536" type="curve" smooth="yes"/>
      <point x="488" y="457"/>
      <point x="435" y="382"/>
      <point x="330" y="289" type="curve" smooth="yes"/>
      <point x="60" y="50" type="line"/>
    </contour>
  </outline>
</glyph>
<glyph name="three" format="2">
  <advance width="600"/>
  <unicode hex="0033"/>
  <outline>
    <contour>
      <point x="245" y="-10" type="curve" smooth="yes"/>
      <point x="367" y="-10"/>
      <point x="458" y="68"/>
      <point x="477" y="190" type="curve" smooth="yes"/>
      <point x="488" y="261" type="line" smooth="yes"/>
      <point x="507" y="381"/>
      <point x="441" y="456"/>
      <point x="316" y="456" type="curve"/>
      <point x="315" y="446" type="line"/>
      <point x="544" y="682" type="line"/>
      <point x="552" y="730" type="line"/>
      <point x="188" y="730" type="line"/>
      <point x="180" y="685" type="line"/>
      <point x="490" y="685" type="line"/>
      <point x="268" y="454" type="line"/>
      <point x="261" y="411" type="line"/>
      <point x="312" y="411" type="line" smooth="yes"/>
      <point x="407" y="411"/>
      <point x="453" y="356"/>
      <point x="438" y="261" type="curve" smooth="yes"/>
      <point x="427" y="190" type="line" smooth="yes"/>
      <point x="412" y="94"/>
      <point x="346" y="35"/>
      <point x="253" y="35" type="curve" smooth="yes"/>
      <point x="160" y="35"/>
      <point x="112" y="93"/>
      <point x="127" y="190" type="curve"/>
      <point x="77" y="190" type="line"/>
      <point x="58" y="68"/>
      <point x="123" y="-10"/>
    </contour>
  </outline>
</glyph>
<glyph name="six" format="2">
  <advance width="600"/>
  <unicode hex="0036"/>
  <outline>
    <contour>
      <point x="254" y="-10" type="curve" smooth="yes"/>
      <point x="386" y="-9"/>
      <point x="489" y="81"/>
      <point x="511" y="215" type="curve" smooth="yes"/>
      <point x="532" y="348"/>
      <point x="465" y="437"/>
      <point x="345" y="437" type="curve" smooth="yes"/>
      <point x="278" y="437"/>
      <point x="221" y="408"/>
      <point x="197" y="384" type="curve"/>
      <point x="194" y="387" type="line"/>
      <point x="453" y="730" type="line"/>
      <point x="397" y="730" type="line"/>
      <point x="160" y="406" type="line" smooth="yes"/>
      <point x="115" y="345"/>
      <point x="79" y="282"/>
      <point x="69" y="220" type="curve" smooth="yes"/>
      <point x="48" y="82"/>
      <point x="122" y="-10"/>
    </contour>
    <contour>
      <point x="261" y="35" type="curve" smooth="yes"/>
      <point x="156" y="35"/>
      <point x="98" y="104"/>
      <point x="119" y="215" type="curve" smooth="yes"/>
      <point x="136" y="320"/>
      <point x="217" y="395"/>
      <point x="318" y="395" type="curve" smooth="yes"/>
      <point x="420" y="395"/>
      <point x="477" y="320"/>
      <point x="461" y="215" type="curve" smooth="yes"/>
      <point x="443" y="104"/>
      <point x="363" y="35"/>
    </contour>
  </outline>
</glyph>
<glyph name="nine" format="2">
  <advance width="600"/>
  <unicode hex="0039"/>
  <outline>
    <contour>
      <point x="170" y="0" type="line"/>
      <point x="226" y="0" type="line"/>
      <point x="468" y="324" type="line" smooth="yes"/>
      <point x="514" y="386"/>
      <point x="542" y="448"/>
      <point x="552" y="510" type="curve" smooth="yes"/>
      <point x="574" y="648"/>
      <point x="502" y="740"/>
      <point x="373" y="740" type="curve" smooth="yes"/>
      <point x="245" y="740"/>
      <point x="144" y="647"/>
      <point x="122" y="510" type="curve" smooth="yes"/>
      <point x="101" y="382"/>
      <point x="174" y="294"/>
      <point x="282" y="294" type="curve" smooth="yes"/>
      <point x="349" y="294"/>
      <point x="406" y="322"/>
      <point x="430" y="346" type="curve"/>
      <point x="433" y="343" type="line"/>
    </contour>
    <contour>
      <point x="309" y="334" type="curve" smooth="yes"/>
      <point x="210" y="334"/>
      <point x="155" y="405"/>
      <point x="172" y="510" type="curve" smooth="yes"/>
      <point x="190" y="622"/>
      <point x="267" y="695"/>
      <point x="366" y="695" type="curve" smooth="yes"/>
      <point x="468" y="695"/>
      <point x="523" y="622"/>
      <point x="503" y="511" type="curve" smooth="yes"/>
      <point x="484" y="404"/>
      <point x="407" y="334"/>
    </contour>
  </outline>
</glyph>
<glyph name="greater" format="2">
  <advance width="600"/>
  <unicode hex="003E"/>
  <outline>
    <contour>
      <point x="59" y="80" type="line"/>
      <point x="515" y="307" type="line"/>
      <point x="522" y="353" type="line"/>
      <point x="138" y="580" type="line"/>
      <point x="129" y="529" type="line"/>
      <point x="396" y="373" type="line" smooth="yes"/>
      <point x="421" y="358"/>
      <point x="454" y="340"/>
      <point x="471" y="331" type="curve"/>
      <point x="451" y="322"/>
      <point x="413" y="304"/>
      <point x="382" y="289" type="curve" smooth="yes"/>
      <point x="67" y="135" type="line"/>
    </contour>
  </outline>
</glyph>
<glyph name="A" format="2">
  <advance width="600"/>
  <unicode hex="0041"/>
  <anchor x="256" y="0" name="bottom"/>
  <anchor x="450" y="0" name="ogonek"/>
  <anchor x="372" y="730" name="top"/>
  <outline>
    <contour>
      <point x="24" y="0" type="line"/>
      <point x="76" y="0" type="line"/>
      <point x="165" y="210" type="line"/>
      <point x="415" y="210" type="line"/>
      <point x="438" y="0" type="line"/>
      <point x="488" y="0" type="line"/>
      <point x="403" y="730" type="line"/>
      <point x="341" y="730" type="line"/>
    </contour>
    <contour>
      <point x="184" y="255" type="line"/>
      <point x="311" y="550" type="line" smooth="yes"/>
      <point x="342" y="622"/>
      <point x="362" y="673"/>
      <point x="367" y="688" type="curve"/>
      <point x="368" y="673"/>
      <point x="370" y="622"/>
      <point x="378" y="550" type="curve" smooth="yes"/>
      <point x="410" y="255" type="line"/>
    </contour>
  </outline>
</glyph>
<glyph name="B" format="2">
  <advance width="600"/>
  <unicode hex="0042"/>
  <anchor x="256" y="0" name="bottom"/>
  <anchor x="372" y="730" name="top"/>
  <outline>
    <contour>
      <point x="66" y="0" type="line"/>
      <point x="257" y="0" type="line" smooth="yes"/>
      <point x="389" y="0"/>
      <point x="484" y="78"/>
      <point x="504" y="200" type="curve" smooth="yes"/>
      <point x="521" y="310"/>
      <point x="464" y="380"/>
      <point x="356" y="380" type="curve"/>
      <point x="355" y="370" type="line"/>
      <point x="452" y="370"/>
      <point x="524" y="439"/>
      <point x="540" y="542" type="curve" smooth="yes"/>
      <point x="558" y="656"/>
      <point x="491" y="730"/>
      <point x="370" y="730" type="curve" smooth="yes"/>
      <point x="182" y="730" type="line"/>
    </contour>
    <contour>
      <point x="123" y="46" type="line"/>
      <point x="172" y="353" type="line"/>
      <point x="313" y="353" type="line" smooth="yes"/>
      <point x="415" y="353"/>
      <point x="469" y="294"/>
      <point x="454" y="199" type="curve" smooth="yes"/>
      <point x="438" y="104"/>
      <point x="366" y="46"/>
      <point x="264" y="46" type="curve" smooth="yes"/>
    </contour>
    <contour>
      <point x="179" y="398" type="line"/>
      <point x="224" y="684" type="line"/>
      <point x="362" y="684" type="line" smooth="yes"/>
      <point x="455" y="684"/>
      <point x="504" y="630"/>
      <point x="490" y="541" type="curve" smooth="yes"/>
      <point x="476" y="452"/>
      <point x="411" y="398"/>
      <point x="317" y="398" type="curve" smooth="yes"/>
    </contour>
  </outline>
</glyph>
<glyph name="D" format="2">
  <advance width="600"/>
  <unicode hex="0044"/>
  <anchor x="256" y="0" name="bottom"/>
  <anchor x="314" y="365" name="center"/>
  <anchor x="372" y="730" name="top"/>
  <outline>
    <contour>
      <point x="66" y="0" type="line"/>
      <point x="226" y="0" type="line" smooth="yes"/>
      <point x="361" y="0"/>
      <point x="465" y="88"/>
      <point x="486" y="220" type="curve" smooth="yes"/>
      <point x="532" y="510" type="line" smooth="yes"/>
      <point x="553" y="642"/>
      <point x="477" y="730"/>
      <point x="342" y="730" type="curve" smooth="yes"/>
      <point x="182" y="730" type="line"/>
    </contour>
    <contour>
      <point x="123" y="46" type="line"/>
      <point x="224" y="684" type="line"/>
      <point x="334" y="684" type="line" smooth="yes"/>
      <point x="438" y="684"/>
      <point x="498" y="614"/>
      <point x="482" y="510" type="curve" smooth="yes"/>
      <point x="436" y="220" type="line" smooth="yes"/>
      <point x="419" y="115"/>
      <point x="338" y="46"/>
      <point x="233" y="46" type="curve" smooth="yes"/>
    </contour>
  </outline>
</glyph>
<glyph name="E" format="2">
  <advance width="600"/>
  <unicode hex="0045"/>
  <anchor x="320" y="0" name="bottom"/>
  <anchor x="400" y="0" name="ogonek"/>
  <anchor x="392" y="730" name="top"/>
  <anchor x="92" y="730" name="topleft"/>
  <outline>
    <contour>
      <point x="76" y="0" type="line"/>
      <point x="466" y="0" type="line"/>
      <point x="473" y="46" type="line"/>
      <point x="133" y="46" type="line"/>
      <point x="183" y="358" type="line"/>
      <point x="488" y="358" type="line"/>
      <point x="495" y="403" type="line"/>
      <point x="190" y="403" type="line"/>
      <point x="234" y="684" type="line"/>
      <point x="574" y="684" type="line"/>
      <point x="582" y="730" type="line"/>
      <point x="192" y="730" type="line"/>
    </contour>
  </outline>
</glyph>
<glyph name="F" format="2">
  <advance width="600"/>
  <unicode hex="0046"/>
  <anchor x="256" y="0" name="bottom"/>
  <anchor x="372" y="730" name="top"/>
  <outline>
    <contour>
      <point x="71" y="0" type="line"/>
      <point x="121" y="0" type="line"/>
      <point x="176" y="346" type="line"/>
      <point x="501" y="346" type="line"/>
      <point x="508" y="392" type="line"/>
      <point x="183" y="392" type="line"/>
      <point x="229" y="684" type="line"/>
      <point x="589" y="684" type="line"/>
      <point x="597" y="730" type="line"/>
      <point x="187" y="730" type="line"/>
    </contour>
  </outline>
</glyph>
<glyph name="J" format="2">
  <advance width="600"/>
  <unicode hex="004A"/>
  <anchor x="256" y="0" name="bottom"/>
  <anchor x="504" y="730" name="top"/>
  <outline>
    <contour>
      <point x="229" y="-10" type="curve" smooth="yes"/>
      <point x="359" y="-10"/>
      <point x="446" y="66"/>
      <point x="468" y="199" type="curve" smooth="yes"/>
      <point x="552" y="730" type="line"/>
      <point x="275" y="730" type="line"/>
      <point x="267" y="683" type="line"/>
      <point x="494" y="683" type="line"/>
      <point x="418" y="199" type="line" smooth="yes"/>
      <point x="402" y="98"/>
      <point x="333" y="35"/>
      <point x="237" y="35" type="curve" smooth="yes"/>
      <point x="141" y="35"/>
      <point x="91" y="97"/>
      <point x="108" y="200" type="curve"/>
      <point x="58" y="200" type="line"/>
      <point x="37" y="69"/>
      <point x="101" y="-10"/>
    </contour>
  </outline>
</glyph>
<glyph name="K" format="2">
  <advance width="600"/>
  <unicode hex="004B"/>
  <anchor x="256" y="0" name="bottom"/>
  <anchor x="372" y="730" name="top"/>
  <outline>
    <contour>
      <point x="66" y="0" type="line"/>
      <point x="116" y="0" type="line"/>
      <point x="172" y="356" type="line"/>
      <point x="327" y="356" type="line"/>
      <point x="440" y="0" type="line"/>
      <point x="496" y="0" type="line"/>
      <point x="375" y="377" type="line"/>
      <point x="602" y="730" type="line"/>
      <point x="544" y="730" type="line"/>
      <point x="332" y="401" type="line"/>
      <point x="180" y="401" type="line"/>
      <point x="232" y="730" type="line"/>
      <point x="182" y="730" type="line"/>
    </contour>
  </outline>
</glyph>
<glyph name="L" format="2">
  <advance width="600"/>
  <unicode hex="004C"/>
  <anchor x="296" y="0" name="bottom"/>
  <anchor x="314" y="365" name="center"/>
  <anchor x="238" y="730" name="top"/>
  <anchor x="652" y="730" name="topright"/>
  <outline>
    <contour>
      <point x="96" y="0" type="line"/>
      <point x="501" y="0" type="line"/>
      <point x="508" y="46" type="line"/>
      <point x="153" y="46" type="line"/>
      <point x="262" y="730" type="line"/>
      <point x="212" y="730" type="line"/>
    </contour>
  </outline>
</glyph>
<glyph name="M" format="2">
  <advance width="600"/>
  <unicode hex="004D"/>
  <anchor x="256" y="0" name="bottom"/>
  <anchor x="372" y="730" name="top"/>
  <outline>
    <contour>
      <point x="48" y="0" type="line"/>
      <point x="97" y="0" type="line"/>
      <point x="167" y="440" type="line" smooth="yes"/>
      <point x="183" y="542"/>
      <point x="197" y="651"/>
      <point x="203" y="705" type="curve"/>
      <point x="281" y="325" type="line"/>
      <point x="334" y="325" type="line"/>
      <point x="532" y="705" type="line"/>
      <point x="521" y="651"/>
      <point x="501" y="542"/>
      <point x="485" y="440" type="curve" smooth="yes"/>
      <point x="415" y="0" type="line"/>
      <point x="464" y="0" type="line"/>
      <point x="580" y="730" type="line"/>
      <point x="504" y="730" type="line"/>
      <point x="358" y="450" type="line" smooth="yes"/>
      <point x="343" y="420"/>
      <point x="322" y="381"/>
      <point x="312" y="359" type="curve"/>
      <point x="308" y="381"/>
      <point x="301" y="421"/>
      <point x="294" y="450" type="curve" smooth="yes"/>
      <point x="237" y="730" type="line"/>
      <point x="164" y="730" type="line"/>
    </contour>
  </outline>
</glyph>
<glyph name="N" format="2">
  <advance width="600"/>
  <unicode hex="004E"/>
  <anchor x="256" y="0" name="bottom"/>
  <anchor x="372" y="730" name="top"/>
  <outline>
    <contour>
      <point x="66" y="0" type="line"/>
      <point x="114" y="0" type="line"/>
      <point x="203" y="560" type="line" smooth="yes"/>
      <point x="211" y="611"/>
      <point x="217" y="656"/>
      <point x="219" y="675" type="curve"/>
      <point x="378" y="0" type="line"/>
      <point x="446" y="0" type="line"/>
      <point x="562" y="730" type="line"/>
      <point x="514" y="730" type="line"/>
      <point x="425" y="170" type="line" smooth="yes"/>
      <point x="423" y="155"/>
      <point x="415" y="95"/>
      <point x="411" y="55" type="curve"/>
      <point x="249" y="730" type="line"/>
      <point x="182" y="730" type="line"/>
    </contour>
  </outline>
</glyph>
<glyph name="P" format="2">
  <advance width="600"/>
  <unicode hex="0050"/>
  <anchor x="256" y="0" name="bottom"/>
  <anchor x="372" y="730" name="top"/>
  <outline>
    <contour>
      <point x="66" y="0" type="line"/>
      <point x="116" y="0" type="line"/>
      <point x="167" y="324" type="line"/>
      <point x="332" y="324" type="line" smooth="yes"/>
      <point x="459" y="324"/>
      <point x="555" y="404"/>
      <point x="574" y="527" type="curve" smooth="yes"/>
      <point x="594" y="650"/>
      <point x="525" y="730"/>
      <point x="397" y="730" type="curve" smooth="yes"/>
      <point x="182" y="730" type="line"/>
    </contour>
    <contour>
      <point x="175" y="370" type="line"/>
      <point x="224" y="684" type="line"/>
      <point x="389" y="684" type="line" smooth="yes"/>
      <point x="487" y="684"/>
      <point x="540" y="624"/>
      <point x="524" y="527" type="curve" smooth="yes"/>
      <point x="509" y="431"/>
      <point x="437" y="370"/>
      <point x="340" y="370" type="curve" smooth="yes"/>
    </contour>
  </outline>
</glyph>
<glyph name="R" format="2">
  <advance width="600"/>
  <unicode hex="0052"/>
  <anchor x="256" y="0" name="bottom"/>
  <anchor x="372" y="730" name="top"/>
  <outline>
    <contour>
      <point x="66" y="0" type="line"/>
      <point x="116" y="0" type="line"/>
      <point x="168" y="330" type="line"/>
      <point x="314" y="330" type="line"/>
      <point x="428" y="0" type="line"/>
      <point x="482" y="0" type="line"/>
      <point x="356" y="353" type="line"/>
      <point x="352" y="330" type="line"/>
      <point x="464" y="340"/>
      <point x="547" y="417"/>
      <point x="565" y="528" type="curve" smooth="yes"/>
      <point x="584" y="652"/>
      <point x="516" y="730"/>
      <point x="387" y="730" type="curve" smooth="yes"/>
      <point x="182" y="730" type="line"/>
    </contour>
    <contour>
      <point x="175" y="375" type="line"/>
      <point x="224" y="684" type="line"/>
      <point x="379" y="684" type="line" smooth="yes"/>
      <point x="476" y="684"/>
      <point x="530" y="624"/>
      <point x="515" y="530" type="curve" smooth="yes"/>
      <point x="500" y="436"/>
      <point x="427" y="375"/>
      <point x="330" y="375" type="curve" smooth="yes"/>
    </contour>
  </outline>
</glyph>
<glyph name="T" format="2">
  <advance width="600"/>
  <unicode hex="0054"/>
  <anchor x="256" y="0" name="bottom"/>
  <anchor x="314" y="365" name="center"/>
  <anchor x="372" y="730" name="top"/>
  <outline>
    <contour>
      <point x="232" y="0" type="line"/>
      <point x="282" y="0" type="line"/>
      <point x="390" y="684" type="line"/>
      <point x="604" y="684" type="line"/>
      <point x="612" y="730" type="line"/>
      <point x="132" y="730" type="line"/>
      <point x="124" y="684" type="line"/>
      <point x="340" y="684" type="line"/>
    </contour>
  </outline>
</glyph>
<glyph name="U" format="2">
  <advance width="600"/>
  <unicode hex="0055"/>
  <anchor x="256" y="0" name="bottom"/>
  <anchor x="464" y="730" name="horn"/>
  <anchor x="305" y="0" name="ogonek"/>
  <anchor x="372" y="730" name="top"/>
  <anchor x="652" y="730" name="topright"/>
  <outline>
    <contour>
      <point x="255" y="-10" type="curve" smooth="yes"/>
      <point x="371" y="-10"/>
      <point x="459" y="69"/>
      <point x="478" y="190" type="curve" smooth="yes"/>
      <point x="564" y="730" type="line"/>
      <point x="514" y="730" type="line"/>
      <point x="428" y="190" type="line" smooth="yes"/>
      <point x="413" y="93"/>
      <point x="352" y="35"/>
      <point x="263" y="35" type="curve" smooth="yes"/>
      <point x="173" y="35"/>
      <point x="129" y="92"/>
      <point x="144" y="190" type="curve" smooth="yes"/>
      <point x="230" y="730" type="line"/>
      <point x="180" y="730" type="line"/>
      <point x="94" y="190" type="line" smooth="yes"/>
      <point x="75" y="69"/>
      <point x="138" y="-10"/>
    </contour>
  </outline>
</glyph>
<glyph name="V" format="2">
  <advance width="600"/>
  <unicode hex="0056"/>
  <anchor x="256" y="0" name="bottom"/>
  <anchor x="372" y="730" name="top"/>
  <outline>
    <contour>
      <point x="224" y="0" type="line"/>
      <point x="288" y="0" type="line"/>
      <point x="604" y="730" type="line"/>
      <point x="552" y="730" type="line"/>
      <point x="316" y="180" type="line" smooth="yes"/>
      <point x="291" y="122"/>
      <point x="271" y="66"/>
      <point x="262" y="40" type="curve"/>
      <point x="261" y="66"/>
      <point x="259" y="122"/>
      <point x="252" y="180" type="curve" smooth="yes"/>
      <point x="190" y="730" type="line"/>
      <point x="140" y="730" type="line"/>
    </contour>
  </outline>
</glyph>
<glyph name="X" format="2">
  <advance width="600"/>
  <unicode hex="0058"/>
  <anchor x="256" y="0" name="bottom"/>
  <anchor x="372" y="730" name="top"/>
  <outline>
    <contour>
      <point x="9" y="0" type="line"/>
      <point x="66" y="0" type="line"/>
      <point x="246" y="252" type="line" smooth="yes"/>
      <point x="261" y="273"/>
      <point x="292" y="316"/>
      <point x="313" y="344" type="curve"/>
      <point x="324" y="316"/>
      <point x="345" y="273"/>
      <point x="353" y="252" type="curve" smooth="yes"/>
      <point x="449" y="0" type="line"/>
      <point x="503" y="0" type="line"/>
      <point x="346" y="381" type="line"/>
      <point x="604" y="730" type="line"/>
      <point x="548" y="730" type="line"/>
      <point x="388" y="508" type="line" smooth="yes"/>
      <point x="372" y="485"/>
      <point x="340" y="442"/>
      <point x="321" y="416" type="curve"/>
      <point x="309" y="443"/>
      <point x="289" y="485"/>
      <point x="280" y="508" type="curve" smooth="yes"/>
      <point x="194" y="730" type="line"/>
      <point x="140" y="730" type="line"/>
      <point x="287" y="381" type="line"/>
    </contour>
  </outline>
</glyph>
<glyph name="Z" format="2">
  <advance width="600"/>
  <unicode hex="005A"/>
  <anchor x="256" y="0" name="bottom"/>
  <anchor x="314" y="365" name="center"/>
  <anchor x="372" y="730" name="top"/>
  <outline>
    <contour>
      <point x="47" y="0" type="line"/>
      <point x="464" y="0" type="line"/>
      <point x="471" y="46" type="line"/>
      <point x="108" y="46" type="line"/>
      <point x="558" y="673" type="line"/>
      <point x="567" y="730" type="line"/>
      <point x="167" y="730" type="line"/>
      <point x="159" y="684" type="line"/>
      <point x="508" y="684" type="line"/>
      <point x="55" y="50" type="line"/>
    </contour>
  </outline>
</glyph>
<glyph name="asciicircum" format="2">
  <advance width="600"/>
  <unicode hex="005E"/>
  <outline>
    <contour>
      <point x="110" y="340" type="line"/>
      <point x="170" y="340" type="line"/>
      <point x="325" y="600" type="line" smooth="yes"/>
      <point x="340" y="626"/>
      <point x="359" y="660"/>
      <point x="367" y="678" type="curve"/>
      <point x="371" y="660"/>
      <point x="378" y="626"/>
      <point x="385" y="600" type="curve" smooth="yes"/>
      <point x="455" y="340" type="line"/>
      <point x="510" y="340" type="line"/>
      <point x="401" y="730" type="line"/>
      <point x="348" y="730" type="line"/>
    </contour>
  </outline>
</glyph>
<glyph name="c" format="2">
  <advance width="600"/>
  <unicode hex="0063"/>
  <anchor x="258" y="0" name="bottom"/>
  <anchor x="345" y="550" name="top"/>
  <outline>
    <contour>
      <point x="256" y="-10" type="curve" smooth="yes"/>
      <point x="377" y="-10"/>
      <point x="466" y="64"/>
      <point x="485" y="180" type="curve"/>
      <point x="435" y="180" type="line"/>
      <point x="420" y="90"/>
      <point x="356" y="36"/>
      <point x="264" y="36" type="curve" smooth="yes"/>
      <point x="173" y="36"/>
      <point x="126" y="94"/>
      <point x="141" y="190" type="curve" smooth="yes"/>
      <point x="168" y="360" type="line" smooth="yes"/>
      <point x="183" y="457"/>
      <point x="248" y="514"/>
      <point x="339" y="514" type="curve" smooth="yes"/>
      <point x="431" y="514"/>
      <point x="479" y="460"/>
      <point x="465" y="370" type="curve"/>
      <point x="515" y="370" type="line"/>
      <point x="533" y="486"/>
      <point x="468" y="560"/>
      <point x="347" y="560" type="curve" smooth="yes"/>
      <point x="227" y="560"/>
      <point x="137" y="481"/>
      <point x="118" y="360" type="curve" smooth="yes"/>
      <point x="91" y="190" type="line" smooth="yes"/>
      <point x="72" y="68"/>
      <point x="135" y="-10"/>
    </contour>
  </outline>
</glyph>
<glyph name="f" format="2">
  <advance width="600"/>
  <unicode hex="0066"/>
  <anchor x="256" y="0" name="bottom"/>
  <anchor x="372" y="730" name="top"/>
  <outline>
    <contour>
      <point x="0" y="-180" type="line"/>
      <point x="98" y="-180" type="line" smooth="yes"/>
      <point x="179" y="-180"/>
      <point x="235" y="-133"/>
      <point x="248" y="-55" type="curve" smooth="yes"/>
      <point x="331" y="449" type="line"/>
      <point x="550" y="449" type="line"/>
      <point x="557" y="494" type="line"/>
      <point x="338" y="494" type="line"/>
      <point x="356" y="605" type="line" smooth="yes"/>
      <point x="364" y="656"/>
      <point x="397" y="685"/>
      <point x="448" y="685" type="curve" smooth="yes"/>
      <point x="587" y="685" type="line"/>
      <point x="595" y="730" type="line"/>
      <point x="456" y="730" type="line" smooth="yes"/>
      <point x="375" y="730"/>
      <point x="319" y="683"/>
      <point x="306" y="605" type="curve" smooth="yes"/>
      <point x="288" y="494" type="line"/>
      <point x="104" y="494" type="line"/>
      <point x="97" y="449" type="line"/>
      <point x="281" y="449" type="line"/>
      <point x="198" y="-55" type="line" smooth="yes"/>
      <point x="190" y="-106"/>
      <point x="157" y="-135"/>
      <point x="106" y="-135" type="curve" smooth="yes"/>
      <point x="8" y="-135" type="line"/>
    </contour>
  </outline>
</glyph>
<glyph name="g" format="2">
  <advance width="600"/>
  <unicode hex="0067"/>
  <anchor x="214" y="-270" name="bottom"/>
  <anchor x="340" y="550" name="top"/>
  <outline>
    <contour>
      <point x="101" y="-180" type="line"/>
      <point x="246" y="-180" type="line" smooth="yes"/>
      <point x="358" y="-180"/>
      <point x="427" y="-124"/>
      <point x="444" y="-15" type="curve" smooth="yes"/>
      <point x="533" y="550" type="line"/>
      <point x="483" y="550" type="line"/>
      <point x="468" y="455" type="line"/>
      <point x="455" y="455" type="line"/>
      <point x="468" y="410" type="line"/>
      <point x="482" y="501"/>
      <point x="428" y="560"/>
      <point x="332" y="560" type="curve" smooth="yes"/>
      <point x="222" y="560"/>
      <point x="137" y="480"/>
      <point x="118" y="360" type="curve" smooth="yes"/>
      <point x="99" y="239" type="line" smooth="yes"/>
      <point x="80" y="119"/>
      <point x="139" y="40"/>
      <point x="249" y="40" type="curve" smooth="yes"/>
      <point x="345" y="40"/>
      <point x="419" y="99"/>
      <point x="433" y="190" type="curve"/>
      <point x="401" y="145" type="line"/>
      <point x="419" y="145" type="line"/>
      <point x="401" y="30" type="line"/>
      <point x="394" y="-15" type="line" smooth="yes"/>
      <point x="382" y="-94"/>
      <point x="333" y="-135"/>
      <point x="254" y="-135" type="curve" smooth="yes"/>
      <point x="109" y="-135" type="line"/>
    </contour>
    <contour>
      <point x="266" y="83" type="curve" smooth="yes"/>
      <point x="177" y="83"/>
      <point x="134" y="141"/>
      <point x="149" y="239" type="curve" smooth="yes"/>
      <point x="168" y="360" type="line" smooth="yes"/>
      <point x="183" y="458"/>
      <point x="246" y="517"/>
      <point x="335" y="517" type="curve" smooth="yes"/>
      <point x="426" y="517"/>
      <point x="468" y="458"/>
      <point x="453" y="360" type="curve" smooth="yes"/>
      <point x="434" y="239" type="line" smooth="yes"/>
      <point x="419" y="141"/>
      <point x="356" y="83"/>
    </contour>
  </outline>
</glyph>
<glyph name="k" format="2">
  <advance width="600"/>
  <unicode hex="006B"/>
  <anchor x="256" y="0" name="bottom"/>
  <anchor x="372" y="730" name="top"/>
  <outline>
    <contour>
      <point x="69" y="0" type="line"/>
      <point x="119" y="0" type="line"/>
      <point x="161" y="264" type="line"/>
      <point x="294" y="264" type="line"/>
      <point x="429" y="0" type="line"/>
      <point x="487" y="0" type="line"/>
      <point x="339" y="283" type="line"/>
      <point x="570" y="550" type="line"/>
      <point x="509" y="550" type="line"/>
      <point x="299" y="309" type="line"/>
      <point x="168" y="309" type="line"/>
      <point x="235" y="730" type="line"/>
      <point x="185" y="730" type="line"/>
    </contour>
  </outline>
</glyph>
<glyph name="l" format="2">
  <advance width="600"/>
  <unicode hex="006C"/>
  <anchor x="240" y="0" name="bottom"/>
  <anchor x="314" y="365" name="center"/>
  <anchor x="312" y="730" name="top"/>
  <anchor x="652" y="730" name="topright"/>
  <outline>
    <contour>
      <point x="321" y="0" type="curve" smooth="yes"/>
      <point x="496" y="0" type="line"/>
      <point x="503" y="45" type="line"/>
      <point x="328" y="45" type="line" smooth="yes"/>
      <point x="269" y="45"/>
      <point x="243" y="76"/>
      <point x="252" y="135" type="curve" smooth="yes"/>
      <point x="347" y="730" type="line"/>
      <point x="122" y="730" type="line"/>
      <point x="114" y="685" type="line"/>
      <point x="289" y="685" type="line"/>
      <point x="202" y="135" type="line" smooth="yes"/>
      <point x="188" y="48"/>
      <point x="231" y="0"/>
    </contour>
  </outline>
</glyph>
<glyph name="u" format="2">
  <advance width="600"/>
  <unicode hex="0075"/>
  <anchor x="256" y="0" name="bottom"/>
  <anchor x="453" y="550" name="horn"/>
  <anchor x="305" y="0" name="ogonek"/>
  <anchor x="343" y="550" name="top"/>
  <anchor x="624" y="550" name="topright"/>
  <outline>
    <contour>
      <point x="253" y="-10" type="curve" smooth="yes"/>
      <point x="373" y="-10"/>
      <point x="459" y="68"/>
      <point x="479" y="194" type="curve" smooth="yes"/>
      <point x="535" y="550" type="line"/>
      <point x="485" y="550" type="line"/>
      <point x="429" y="194" type="line" smooth="yes"/>
      <point x="413" y="94"/>
      <point x="350" y="35"/>
      <point x="261" y="35" type="curve" smooth="yes"/>
      <point x="173" y="35"/>
      <point x="129" y="94"/>
      <point x="145" y="194" type="curve" smooth="yes"/>
      <point x="201" y="550" type="line"/>
      <point x="151" y="550" type="line"/>
      <point x="95" y="194" type="line" smooth="yes"/>
      <point x="75" y="67"/>
      <point x="134" y="-10"/>
    </contour>
  </outline>
</glyph>
<glyph name="v" format="2">
  <advance width="600"/>
  <unicode hex="0076"/>
  <anchor x="256" y="0" name="bottom"/>
  <anchor x="344" y="550" name="top"/>
  <outline>
    <contour>
      <point x="225" y="0" type="line"/>
      <point x="287" y="0" type="line"/>
      <point x="567" y="550" type="line"/>
      <point x="513" y="550" type="line"/>
      <point x="309" y="140" type="line" smooth="yes"/>
      <point x="290" y="104"/>
      <point x="270" y="60"/>
      <point x="260" y="37" type="curve"/>
      <point x="257" y="60"/>
      <point x="249" y="104"/>
      <point x="243" y="140" type="curve" smooth="yes"/>
      <point x="168" y="550" type="line"/>
      <point x="119" y="550" type="line"/>
    </contour>
  </outline>
</glyph>
<glyph name="x" format="2">
  <advance width="600"/>
  <unicode hex="0078"/>
  <anchor x="256" y="0" name="bottom"/>
  <anchor x="344" y="550" name="top"/>
  <outline>
    <contour>
      <point x="31" y="0" type="line"/>
      <point x="91" y="0" type="line"/>
      <point x="265" y="210" type="line" smooth="yes"/>
      <point x="275" y="222"/>
      <point x="289" y="239"/>
      <point x="296" y="248" type="curve"/>
      <point x="301" y="239"/>
      <point x="311" y="222"/>
      <point x="317" y="210" type="curve" smooth="yes"/>
      <point x="426" y="0" type="line"/>
      <point x="481" y="0" type="line"/>
      <point x="330" y="281" type="line"/>
      <point x="557" y="550" type="line"/>
      <point x="496" y="550" type="line"/>
      <point x="333" y="350" type="line" smooth="yes"/>
      <point x="325" y="340"/>
      <point x="313" y="324"/>
      <point x="306" y="315" type="curve"/>
      <point x="301" y="324"/>
      <point x="294" y="339"/>
      <point x="288" y="350" type="curve" smooth="yes"/>
      <point x="186" y="550" type="line"/>
      <point x="130" y="550" type="line"/>
      <point x="273" y="283" type="line"/>
    </contour>
  </outline>
</glyph>
<glyph name="z" format="2">
  <advance width="600"/>
  <unicode hex="007A"/>
  <anchor x="256" y="0" name="bottom"/>
  <anchor x="300" y="275" name="center"/>
  <anchor x="343" y="550" name="top"/>
  <outline>
    <contour>
      <point x="59" y="0" type="line"/>
      <point x="453" y="0" type="line"/>
      <point x="460" y="45" type="line"/>
      <point x="124" y="45" type="line"/>
      <point x="520" y="503" type="line"/>
      <point x="527" y="550" type="line"/>
      <point x="155" y="550" type="line"/>
      <point x="148" y="505" type="line"/>
      <point x="461" y="505" type="line"/>
      <point x="66" y="46" type="line"/>
    </contour>
  </outline>
</glyph>
<glyph name="cent" format="2">
  <advance width="600"/>
  <unicode hex="00A2"/>
  <anchor x="258" y="0" name="bottom"/>
  <anchor x="345" y="550" name="top"/>
  <outline>
    <contour>
      <point x="220" y="-140" type="line"/>
      <point x="260" y="-140" type="line"/>
      <point x="391" y="690" type="line"/>
      <point x="351" y="690" type="line"/>
    </contour>
    <component base="c"/>
  </outline>
</glyph>
<glyph name="currency" format="2">
  <advance width="600"/>
  <unicode hex="00A4"/>
  <outline>
    <contour>
      <point x="485" y="130" type="line"/>
      <point x="524" y="165" type="line"/>
      <point x="439" y="265" type="line"/>
      <point x="443" y="238" type="line"/>
      <point x="481" y="274"/>
      <point x="507" y="320"/>
      <point x="516" y="373" type="curve" smooth="yes"/>
      <point x="525" y="427"/>
      <point x="511" y="474"/>
      <point x="485" y="508" type="curve"/>
      <point x="476" y="481" type="line"/>
      <point x="591" y="581" type="line"/>
      <point x="562" y="616" type="line"/>
      <point x="446" y="516" type="line"/>
      <point x="474" y="522" type="line"/>
      <point x="443" y="552"/>
      <point x="400" y="570"/>
      <point x="347" y="570" type="curve" smooth="yes"/>
      <point x="295" y="570"/>
      <point x="245" y="552"/>
      <point x="206" y="521" type="curve"/>
      <point x="232" y="512" type="line"/>
      <point x="145" y="616" type="line"/>
      <point x="105" y="581" type="line"/>
      <point x="191" y="478" type="line"/>
      <point x="186" y="505" type="line"/>
      <point x="150" y="471"/>
      <point x="125" y="425"/>
      <point x="116" y="373" type="curve" smooth="yes"/>
      <point x="107" y="319"/>
      <point x="121" y="273"/>
      <point x="145" y="237" type="curve"/>
      <point x="155" y="265" type="line"/>
      <point x="40" y="166" type="line"/>
      <point x="70" y="131" type="line"/>
      <point x="186" y="231" type="line"/>
      <point x="158" y="225" type="line"/>
      <point x="187" y="195"/>
      <point x="232" y="176"/>
      <point x="285" y="176" type="curve" smooth="yes"/>
      <point x="336" y="176"/>
      <point x="385" y="193"/>
      <point x="425" y="222" type="curve"/>
      <point x="399" y="231" type="line"/>
    </contour>
    <contour>
      <point x="292" y="224" type="curve" smooth="yes"/>
      <point x="208" y="224"/>
      <point x="155" y="288"/>
      <point x="168" y="373" type="curve" smooth="yes"/>
      <point x="182" y="458"/>
      <point x="256" y="522"/>
      <point x="340" y="522" type="curve" smooth="yes"/>
      <point x="424" y="522"/>
      <point x="478" y="458"/>
      <point x="464" y="373" type="curve" smooth="yes"/>
      <point x="451" y="288"/>
      <point x="376" y="224"/>
    </contour>
  </outline>
</glyph>
<glyph name="yen" format="2">
  <advance width="600"/>
  <unicode hex="00A5"/>
  <anchor x="256" y="0" name="bottom"/>
  <anchor x="372" y="730" name="top"/>
  <anchor x="92" y="730" name="topleft"/>
  <outline>
    <contour>
      <point x="59" y="270" type="line"/>
      <point x="539" y="270" type="line"/>
      <point x="547" y="320" type="line"/>
      <point x="67" y="320" type="line"/>
    </contour>
    <contour>
      <point x="39" y="145" type="line"/>
      <point x="519" y="145" type="line"/>
      <point x="527" y="195" type="line"/>
      <point x="47" y="195" type="line"/>
    </contour>
    <component base="Y"/>
  </outline>
</glyph>
<glyph name="guillemetleft" format="2">
  <advance width="600"/>
  <unicode hex="00AB"/>
  <outline>
    <contour>
      <point x="453" y="40" type="line"/>
      <point x="512" y="40" type="line"/>
      <point x="341" y="279" type="line"/>
      <point x="588" y="520" type="line"/>
      <point x="526" y="520" type="line"/>
      <point x="280" y="280" type="line"/>
    </contour>
    <contour>
      <point x="223" y="40" type="line"/>
      <point x="282" y="40" type="line"/>
      <point x="111" y="279" type="line"/>
      <point x="358" y="520" type="line"/>
      <point x="296" y="520" type="line"/>
      <point x="50" y="280" type="line"/>
    </contour>
  </outline>
</glyph>
<glyph name="twosuperior" format="2">
  <advance width="600"/>
  <unicode hex="00B2"/>
  <outline>
    <contour>
      <point x="190" y="405" type="line"/>
      <point x="470" y="405" type="line"/>
      <point x="476" y="445" type="line"/>
      <point x="247" y="445" type="line"/>
      <point x="386" y="541" type="line" smooth="yes"/>
      <point x="450" y="585"/>
      <point x="495" y="648"/>
      <point x="504" y="704" type="curve" smooth="yes"/>
      <point x="517" y="788"/>
      <point x="472" y="840"/>
      <point x="387" y="840" type="curve" smooth="yes"/>
      <point x="302" y="840"/>
      <point x="240" y="785"/>
      <point x="227" y="698" type="curve"/>
      <point x="272" y="698" type="line"/>
      <point x="282" y="761"/>
      <point x="324" y="800"/>
      <point x="381" y="800" type="curve" smooth="yes"/>
      <point x="438" y="800"/>
      <point x="468" y="762"/>
      <point x="458" y="701" type="curve" smooth="yes"/>
      <point x="452" y="660"/>
      <point x="416" y="611"/>
      <point x="366" y="575" type="curve" smooth="yes"/>
      <point x="198" y="456" type="line"/>
    </contour>
  </outline>
</glyph>
<glyph name="threesuperior" format="2">
  <advance width="600"/>
  <unicode hex="00B3"/>
  <outline>
    <contour>
      <point x="303" y="395" type="curve" smooth="yes"/>
      <point x="387" y="395"/>
      <point x="449" y="448"/>
      <point x="462" y="530" type="curve" smooth="yes"/>
      <point x="475" y="612"/>
      <point x="429" y="665"/>
      <point x="345" y="665" type="curve"/>
      <point x="343" y="650" type="line"/>
      <point x="476" y="786" type="line"/>
      <point x="483" y="830" type="line"/>
      <point x="262" y="830" type="line"/>
      <point x="256" y="790" type="line"/>
      <point x="432" y="790" type="line"/>
      <point x="318" y="673" type="line"/>
      <point x="310" y="627" type="line"/>
      <point x="339" y="627" type="line" smooth="yes"/>
      <point x="395" y="627"/>
      <point x="426" y="589"/>
      <point x="417" y="530" type="curve" smooth="yes"/>
      <point x="408" y="472"/>
      <point x="365" y="435"/>
      <point x="309" y="435" type="curve" smooth="yes"/>
      <point x="251" y="435"/>
      <point x="220" y="472"/>
      <point x="229" y="530" type="curve"/>
      <point x="184" y="530" type="line"/>
      <point x="171" y="448"/>
      <point x="218" y="395"/>
    </contour>
  </outline>
</glyph>
<glyph name="onesuperior" format="2">
  <advance width="600"/>
  <unicode hex="00B9"/>
  <outline>
    <contour>
      <point x="190" y="405" type="line"/>
      <point x="470" y="405" type="line"/>
      <point x="476" y="445" type="line"/>
      <point x="370" y="445" type="line"/>
      <point x="431" y="830" type="line"/>
      <point x="364" y="830" type="line"/>
      <point x="253" y="751" type="line"/>
      <point x="245" y="700" type="line"/>
      <point x="381" y="795" type="line"/>
      <point x="325" y="445" type="line"/>
      <point x="196" y="445" type="line"/>
    </contour>
  </outline>
</glyph>
<glyph name="guillemetright" format="2">
  <advance width="600"/>
  <unicode hex="00BB"/>
  <outline>
    <contour>
      <point x="242" y="40" type="line"/>
      <point x="304" y="40" type="line"/>
      <point x="550" y="280" type="line"/>
      <point x="377" y="520" type="line"/>
      <point x="318" y="520" type="line"/>
      <point x="488" y="284" type="line"/>
    </contour>
    <contour>
      <point x="12" y="40" type="line"/>
      <point x="74" y="40" type="line"/>
      <point x="320" y="280" type="line"/>
      <point x="147" y="520" type="line"/>
      <point x="88" y="520" type="line"/>
      <point x="258" y="284" type="line"/>
    </contour>
  </outline>
</glyph>
<glyph name="onequarter" format="2">
  <advance width="600"/>
  <unicode hex="00BC"/>
  <outline>
    <contour>
      <point x="50" y="405" type="line"/>
      <point x="325" y="405" type="line"/>
      <point x="331" y="445" type="line"/>
      <point x="220" y="445" type="line"/>
      <point x="266" y="730" type="line"/>
      <point x="196" y="730" type="line"/>
      <point x="115" y="669" type="line"/>
      <point x="106" y="614" type="line"/>
      <point x="178" y="668" type="line" smooth="yes"/>
      <point x="195" y="681"/>
      <point x="209" y="694"/>
      <point x="216" y="700" type="curve"/>
      <point x="175" y="445" type="line"/>
      <point x="56" y="445" type="line"/>
    </contour>
    <contour>
      <point x="446" y="0" type="line"/>
      <point x="491" y="0" type="line"/>
      <point x="525" y="216" type="line"/>
      <point x="480" y="216" type="line"/>
      <point x="463" y="110" type="line"/>
      <point x="328" y="110" type="line"/>
      <point x="331" y="126" type="line"/>
      <point x="499" y="325" type="line"/>
      <point x="449" y="325" type="line"/>
      <point x="288" y="140" type="line"/>
      <point x="277" y="70" type="line"/>
      <point x="457" y="70" type="line"/>
    </contour>
    <component base="fraction" yxScale="0.15838" xOffset="-44"/>
  </outline>
</glyph>
<glyph name="onehalf" format="2">
  <advance width="600"/>
  <unicode hex="00BD"/>
  <outline>
    <contour>
      <point x="286" y="0" type="line"/>
      <point x="526" y="0" type="line"/>
      <point x="532" y="40" type="line"/>
      <point x="409" y="40" type="line" smooth="yes"/>
      <point x="400" y="40"/>
      <point x="371" y="40"/>
      <point x="351" y="40" type="curve"/>
      <point x="352" y="44" type="line"/>
      <point x="436" y="92" type="line" smooth="yes"/>
      <point x="505" y="132"/>
      <point x="544" y="177"/>
      <point x="552" y="227" type="curve" smooth="yes"/>
      <point x="561" y="287"/>
      <point x="523" y="330"/>
      <point x="456" y="330" type="curve" smooth="yes"/>
      <point x="385" y="330"/>
      <point x="331" y="284"/>
      <point x="320" y="216" type="curve"/>
      <point x="365" y="216" type="line"/>
      <point x="372" y="260"/>
      <point x="406" y="290"/>
      <point x="450" y="290" type="curve" smooth="yes"/>
      <point x="491" y="290"/>
      <point x="513" y="264"/>
      <point x="506" y="224" type="curve" smooth="yes"/>
      <point x="501" y="188"/>
      <point x="475" y="158"/>
      <point x="421" y="126" type="curve" smooth="yes"/>
      <point x="294" y="51" type="line"/>
    </contour>
    <contour>
      <point x="58" y="405" type="line"/>
      <point x="343" y="405" type="line"/>
      <point x="349" y="445" type="line"/>
      <point x="228" y="445" type="line"/>
      <point x="274" y="730" type="line"/>
      <point x="204" y="730" type="line"/>
      <point x="123" y="669" type="line"/>
      <point x="114" y="614" type="line"/>
      <point x="186" y="668" type="line" smooth="yes"/>
      <point x="203" y="681"/>
      <point x="217" y="694"/>
      <point x="224" y="700" type="curve"/>
      <point x="183" y="445" type="line"/>
      <point x="64" y="445" type="line"/>
    </contour>
    <component base="fraction" yxScale="0.15838" xOffset="-44"/>
  </outline>
</glyph>
<glyph name="threequarters" format="2">
  <advance width="600"/>
  <unicode hex="00BE"/>
  <outline>
    <contour>
      <point x="446" y="0" type="line"/>
      <point x="491" y="0" type="line"/>
      <point x="525" y="216" type="line"/>
      <point x="480" y="216" type="line"/>
      <point x="463" y="110" type="line"/>
      <point x="328" y="110" type="line"/>
      <point x="331" y="126" type="line"/>
      <point x="499" y="325" type="line"/>
      <point x="449" y="325" type="line"/>
      <point x="288" y="140" type="line"/>
      <point x="277" y="70" type="line"/>
      <point x="457" y="70" type="line"/>
    </contour>
    <contour>
      <point x="173" y="400" type="curve" smooth="yes"/>
      <point x="243" y="400"/>
      <point x="296" y="444"/>
      <point x="307" y="510" type="curve" smooth="yes"/>
      <point x="316" y="569"/>
      <point x="274" y="609"/>
      <point x="207" y="609" type="curve"/>
      <point x="206" y="599" type="line"/>
      <point x="321" y="685" type="line"/>
      <point x="329" y="730" type="line"/>
      <point x="129" y="730" type="line"/>
      <point x="122" y="690" type="line"/>
      <point x="278" y="690" type="line"/>
      <point x="179" y="618" type="line"/>
      <point x="172" y="575" type="line"/>
      <point x="202" y="575" type="line" smooth="yes"/>
      <point x="244" y="575"/>
      <point x="268" y="549"/>
      <point x="262" y="510" type="curve" smooth="yes"/>
      <point x="255" y="468"/>
      <point x="223" y="440"/>
      <point x="180" y="440" type="curve" smooth="yes"/>
      <point x="136" y="440"/>
      <point x="111" y="466"/>
      <point x="117" y="505" type="curve"/>
      <point x="72" y="505" type="line"/>
      <point x="62" y="442"/>
      <point x="102" y="400"/>
    </contour>
    <component base="fraction" yxScale="0.15838" xOffset="-44"/>
  </outline>
</glyph>
<glyph name="AE" format="2">
  <advance width="600"/>
  <unicode hex="00C6"/>
  <anchor x="256" y="0" name="bottom"/>
  <anchor x="372" y="730" name="top"/>
  <outline>
    <contour>
      <point x="-10" y="0" type="line"/>
      <point x="40" y="0" type="line"/>
      <point x="130" y="215" type="line"/>
      <point x="300" y="215" type="line"/>
      <point x="266" y="0" type="line"/>
      <point x="525" y="0" type="line"/>
      <point x="532" y="45" type="line"/>
      <point x="323" y="45" type="line"/>
      <point x="373" y="357" type="line"/>
      <point x="546" y="357" type="line"/>
      <point x="553" y="402" type="line"/>
      <point x="380" y="402" type="line"/>
      <point x="424" y="685" type="line"/>
      <point x="633" y="685" type="line"/>
      <point x="641" y="730" type="line"/>
      <point x="294" y="730" type="line"/>
    </contour>
    <contour>
      <point x="150" y="260" type="line"/>
      <point x="323" y="685" type="line"/>
      <point x="374" y="685" type="line"/>
      <point x="307" y="260" type="line"/>
    </contour>
  </outline>
</glyph>
<glyph name="Ccedilla" format="2">
  <advance width="600"/>
  <unicode hex="00C7"/>
  <anchor x="261" y="0" name="bottom"/>
  <anchor x="377" y="730" name="top"/>
  <outline>
    <contour>
      <point x="165" y="-195" type="line"/>
      <point x="245" y="-195" type="line" smooth="yes"/>
      <point x="305" y="-195"/>
      <point x="350" y="-161"/>
      <point x="357" y="-118" type="curve" smooth="yes"/>
      <point x="366" y="-61"/>
      <point x="307" y="-37"/>
      <point x="260" y="-34" type="curve"/>
      <point x="293" y="26" type="line"/>
      <point x="251" y="26" type="line"/>
      <point x="202" y="-64" type="line"/>
      <point x="273" y="-64"/>
      <point x="316" y="-86"/>
      <point x="311" y="-118" type="curve" smooth="yes"/>
      <point x="308" y="-140"/>
      <point x="283" y="-160"/>
      <point x="251" y="-160" type="curve" smooth="yes"/>
      <point x="171" y="-160" type="line"/>
    </contour>
    <component base="C"/>
  </outline>
</glyph>
<glyph name="multiply" format="2">
  <advance width="600"/>
  <unicode hex="00D7"/>
  <outline>
    <contour>
      <point x="127" y="142" type="line"/>
      <point x="304" y="294" type="line"/>
      <point x="431" y="143" type="line"/>
      <point x="471" y="177" type="line"/>
      <point x="344" y="328" type="line"/>
      <point x="520" y="481" type="line"/>
      <point x="488" y="518" type="line"/>
      <point x="312" y="365" type="line"/>
      <point x="185" y="516" type="line"/>
      <point x="145" y="482" type="line"/>
      <point x="272" y="331" type="line"/>
      <point x="95" y="179" type="line"/>
    </contour>
  </outline>
</glyph>
<glyph name="Oslash" format="2">
  <advance width="600"/>
  <unicode hex="00D8"/>
  <anchor x="256" y="0" name="bottom"/>
  <anchor x="392" y="730" name="horn"/>
  <anchor x="372" y="730" name="top"/>
  <outline>
    <contour>
      <point x="0" y="-40" type="line"/>
      <point x="50" y="-40" type="line"/>
      <point x="625" y="750" type="line"/>
      <point x="575" y="750" type="line"/>
    </contour>
    <contour>
      <point x="254" y="-10" type="curve" smooth="yes"/>
      <point x="373" y="-10"/>
      <point x="461" y="68"/>
      <point x="481" y="190" type="curve" smooth="yes"/>
      <point x="537" y="540" type="line" smooth="yes"/>
      <point x="556" y="661"/>
      <point x="491" y="740"/>
      <point x="373" y="740" type="curve" smooth="yes"/>
      <point x="255" y="740"/>
      <point x="166" y="661"/>
      <point x="147" y="540" type="curve" smooth="yes"/>
      <point x="91" y="190" type="line" smooth="yes"/>
      <point x="71" y="68"/>
      <point x="136" y="-10"/>
    </contour>
    <contour>
      <point x="261" y="34" type="curve" smooth="yes"/>
      <point x="169" y="34"/>
      <point x="125" y="91"/>
      <point x="141" y="190" type="curve" smooth="yes"/>
      <point x="197" y="540" type="line" smooth="yes"/>
      <point x="213" y="638"/>
      <point x="275" y="696"/>
      <point x="366" y="696" type="curve" smooth="yes"/>
      <point x="457" y="696"/>
      <point x="503" y="638"/>
      <point x="487" y="540" type="curve" smooth="yes"/>
      <point x="431" y="190" type="line" smooth="yes"/>
      <point x="415" y="91"/>
      <point x="353" y="34"/>
    </contour>
  </outline>
</glyph>
<glyph name="ccedilla" format="2">
  <advance width="600"/>
  <unicode hex="00E7"/>
  <anchor x="258" y="0" name="_bottom"/>
  <anchor x="258" y="0" name="bottom"/>
  <anchor x="345" y="550" name="top"/>
  <outline>
    <contour>
      <point x="137" y="-195" type="line"/>
      <point x="217" y="-195" type="line" smooth="yes"/>
      <point x="277" y="-195"/>
      <point x="323" y="-161"/>
      <point x="329" y="-118" type="curve" smooth="yes"/>
      <point x="338" y="-61"/>
      <point x="279" y="-37"/>
      <point x="233" y="-34" type="curve"/>
      <point x="265" y="26" type="line"/>
      <point x="223" y="26" type="line"/>
      <point x="174" y="-64" type="line"/>
      <point x="245" y="-64"/>
      <point x="288" y="-86"/>
      <point x="283" y="-118" type="curve" smooth="yes"/>
      <point x="280" y="-140"/>
      <point x="255" y="-160"/>
      <point x="223" y="-160" type="curve" smooth="yes"/>
      <point x="143" y="-160" type="line"/>
    </contour>
    <component base="c"/>
  </outline>
</glyph>
<glyph name="thorn" format="2">
  <advance width="600"/>
  <unicode hex="00FE"/>
  <anchor x="256" y="0" name="bottom"/>
  <anchor x="372" y="730" name="top"/>
  <outline>
    <contour>
      <point x="38" y="-180" type="line"/>
      <point x="88" y="-180" type="line"/>
      <point x="126" y="59" type="line"/>
      <point x="76" y="59" type="line"/>
    </contour>
    <component base="b"/>
  </outline>
</glyph>
<glyph name="Aogonek" format="2">
  <advance width="600"/>
  <unicode hex="0104"/>
  <anchor x="256" y="0" name="bottom"/>
  <anchor x="450" y="0" name="ogonek"/>
  <anchor x="372" y="730" name="top"/>
  <outline>
    <contour>
      <point x="424" y="-195" type="curve"/>
      <point x="497" y="-195" type="line"/>
      <point x="504" y="-153" type="line"/>
      <point x="440" y="-153" type="line" smooth="yes"/>
      <point x="408" y="-153"/>
      <point x="392" y="-134"/>
      <point x="397" y="-103" type="curve" smooth="yes"/>
      <point x="401" y="-75"/>
      <point x="430" y="-36"/>
      <point x="474" y="0" type="curve" smooth="yes"/>
      <point x="487" y="10" type="line"/>
      <point x="450" y="10" type="line"/>
      <point x="393" y="-27"/>
      <point x="354" y="-74"/>
      <point x="348" y="-115" type="curve" smooth="yes"/>
      <point x="340" y="-165"/>
      <point x="369" y="-195"/>
    </contour>
    <component base="A"/>
  </outline>
</glyph>
<glyph name="aogonek" format="2">
  <advance width="600"/>
  <unicode hex="0105"/>
  <anchor x="261" y="0" name="bottom"/>
  <anchor x="410" y="0" name="ogonek"/>
  <anchor x="348" y="550" name="top"/>
  <outline>
    <contour>
      <point x="396" y="-195" type="curve"/>
      <point x="469" y="-195" type="line"/>
      <point x="476" y="-153" type="line"/>
      <point x="412" y="-153" type="line" smooth="yes"/>
      <point x="380" y="-153"/>
      <point x="364" y="-134"/>
      <point x="369" y="-103" type="curve" smooth="yes"/>
      <point x="373" y="-75"/>
      <point x="402" y="-36"/>
      <point x="446" y="0" type="curve"/>
      <point x="421" y="10" type="line"/>
      <point x="365" y="-27"/>
      <point x="326" y="-74"/>
      <point x="320" y="-115" type="curve" smooth="yes"/>
      <point x="312" y="-165"/>
      <point x="341" y="-195"/>
    </contour>
    <component base="a"/>
  </outline>
</glyph>
<glyph name="Dcroat" format="2">
  <advance width="600"/>
  <unicode hex="0110"/>
  <anchor x="256" y="0" name="bottom"/>
  <anchor x="314" y="365" name="center"/>
  <anchor x="372" y="730" name="top"/>
  <outline>
    <contour>
      <point x="10" y="351" type="line"/>
      <point x="290" y="351" type="line"/>
      <point x="297" y="395" type="line"/>
      <point x="17" y="395" type="line"/>
    </contour>
    <component base="D"/>
  </outline>
</glyph>
<glyph name="dcroat" format="2">
  <advance width="600"/>
  <unicode hex="0111"/>
  <outline>
    <contour>
      <point x="91" y="189" type="line" smooth="yes"/>
      <point x="72" y="69"/>
      <point x="131" y="-10"/>
      <point x="241" y="-10" type="curve" smooth="yes"/>
      <point x="312" y="-10"/>
      <point x="372" y="22"/>
      <point x="404" y="75" type="curve"/>
      <point x="408" y="75" type="line"/>
      <point x="396" y="0" type="line"/>
      <point x="446" y="0" type="line"/>
      <point x="539" y="586" type="line"/>
      <point x="639" y="586" type="line"/>
      <point x="646" y="631" type="line"/>
      <point x="546" y="631" type="line"/>
      <point x="562" y="730" type="line"/>
      <point x="512" y="730" type="line"/>
      <point x="496" y="631" type="line"/>
      <point x="316" y="631" type="line"/>
      <point x="309" y="586" type="line"/>
      <point x="489" y="586" type="line"/>
      <point x="478" y="520" type="line"/>
      <point x="462" y="415" type="line"/>
      <point x="458" y="415" type="line"/>
      <point x="443" y="468"/>
      <point x="393" y="500"/>
      <point x="322" y="500" type="curve" smooth="yes"/>
      <point x="212" y="500"/>
      <point x="128" y="420"/>
      <point x="109" y="300" type="curve" smooth="yes"/>
    </contour>
    <contour>
      <point x="141" y="189" type="curve" smooth="yes"/>
      <point x="159" y="300" type="line" smooth="yes"/>
      <point x="174" y="398"/>
      <point x="236" y="457"/>
      <point x="325" y="457" type="curve" smooth="yes"/>
      <point x="416" y="457"/>
      <point x="459" y="398"/>
      <point x="444" y="300" type="curve" smooth="yes"/>
      <point x="426" y="189" type="line" smooth="yes"/>
      <point x="410" y="91"/>
      <point x="348" y="33"/>
      <point x="258" y="33" type="curve" smooth="yes"/>
      <point x="169" y="33"/>
      <point x="125" y="91"/>
    </contour>
  </outline>
</glyph>
<glyph name="Eogonek" format="2">
  <advance width="600"/>
  <unicode hex="0118"/>
  <anchor x="320" y="0" name="bottom"/>
  <anchor x="400" y="0" name="ogonek"/>
  <anchor x="392" y="730" name="top"/>
  <anchor x="92" y="730" name="topleft"/>
  <outline>
    <contour>
      <point x="367" y="-195" type="curve"/>
      <point x="440" y="-195" type="line"/>
      <point x="447" y="-153" type="line"/>
      <point x="383" y="-153" type="line" smooth="yes"/>
      <point x="351" y="-153"/>
      <point x="335" y="-134"/>
      <point x="340" y="-103" type="curve" smooth="yes"/>
      <point x="344" y="-75"/>
      <point x="373" y="-36"/>
      <point x="417" y="0" type="curve" smooth="yes"/>
      <point x="430" y="10" type="line"/>
      <point x="393" y="10" type="line"/>
      <point x="336" y="-27"/>
      <point x="297" y="-74"/>
      <point x="291" y="-115" type="curve" smooth="yes"/>
      <point x="283" y="-165"/>
      <point x="312" y="-195"/>
    </contour>
    <component base="E"/>
  </outline>
</glyph>
<glyph name="Iogonek" format="2">
  <advance width="600"/>
  <unicode hex="012E"/>
  <anchor x="256" y="0" name="bottom"/>
  <anchor x="280" y="0" name="ogonek"/>
  <anchor x="372" y="730" name="top"/>
  <anchor x="92" y="730" name="topleft"/>
  <outline>
    <contour>
      <point x="226" y="-195" type="curve"/>
      <point x="299" y="-195" type="line"/>
      <point x="305" y="-153" type="line"/>
      <point x="241" y="-153" type="line" smooth="yes"/>
      <point x="209" y="-153"/>
      <point x="193" y="-134"/>
      <point x="198" y="-103" type="curve" smooth="yes"/>
      <point x="203" y="-75"/>
      <point x="232" y="-36"/>
      <point x="275" y="0" type="curve" smooth="yes"/>
      <point x="288" y="10" type="line"/>
      <point x="251" y="10" type="line"/>
      <point x="194" y="-27"/>
      <point x="156" y="-74"/>
      <point x="149" y="-115" type="curve" smooth="yes"/>
      <point x="141" y="-165"/>
      <point x="171" y="-195"/>
    </contour>
    <component base="I"/>
  </outline>
</glyph>
<glyph name="idotless" format="2">
  <advance width="600"/>
  <unicode hex="0131"/>
  <anchor x="271" y="0" name="bottom"/>
  <anchor x="290" y="0" name="ogonek"/>
  <anchor x="358" y="550" name="top"/>
  <outline>
    <contour>
      <point x="51" y="0" type="line"/>
      <point x="491" y="0" type="line"/>
      <point x="498" y="45" type="line"/>
      <point x="309" y="45" type="line"/>
      <point x="389" y="550" type="line"/>
      <point x="163" y="550" type="line"/>
      <point x="156" y="505" type="line"/>
      <point x="332" y="505" type="line"/>
      <point x="259" y="45" type="line"/>
      <point x="58" y="45" type="line"/>
    </contour>
  </outline>
</glyph>
<glyph name="Lslash" format="2">
  <advance width="600"/>
  <unicode hex="0141"/>
  <anchor x="306" y="0" name="bottom"/>
  <anchor x="324" y="365" name="center"/>
  <anchor x="248" y="730" name="top"/>
  <anchor x="662" y="730" name="topright"/>
  <outline>
    <contour>
      <point x="14" y="238" type="line"/>
      <point x="424" y="495" type="line"/>
      <point x="433" y="552" type="line"/>
      <point x="23" y="295" type="line"/>
    </contour>
    <component base="L" xOffset="10"/>
  </outline>
</glyph>
<glyph name="Eng" format="2">
  <advance width="600"/>
  <unicode hex="014A"/>
  <outline>
    <contour>
      <point x="154" y="-180" type="line"/>
      <point x="234" y="-180" type="line" smooth="yes"/>
      <point x="352" y="-180"/>
      <point x="429" y="-115"/>
      <point x="447" y="0" type="curve" smooth="yes"/>
      <point x="563" y="730" type="line"/>
      <point x="515" y="730" type="line"/>
      <point x="434" y="219" type="line" smooth="yes"/>
      <point x="426" y="168"/>
      <point x="420" y="118"/>
      <point x="418" y="94" type="curve"/>
      <point x="249" y="730" type="line"/>
      <point x="181" y="730" type="line"/>
      <point x="65" y="0" type="line"/>
      <point x="113" y="0" type="line"/>
      <point x="202" y="560" type="line" smooth="yes"/>
      <point x="210" y="611"/>
      <point x="216" y="656"/>
      <point x="218" y="675" type="curve"/>
      <point x="397" y="0" type="line"/>
      <point x="383" y="-88"/>
      <point x="330" y="-135"/>
      <point x="242" y="-135" type="curve" smooth="yes"/>
      <point x="162" y="-135" type="line"/>
    </contour>
  </outline>
</glyph>
<glyph name="oe" format="2">
  <advance width="600"/>
  <unicode hex="0153"/>
  <outline>
    <contour>
      <point x="128" y="-10" type="curve" smooth="yes"/>
      <point x="209" y="-10"/>
      <point x="256" y="38"/>
      <point x="269" y="75" type="curve"/>
      <point x="272" y="75" type="line"/>
      <point x="273" y="38"/>
      <point x="303" y="-10"/>
      <point x="380" y="-10" type="curve" smooth="yes"/>
      <point x="461" y="-10"/>
      <point x="527" y="43"/>
      <point x="547" y="125" type="curve"/>
      <point x="497" y="125" type="line"/>
      <point x="483" y="71"/>
      <point x="438" y="34"/>
      <point x="384" y="34" type="curve" smooth="yes"/>
      <point x="327" y="34"/>
      <point x="295" y="77"/>
      <point x="305" y="140" type="curve" smooth="yes"/>
      <point x="324" y="260" type="line"/>
      <point x="562" y="260" type="line"/>
      <point x="586" y="410" type="line" smooth="yes"/>
      <point x="600" y="501"/>
      <point x="555" y="560"/>
      <point x="468" y="560" type="curve" smooth="yes"/>
      <point x="397" y="560"/>
      <point x="350" y="511"/>
      <point x="335" y="474" type="curve"/>
      <point x="333" y="474" type="line"/>
      <point x="332" y="511"/>
      <point x="302" y="560"/>
      <point x="225" y="560" type="curve" smooth="yes"/>
      <point x="137" y="560"/>
      <point x="70" y="500"/>
      <point x="56" y="408" type="curve" smooth="yes"/>
      <point x="13" y="139" type="line" smooth="yes"/>
      <point x="-1" y="48"/>
      <point x="43" y="-10"/>
    </contour>
    <contour>
      <point x="144" y="34" type="curve" smooth="yes"/>
      <point x="86" y="34"/>
      <point x="54" y="76"/>
      <point x="64" y="139" type="curve" smooth="yes"/>
      <point x="107" y="408" type="line" smooth="yes"/>
      <point x="117" y="473"/>
      <point x="163" y="516"/>
      <point x="221" y="516" type="curve" smooth="yes"/>
      <point x="278" y="516"/>
      <point x="309" y="473"/>
      <point x="299" y="410" type="curve" smooth="yes"/>
      <point x="256" y="140" type="line" smooth="yes"/>
      <point x="246" y="77"/>
      <point x="201" y="34"/>
    </contour>
    <contour>
      <point x="332" y="310" type="line"/>
      <point x="348" y="410" type="line" smooth="yes"/>
      <point x="358" y="473"/>
      <point x="402" y="516"/>
      <point x="458" y="516" type="curve" smooth="yes"/>
      <point x="515" y="516"/>
      <point x="546" y="473"/>
      <point x="536" y="410" type="curve" smooth="yes"/>
      <point x="520" y="310" type="line"/>
    </contour>
  </outline>
</glyph>
<glyph name="Scedilla" format="2">
  <advance width="600"/>
  <unicode hex="015E"/>
  <anchor x="256" y="0" name="_bottom"/>
  <anchor x="256" y="0" name="bottom"/>
  <anchor x="372" y="730" name="top"/>
  <outline>
    <contour>
      <point x="160" y="-195" type="line"/>
      <point x="240" y="-195" type="line" smooth="yes"/>
      <point x="300" y="-195"/>
      <point x="346" y="-161"/>
      <point x="352" y="-118" type="curve" smooth="yes"/>
      <point x="361" y="-61"/>
      <point x="302" y="-37"/>
      <point x="256" y="-34" type="curve"/>
      <point x="288" y="26" type="line"/>
      <point x="246" y="26" type="line"/>
      <point x="197" y="-64" type="line"/>
      <point x="268" y="-64"/>
      <point x="311" y="-86"/>
      <point x="306" y="-118" type="curve" smooth="yes"/>
      <point x="303" y="-140"/>
      <point x="278" y="-160"/>
      <point x="246" y="-160" type="curve" smooth="yes"/>
      <point x="166" y="-160" type="line"/>
    </contour>
    <component base="S"/>
  </outline>
</glyph>
<glyph name="Tcedilla" format="2">
  <advance width="600"/>
  <unicode hex="0162"/>
  <anchor x="256" y="0" name="bottom"/>
  <anchor x="314" y="365" name="center"/>
  <anchor x="372" y="730" name="top"/>
  <outline>
    <contour>
      <point x="168" y="-195" type="line"/>
      <point x="248" y="-195" type="line" smooth="yes"/>
      <point x="308" y="-195"/>
      <point x="353" y="-161"/>
      <point x="360" y="-118" type="curve" smooth="yes"/>
      <point x="369" y="-61"/>
      <point x="310" y="-37"/>
      <point x="263" y="-34" type="curve"/>
      <point x="282" y="0" type="line"/>
      <point x="254" y="26" type="line"/>
      <point x="205" y="-64" type="line"/>
      <point x="276" y="-64"/>
      <point x="319" y="-86"/>
      <point x="314" y="-118" type="curve" smooth="yes"/>
      <point x="311" y="-140"/>
      <point x="286" y="-160"/>
      <point x="254" y="-160" type="curve" smooth="yes"/>
      <point x="174" y="-160" type="line"/>
    </contour>
    <component base="T"/>
  </outline>
</glyph>
<glyph name="tbar" format="2">
  <advance width="600"/>
  <unicode hex="0167"/>
  <anchor x="316" y="0" name="bottom"/>
  <anchor x="300" y="275" name="center"/>
  <anchor x="375" y="700" name="top"/>
  <anchor x="624" y="550" name="topright"/>
  <outline>
    <contour>
      <point x="91" y="261" type="line"/>
      <point x="462" y="261" type="line"/>
      <point x="469" y="304" type="line"/>
      <point x="98" y="304" type="line"/>
    </contour>
    <component base="t"/>
  </outline>
</glyph>
<glyph name="Uogonek" format="2">
  <advance width="600"/>
  <unicode hex="0172"/>
  <anchor x="464" y="730" name="horn"/>
  <anchor x="372" y="730" name="top"/>
  <outline>
    <contour>
      <point x="294" y="-195" type="curve" smooth="yes"/>
      <point x="367" y="-195" type="line"/>
      <point x="374" y="-153" type="line"/>
      <point x="310" y="-153" type="line" smooth="yes"/>
      <point x="278" y="-153"/>
      <point x="262" y="-134"/>
      <point x="267" y="-103" type="curve" smooth="yes"/>
      <point x="271" y="-75"/>
      <point x="300" y="-33"/>
      <point x="344" y="2" type="curve" smooth="yes"/>
      <point x="355" y="10" type="line"/>
      <point x="422" y="45"/>
      <point x="465" y="105"/>
      <point x="478" y="190" type="curve" smooth="yes"/>
      <point x="564" y="730" type="line"/>
      <point x="514" y="730" type="line"/>
      <point x="428" y="190" type="line" smooth="yes"/>
      <point x="412" y="91"/>
      <point x="353" y="34"/>
      <point x="261" y="34" type="curve" smooth="yes"/>
      <point x="169" y="34"/>
      <point x="128" y="91"/>
      <point x="144" y="190" type="curve" smooth="yes"/>
      <point x="230" y="730" type="line"/>
      <point x="180" y="730" type="line"/>
      <point x="94" y="190" type="line" smooth="yes"/>
      <point x="75" y="68"/>
      <point x="136" y="-10"/>
      <point x="254" y="-10" type="curve" smooth="yes"/>
      <point x="265" y="-10"/>
      <point x="284" y="-9"/>
      <point x="295" y="-6" type="curve"/>
      <point x="252" y="-39"/>
      <point x="223" y="-80"/>
      <point x="218" y="-115" type="curve" smooth="yes"/>
      <point x="210" y="-165"/>
      <point x="239" y="-195"/>
    </contour>
  </outline>
</glyph>
<glyph name="uogonek" format="2">
  <advance width="600"/>
  <unicode hex="0173"/>
  <anchor x="453" y="550" name="horn"/>
  <anchor x="343" y="550" name="top"/>
  <outline>
    <contour>
      <point x="298" y="-195" type="curve" smooth="yes"/>
      <point x="371" y="-195" type="line"/>
      <point x="378" y="-153" type="line"/>
      <point x="314" y="-153" type="line" smooth="yes"/>
      <point x="282" y="-153"/>
      <point x="266" y="-134"/>
      <point x="271" y="-103" type="curve" smooth="yes"/>
      <point x="275" y="-75"/>
      <point x="304" y="-36"/>
      <point x="348" y="0" type="curve" smooth="yes"/>
      <point x="379" y="25" type="line"/>
      <point x="432" y="59"/>
      <point x="466" y="116"/>
      <point x="478" y="190" type="curve" smooth="yes"/>
      <point x="535" y="550" type="line"/>
      <point x="485" y="550" type="line"/>
      <point x="428" y="190" type="line" smooth="yes"/>
      <point x="412" y="91"/>
      <point x="353" y="34"/>
      <point x="261" y="34" type="curve" smooth="yes"/>
      <point x="169" y="34"/>
      <point x="128" y="91"/>
      <point x="144" y="190" type="curve" smooth="yes"/>
      <point x="201" y="550" type="line"/>
      <point x="151" y="550" type="line"/>
      <point x="94" y="190" type="line" smooth="yes"/>
      <point x="75" y="68"/>
      <point x="136" y="-10"/>
      <point x="254" y="-10" type="curve" smooth="yes"/>
      <point x="270" y="-10"/>
      <point x="287" y="-9"/>
      <point x="301" y="-6" type="curve"/>
      <point x="252" y="-47"/>
      <point x="227" y="-83"/>
      <point x="222" y="-115" type="curve" smooth="yes"/>
      <point x="214" y="-165"/>
      <point x="243" y="-195"/>
    </contour>
  </outline>
</glyph>
<glyph name="longs" format="2">
  <advance width="600"/>
  <unicode hex="017F"/>
  <outline>
    <contour>
      <point x="-26" y="-180" type="line"/>
      <point x="87" y="-180" type="line" smooth="yes"/>
      <point x="168" y="-180"/>
      <point x="225" y="-133"/>
      <point x="237" y="-55" type="curve"/>
      <point x="342" y="605" type="line"/>
      <point x="350" y="656"/>
      <point x="383" y="685"/>
      <point x="434" y="685" type="curve" smooth="yes"/>
      <point x="587" y="685" type="line"/>
      <point x="595" y="730" type="line"/>
      <point x="442" y="730" type="line" smooth="yes"/>
      <point x="361" y="730"/>
      <point x="305" y="683"/>
      <point x="292" y="605" type="curve"/>
      <point x="187" y="-55" type="line"/>
      <point x="179" y="-106"/>
      <point x="146" y="-135"/>
      <point x="95" y="-135" type="curve" smooth="yes"/>
      <point x="-18" y="-135" type="line"/>
    </contour>
  </outline>
</glyph>
<glyph name="Eopen" format="2">
  <advance width="600"/>
  <unicode hex="0190"/>
  <outline>
    <contour>
      <point x="264" y="-10" type="curve" smooth="yes"/>
      <point x="398" y="-10"/>
      <point x="504" y="73"/>
      <point x="523" y="193" type="curve"/>
      <point x="473" y="193" type="line"/>
      <point x="458" y="99"/>
      <point x="376" y="35"/>
      <point x="272" y="35" type="curve" smooth="yes"/>
      <point x="168" y="35"/>
      <point x="106" y="99"/>
      <point x="121" y="193" type="curve" smooth="yes"/>
      <point x="136" y="288"/>
      <point x="218" y="353"/>
      <point x="322" y="353" type="curve" smooth="yes"/>
      <point x="397" y="353" type="line"/>
      <point x="404" y="398" type="line"/>
      <point x="334" y="398" type="line" smooth="yes"/>
      <point x="237" y="398"/>
      <point x="181" y="459"/>
      <point x="195" y="547" type="curve" smooth="yes"/>
      <point x="209" y="635"/>
      <point x="284" y="696"/>
      <point x="381" y="696" type="curve" smooth="yes"/>
      <point x="478" y="696"/>
      <point x="535" y="635"/>
      <point x="521" y="547" type="curve"/>
      <point x="571" y="547" type="line"/>
      <point x="589" y="661"/>
      <point x="514" y="740"/>
      <point x="388" y="740" type="curve" smooth="yes"/>
      <point x="262" y="740"/>
      <point x="163" y="661"/>
      <point x="145" y="547" type="curve" smooth="yes"/>
      <point x="128" y="442"/>
      <point x="185" y="370"/>
      <point x="285" y="370" type="curve"/>
      <point x="286" y="380" type="line"/>
      <point x="176" y="380"/>
      <point x="88" y="305"/>
      <point x="71" y="196" type="curve" smooth="yes"/>
      <point x="52" y="74"/>
      <point x="130" y="-10"/>
    </contour>
  </outline>
</glyph>
<glyph name="ohorn" format="2">
  <advance width="600"/>
  <unicode hex="01A1"/>
  <anchor x="340" y="550" name="top"/>
  <anchor x="256" y="0" name="bottom"/>
  <anchor x="300" y="275" name="center"/>
  <anchor x="363" y="550" name="horn"/>
  <anchor x="305" y="0" name="ogonek"/>
  <anchor x="624" y="550" name="topright"/>
  <outline>
    <contour>
      <point x="440" y="495" type="line"/>
      <point x="475" y="495" type="line" smooth="yes"/>
      <point x="526" y="495"/>
      <point x="565" y="529"/>
      <point x="573" y="580" type="curve" smooth="yes"/>
      <point x="583" y="640" type="line"/>
      <point x="543" y="640" type="line"/>
      <point x="533" y="580" type="line" smooth="yes"/>
      <point x="528" y="550"/>
      <point x="508" y="530"/>
      <point x="481" y="530" type="curve" smooth="yes"/>
      <point x="446" y="530" type="line"/>
    </contour>
    <component base="o"/>
  </outline>
</glyph>
<glyph name="uhorn" format="2">
  <advance width="600"/>
  <unicode hex="01B0"/>
  <anchor x="255" y="0" name="bottom"/>
  <anchor x="343" y="550" name="top"/>
  <outline>
    <contour>
      <point x="95" y="194" type="line" smooth="yes"/>
      <point x="75" y="67"/>
      <point x="134" y="-10"/>
      <point x="253" y="-10" type="curve" smooth="yes"/>
      <point x="373" y="-10"/>
      <point x="459" y="68"/>
      <point x="479" y="194" type="curve" smooth="yes"/>
      <point x="530" y="515" type="line"/>
      <point x="580" y="515"/>
      <point x="619" y="549"/>
      <point x="627" y="600" type="curve" smooth="yes"/>
      <point x="637" y="660" type="line"/>
      <point x="597" y="660" type="line"/>
      <point x="587" y="600" type="line" smooth="yes"/>
      <point x="582" y="570"/>
      <point x="561" y="550"/>
      <point x="534" y="550" type="curve" smooth="yes"/>
      <point x="485" y="550" type="line"/>
      <point x="429" y="194" type="line" smooth="yes"/>
      <point x="413" y="94"/>
      <point x="350" y="35"/>
      <point x="261" y="35" type="curve" smooth="yes"/>
      <point x="173" y="35"/>
      <point x="129" y="94"/>
      <point x="145" y="194" type="curve" smooth="yes"/>
      <point x="201" y="550" type="line"/>
      <point x="151" y="550" type="line"/>
    </contour>
  </outline>
</glyph>
<glyph name="oogonek" format="2">
  <advance width="600"/>
  <unicode hex="01EB"/>
  <anchor x="363" y="550" name="horn"/>
  <anchor x="343" y="550" name="top"/>
  <outline>
    <contour>
      <point x="298" y="-195" type="curve" smooth="yes"/>
      <point x="371" y="-195" type="line"/>
      <point x="378" y="-153" type="line"/>
      <point x="314" y="-153" type="line" smooth="yes"/>
      <point x="282" y="-153"/>
      <point x="266" y="-134"/>
      <point x="271" y="-103" type="curve" smooth="yes"/>
      <point x="275" y="-75"/>
      <point x="304" y="-36"/>
      <point x="348" y="0" type="curve" smooth="yes"/>
      <point x="379" y="25" type="line"/>
      <point x="432" y="59"/>
      <point x="469" y="116"/>
      <point x="481" y="190" type="curve" smooth="yes"/>
      <point x="508" y="360" type="line" smooth="yes"/>
      <point x="527" y="481"/>
      <point x="463" y="560"/>
      <point x="345" y="560" type="curve" smooth="yes"/>
      <point x="227" y="560"/>
      <point x="137" y="481"/>
      <point x="118" y="360" type="curve" smooth="yes"/>
      <point x="91" y="190" type="line" smooth="yes"/>
      <point x="72" y="68"/>
      <point x="136" y="-10"/>
      <point x="254" y="-10" type="curve" smooth="yes"/>
      <point x="270" y="-10"/>
      <point x="287" y="-9"/>
      <point x="301" y="-6" type="curve"/>
      <point x="252" y="-47"/>
      <point x="227" y="-83"/>
      <point x="222" y="-115" type="curve" smooth="yes"/>
      <point x="214" y="-165"/>
      <point x="243" y="-195"/>
    </contour>
    <contour>
      <point x="261" y="34" type="curve" smooth="yes"/>
      <point x="169" y="34"/>
      <point x="125" y="91"/>
      <point x="141" y="190" type="curve" smooth="yes"/>
      <point x="168" y="360" type="line" smooth="yes"/>
      <point x="184" y="458"/>
      <point x="247" y="516"/>
      <point x="338" y="516" type="curve" smooth="yes"/>
      <point x="429" y="516"/>
      <point x="474" y="458"/>
      <point x="458" y="360" type="curve" smooth="yes"/>
      <point x="431" y="190" type="line" smooth="yes"/>
      <point x="415" y="91"/>
      <point x="353" y="34"/>
    </contour>
  </outline>
</glyph>
<glyph name="gravecomb" format="2">
  <unicode hex="0300"/>
  <anchor x="-245" y="550" name="_top"/>
  <anchor x="-253" y="785" name="top"/>
  <outline>
    <contour>
      <point x="-245" y="645" type="line"/>
      <point x="-193" y="645" type="line"/>
      <point x="-277" y="785" type="line"/>
      <point x="-335" y="785" type="line"/>
    </contour>
  </outline>
</glyph>
<glyph name="tildecomb" format="2">
  <unicode hex="0303"/>
  <anchor x="-257" y="550" name="_top"/>
  <anchor x="-220" y="780" name="top"/>
  <outline>
    <contour>
      <point x="-166" y="650" type="curve" smooth="yes"/>
      <point x="-113" y="650"/>
      <point x="-76" y="684"/>
      <point x="-67" y="740" type="curve" smooth="yes"/>
      <point x="-61" y="775" type="line"/>
      <point x="-101" y="775" type="line"/>
      <point x="-107" y="740" type="line" smooth="yes"/>
      <point x="-112" y="709"/>
      <point x="-132" y="689"/>
      <point x="-160" y="689" type="curve" smooth="yes"/>
      <point x="-209" y="689"/>
      <point x="-215" y="780"/>
      <point x="-290" y="780" type="curve" smooth="yes"/>
      <point x="-346" y="780"/>
      <point x="-386" y="746"/>
      <point x="-395" y="690" type="curve" smooth="yes"/>
      <point x="-400" y="655" type="line"/>
      <point x="-360" y="655" type="line"/>
      <point x="-355" y="690" type="line" smooth="yes"/>
      <point x="-350" y="721"/>
      <point x="-328" y="741"/>
      <point x="-297" y="741" type="curve" smooth="yes"/>
      <point x="-248" y="741"/>
      <point x="-241" y="650"/>
    </contour>
  </outline>
</glyph>
<glyph name="macroncomb" format="2">
  <unicode hex="0304"/>
  <anchor x="-256" y="550" name="_top"/>
  <anchor x="-228" y="727" name="top"/>
  <outline>
    <contour>
      <point x="-375" y="684" type="line"/>
      <point x="-95" y="684" type="line"/>
      <point x="-88" y="727" type="line"/>
      <point x="-368" y="727" type="line"/>
    </contour>
  </outline>
</glyph>
<glyph name="brevecomb" format="2">
  <unicode hex="0306"/>
  <anchor x="-256" y="550" name="_top"/>
  <anchor x="-219" y="785" name="top"/>
  <outline>
    <contour>
      <point x="-241" y="643" type="curve" smooth="yes"/>
      <point x="-152" y="643"/>
      <point x="-87" y="698"/>
      <point x="-74" y="785" type="curve"/>
      <point x="-119" y="785" type="line"/>
      <point x="-129" y="722"/>
      <point x="-174" y="683"/>
      <point x="-236" y="683" type="curve" smooth="yes"/>
      <point x="-297" y="683"/>
      <point x="-329" y="722"/>
      <point x="-319" y="785" type="curve"/>
      <point x="-364" y="785" type="line"/>
      <point x="-377" y="698"/>
      <point x="-330" y="643"/>
    </contour>
  </outline>
</glyph>
<glyph name="dieresiscomb" format="2">
  <unicode hex="0308"/>
  <anchor x="-256" y="550" name="_top"/>
  <anchor x="-222" y="765" name="top"/>
  <outline>
    <contour>
      <point x="-131" y="655" type="curve" smooth="yes"/>
      <point x="-100" y="655"/>
      <point x="-77" y="677"/>
      <point x="-72" y="710" type="curve" smooth="yes"/>
      <point x="-66" y="743"/>
      <point x="-83" y="765"/>
      <point x="-114" y="765" type="curve" smooth="yes"/>
      <point x="-146" y="765"/>
      <point x="-170" y="743"/>
      <point x="-176" y="710" type="curve" smooth="yes"/>
      <point x="-181" y="677"/>
      <point x="-163" y="655"/>
    </contour>
    <contour>
      <point x="-346" y="655" type="curve" smooth="yes"/>
      <point x="-315" y="655"/>
      <point x="-291" y="677"/>
      <point x="-286" y="710" type="curve" smooth="yes"/>
      <point x="-280" y="743"/>
      <point x="-298" y="765"/>
      <point x="-329" y="765" type="curve" smooth="yes"/>
      <point x="-360" y="765"/>
      <point x="-384" y="743"/>
      <point x="-390" y="710" type="curve" smooth="yes"/>
      <point x="-395" y="677"/>
      <point x="-377" y="655"/>
    </contour>
  </outline>
</glyph>
<glyph name="hookabovecomb" format="2">
  <unicode hex="0309"/>
  <anchor x="-257" y="550" name="_top"/>
  <anchor x="-210" y="820" name="top"/>
  <outline>
    <contour>
      <point x="-270" y="645" type="line"/>
      <point x="-218" y="645" type="line"/>
      <point x="-163" y="708" type="line" smooth="yes"/>
      <point x="-148" y="725"/>
      <point x="-139" y="745"/>
      <point x="-136" y="761" type="curve" smooth="yes"/>
      <point x="-131" y="797"/>
      <point x="-157" y="820"/>
      <point x="-204" y="820" type="curve" smooth="yes"/>
      <point x="-292" y="820" type="line"/>
      <point x="-298" y="785" type="line"/>
      <point x="-210" y="785" type="line" smooth="yes"/>
      <point x="-187" y="785"/>
      <point x="-175" y="774"/>
      <point x="-178" y="757" type="curve" smooth="yes"/>
      <point x="-179" y="749"/>
      <point x="-190" y="735"/>
      <point x="-202" y="721" type="curve" smooth="yes"/>
    </contour>
  </outline>
</glyph>
<glyph name="ringcomb" format="2">
  <unicode hex="030A"/>
  <anchor x="-256" y="550" name="_top"/>
  <anchor x="-214" y="815" name="top"/>
  <outline>
    <contour>
      <point x="-245" y="615" type="curve" smooth="yes"/>
      <point x="-183" y="615"/>
      <point x="-134" y="655"/>
      <point x="-125" y="715" type="curve" smooth="yes"/>
      <point x="-115" y="775"/>
      <point x="-151" y="815"/>
      <point x="-213" y="815" type="curve" smooth="yes"/>
      <point x="-276" y="815"/>
      <point x="-325" y="775"/>
      <point x="-335" y="715" type="curve" smooth="yes"/>
      <point x="-344" y="655"/>
      <point x="-308" y="615"/>
    </contour>
    <contour>
      <point x="-240" y="650" type="curve" smooth="yes"/>
      <point x="-279" y="650"/>
      <point x="-301" y="676"/>
      <point x="-295" y="715" type="curve" smooth="yes"/>
      <point x="-289" y="754"/>
      <point x="-258" y="780"/>
      <point x="-219" y="780" type="curve" smooth="yes"/>
      <point x="-180" y="780"/>
      <point x="-159" y="754"/>
      <point x="-165" y="715" type="curve" smooth="yes"/>
      <point x="-171" y="676"/>
      <point x="-201" y="650"/>
    </contour>
  </outline>
</glyph>
<glyph name="hungarumlautcomb" format="2">
  <unicode hex="030B"/>
  <anchor x="-257" y="550" name="_top"/>
  <anchor x="-182" y="785" name="top"/>
  <outline>
    <contour>
      <point x="-209" y="645" type="line"/>
      <point x="-153" y="645" type="line"/>
      <point x="-19" y="785" type="line"/>
      <point x="-81" y="785" type="line"/>
    </contour>
    <contour>
      <point x="-368" y="645" type="line"/>
      <point x="-312" y="645" type="line"/>
      <point x="-178" y="785" type="line"/>
      <point x="-240" y="785" type="line"/>
    </contour>
  </outline>
</glyph>
<glyph name="dblgravecomb" format="2">
  <unicode hex="030F"/>
  <anchor x="-257" y="550" name="_top"/>
  <anchor x="-258" y="785" name="top"/>
  <outline>
    <contour>
      <point x="-279" y="645" type="line"/>
      <point x="-363" y="785" type="line"/>
      <point x="-418" y="785" type="line"/>
      <point x="-328" y="645" type="line"/>
    </contour>
    <contour>
      <point x="-120" y="645" type="line"/>
      <point x="-204" y="785" type="line"/>
      <point x="-259" y="785" type="line"/>
      <point x="-169" y="645" type="line"/>
    </contour>
  </outline>
</glyph>
<glyph name="commaturnedabovecomb" format="2">
  <unicode hex="0312"/>
  <anchor x="-257" y="550" name="_top"/>
  <anchor x="-185" y="880" name="top"/>
  <outline>
    <contour>
      <point x="-103" y="880" type="line"/>
      <point x="-152" y="880" type="line"/>
      <point x="-304" y="645" type="line"/>
      <point x="-235" y="645" type="line"/>
    </contour>
  </outline>
</glyph>
<glyph name="horncomb" format="2">
  <unicode hex="031B"/>
  <anchor x="-247" y="550" name="_horn"/>
  <anchor x="-217" y="550" name="_topright"/>
  <anchor x="-19" y="660" name="topright"/>
  <outline>
    <contour>
      <point x="-202" y="515" type="line"/>
      <point x="-147" y="515" type="line" smooth="yes"/>
      <point x="-96" y="515"/>
      <point x="-57" y="549"/>
      <point x="-49" y="600" type="curve" smooth="yes"/>
      <point x="-39" y="660" type="line"/>
      <point x="-79" y="660" type="line"/>
      <point x="-89" y="600" type="line" smooth="yes"/>
      <point x="-94" y="570"/>
      <point x="-115" y="550"/>
      <point x="-142" y="550" type="curve" smooth="yes"/>
      <point x="-197" y="550" type="line"/>
    </contour>
  </outline>
</glyph>
<glyph name="dotbelowcomb" format="2">
  <unicode hex="0323"/>
  <anchor x="-343" y="0" name="_bottom"/>
  <anchor x="-376" y="-205" name="bottom"/>
  <outline>
    <contour>
      <point x="-375" y="-205" type="curve" smooth="yes"/>
      <point x="-340" y="-205"/>
      <point x="-314" y="-183"/>
      <point x="-309" y="-150" type="curve" smooth="yes"/>
      <point x="-304" y="-117"/>
      <point x="-323" y="-95"/>
      <point x="-358" y="-95" type="curve" smooth="yes"/>
      <point x="-393" y="-95"/>
      <point x="-420" y="-117"/>
      <point x="-425" y="-150" type="curve" smooth="yes"/>
      <point x="-430" y="-183"/>
      <point x="-410" y="-205"/>
    </contour>
  </outline>
</glyph>
<glyph name="ringbelowcomb" format="2">
  <unicode hex="0325"/>
  <anchor x="-343" y="0" name="_bottom"/>
  <anchor x="-382" y="-245" name="bottom"/>
  <outline>
    <contour>
      <point x="-382" y="-245" type="curve" smooth="yes"/>
      <point x="-319" y="-245"/>
      <point x="-271" y="-207"/>
      <point x="-262" y="-150" type="curve" smooth="yes"/>
      <point x="-253" y="-93"/>
      <point x="-289" y="-55"/>
      <point x="-352" y="-55" type="curve" smooth="yes"/>
      <point x="-415" y="-55"/>
      <point x="-463" y="-93"/>
      <point x="-472" y="-150" type="curve" smooth="yes"/>
      <point x="-481" y="-207"/>
      <point x="-445" y="-245"/>
    </contour>
    <contour>
      <point x="-377" y="-210" type="curve" smooth="yes"/>
      <point x="-415" y="-210"/>
      <point x="-437" y="-185"/>
      <point x="-432" y="-150" type="curve" smooth="yes"/>
      <point x="-426" y="-115"/>
      <point x="-396" y="-89"/>
      <point x="-358" y="-89" type="curve" smooth="yes"/>
      <point x="-315" y="-89"/>
      <point x="-296" y="-115"/>
      <point x="-302" y="-150" type="curve" smooth="yes"/>
      <point x="-307" y="-185"/>
      <point x="-337" y="-210"/>
    </contour>
  </outline>
</glyph>
<glyph name="ogonekcomb" format="2">
  <unicode hex="0328"/>
  <anchor x="-344" y="0" name="_ogonek"/>
  <outline>
    <contour>
      <point x="-373" y="-195" type="curve"/>
      <point x="-300" y="-195" type="line"/>
      <point x="-293" y="-153" type="line"/>
      <point x="-357" y="-153" type="line" smooth="yes"/>
      <point x="-389" y="-153"/>
      <point x="-405" y="-134"/>
      <point x="-400" y="-103" type="curve" smooth="yes"/>
      <point x="-396" y="-75"/>
      <point x="-367" y="-36"/>
      <point x="-323" y="0" type="curve" smooth="yes"/>
      <point x="-310" y="10" type="line"/>
      <point x="-347" y="10" type="line"/>
      <point x="-404" y="-27"/>
      <point x="-443" y="-74"/>
      <point x="-449" y="-115" type="curve" smooth="yes"/>
      <point x="-457" y="-165"/>
      <point x="-428" y="-195"/>
    </contour>
  </outline>
</glyph>
<glyph name="strokelongcomb" format="2">
  <unicode hex="0336"/>
  <anchor x="-292" y="326" name="_center"/>
  <outline>
    <contour>
      <point x="-625" y="306" type="line"/>
      <point x="34" y="306" type="line"/>
      <point x="41" y="346" type="line"/>
      <point x="-618" y="346" type="line"/>
    </contour>
  </outline>
</glyph>
<glyph name="slashshortcomb" format="2">
  <unicode hex="0337"/>
  <anchor x="-299" y="280" name="_center"/>
  <outline>
    <contour>
      <point x="-588" y="-30" type="line"/>
      <point x="-537" y="-30" type="line"/>
      <point x="-10" y="590" type="line"/>
      <point x="-61" y="590" type="line"/>
    </contour>
  </outline>
</glyph>
<glyph name="slashlongcomb" format="2">
  <unicode hex="0338"/>
  <anchor x="-300" y="275" name="_center"/>
  <outline>
    <contour>
      <point x="-541" y="-110" type="line"/>
      <point x="-493" y="-110" type="line"/>
      <point x="-59" y="660" type="line"/>
      <point x="-107" y="660" type="line"/>
    </contour>
  </outline>
</glyph>
<glyph name="dieresistonos" format="2">
  <advance width="600"/>
  <unicode hex="0385"/>
  <outline>
    <contour>
      <point x="352" y="769" type="line"/>
      <point x="394" y="769" type="line"/>
      <point x="503" y="900" type="line"/>
      <point x="454" y="900" type="line"/>
    </contour>
    <contour>
      <point x="468" y="655" type="curve" smooth="yes"/>
      <point x="499" y="655"/>
      <point x="522" y="677"/>
      <point x="527" y="710" type="curve" smooth="yes"/>
      <point x="533" y="743"/>
      <point x="516" y="765"/>
      <point x="485" y="765" type="curve" smooth="yes"/>
      <point x="453" y="765"/>
      <point x="429" y="743"/>
      <point x="423" y="710" type="curve" smooth="yes"/>
      <point x="418" y="677"/>
      <point x="436" y="655"/>
    </contour>
    <contour>
      <point x="253" y="655" type="curve" smooth="yes"/>
      <point x="284" y="655"/>
      <point x="308" y="677"/>
      <point x="313" y="710" type="curve" smooth="yes"/>
      <point x="319" y="743"/>
      <point x="301" y="765"/>
      <point x="270" y="765" type="curve" smooth="yes"/>
      <point x="239" y="765"/>
      <point x="215" y="743"/>
      <point x="209" y="710" type="curve" smooth="yes"/>
      <point x="204" y="677"/>
      <point x="222" y="655"/>
    </contour>
  </outline>
</glyph>
<glyph name="Delta" format="2">
  <advance width="600"/>
  <unicode hex="0394"/>
  <outline>
    <contour>
      <point x="24" y="0" type="line"/>
      <point x="488" y="0" type="line"/>
      <point x="403" y="730" type="line"/>
      <point x="341" y="730" type="line"/>
    </contour>
    <contour>
      <point x="95" y="45" type="line"/>
      <point x="311" y="550" type="line" smooth="yes"/>
      <point x="335" y="608"/>
      <point x="357" y="664"/>
      <point x="367" y="690" type="curve"/>
      <point x="368" y="664"/>
      <point x="372" y="608"/>
      <point x="378" y="550" type="curve" smooth="yes"/>
      <point x="433" y="45" type="line"/>
    </contour>
  </outline>
</glyph>
<glyph name="Lambda" format="2">
  <advance width="600"/>
  <unicode hex="039B"/>
  <outline>
    <contour>
      <point x="24" y="0" type="line"/>
      <point x="77" y="0" type="line"/>
      <point x="312" y="550" type="line" smooth="yes"/>
      <point x="346" y="630"/>
      <point x="367" y="690"/>
      <point x="367" y="690" type="curve"/>
      <point x="367" y="690"/>
      <point x="370" y="630"/>
      <point x="379" y="550" type="curve" smooth="yes"/>
      <point x="439" y="0" type="line"/>
      <point x="488" y="0" type="line"/>
      <point x="403" y="730" type="line"/>
      <point x="341" y="730" type="line"/>
    </contour>
  </outline>
</glyph>
<glyph name="Xi" format="2">
  <advance width="600"/>
  <unicode hex="039E"/>
  <outline>
    <contour>
      <point x="149" y="680" type="line"/>
      <point x="579" y="680" type="line"/>
      <point x="587" y="730" type="line"/>
      <point x="157" y="730" type="line"/>
    </contour>
    <contour>
      <point x="41" y="0" type="line"/>
      <point x="471" y="0" type="line"/>
      <point x="479" y="50" type="line"/>
      <point x="49" y="50" type="line"/>
    </contour>
    <contour>
      <point x="136" y="345" type="line"/>
      <point x="486" y="345" type="line"/>
      <point x="494" y="395" type="line"/>
      <point x="144" y="395" type="line"/>
    </contour>
  </outline>
</glyph>
<glyph name="Sigma" format="2">
  <advance width="600"/>
  <unicode hex="03A3"/>
  <outline>
    <contour>
      <point x="41" y="0" type="line"/>
      <point x="511" y="0" type="line"/>
      <point x="518" y="46" type="line"/>
      <point x="106" y="46" type="line"/>
      <point x="405" y="373" type="line"/>
      <point x="203" y="684" type="line"/>
      <point x="619" y="684" type="line"/>
      <point x="627" y="730" type="line"/>
      <point x="157" y="730" type="line"/>
      <point x="149" y="682" type="line"/>
      <point x="346" y="378" type="line"/>
      <point x="49" y="48" type="line"/>
    </contour>
  </outline>
</glyph>
<glyph name="beta" format="2">
  <advance width="600"/>
  <unicode hex="03B2"/>
  <outline>
    <contour>
      <point x="37" y="-180" type="line"/>
      <point x="87" y="-180" type="line"/>
      <point x="116" y="0" type="line"/>
      <point x="261" y="0" type="line" smooth="yes"/>
      <point x="393" y="0"/>
      <point x="484" y="80"/>
      <point x="504" y="208" type="curve" smooth="yes"/>
      <point x="518" y="299"/>
      <point x="479" y="360"/>
      <point x="400" y="376" type="curve"/>
      <point x="473" y="395"/>
      <point x="529" y="462"/>
      <point x="543" y="550" type="curve" smooth="yes"/>
      <point x="561" y="666"/>
      <point x="500" y="740"/>
      <point x="378" y="740" type="curve" smooth="yes"/>
      <point x="261" y="740"/>
      <point x="171" y="661"/>
      <point x="152" y="543" type="curve" smooth="yes"/>
    </contour>
    <contour>
      <point x="123" y="45" type="line"/>
      <point x="202" y="543" type="line" smooth="yes"/>
      <point x="217" y="635"/>
      <point x="283" y="695"/>
      <point x="371" y="695" type="curve" smooth="yes"/>
      <point x="463" y="695"/>
      <point x="507" y="637"/>
      <point x="492" y="545" type="curve" smooth="yes"/>
      <point x="478" y="457"/>
      <point x="413" y="397"/>
      <point x="324" y="397" type="curve" smooth="yes"/>
      <point x="284" y="397" type="line"/>
      <point x="277" y="352" type="line"/>
      <point x="317" y="352" type="line" smooth="yes"/>
      <point x="422" y="352"/>
      <point x="468" y="297"/>
      <point x="453" y="200" type="curve" smooth="yes"/>
      <point x="437" y="102"/>
      <point x="373" y="45"/>
      <point x="268" y="45" type="curve" smooth="yes"/>
    </contour>
  </outline>
</glyph>
<glyph name="gamma" format="2">
  <advance width="600"/>
  <unicode hex="03B3"/>
  <outline>
    <contour>
      <point x="203" y="-180" type="line"/>
      <point x="253" y="-180" type="line"/>
      <point x="282" y="0" type="line"/>
      <point x="568" y="550" type="line"/>
      <point x="514" y="550" type="line"/>
      <point x="310" y="150" type="line" smooth="yes"/>
      <point x="295" y="123"/>
      <point x="282" y="86"/>
      <point x="266" y="52" type="curve"/>
      <point x="262" y="86"/>
      <point x="254" y="123"/>
      <point x="249" y="150" type="curve" smooth="yes"/>
      <point x="170" y="550" type="line"/>
      <point x="120" y="550" type="line"/>
      <point x="232" y="0" type="line"/>
    </contour>
  </outline>
</glyph>
<glyph name="delta" format="2">
  <advance width="600"/>
  <unicode hex="03B4"/>
  <outline>
    <contour>
      <point x="256" y="-10" type="curve" smooth="yes"/>
      <point x="380" y="-10"/>
      <point x="462" y="66"/>
      <point x="484" y="200" type="curve" smooth="yes"/>
      <point x="498" y="292" type="line" smooth="yes"/>
      <point x="511" y="370"/>
      <point x="490" y="438"/>
      <point x="437" y="492" type="curve" smooth="yes"/>
      <point x="245" y="685" type="line"/>
      <point x="535" y="685" type="line"/>
      <point x="543" y="730" type="line"/>
      <point x="198" y="730" type="line"/>
      <point x="190" y="683" type="line"/>
      <point x="398" y="469" type="line"/>
      <point x="394" y="466" type="line"/>
      <point x="372" y="483"/>
      <point x="349" y="495"/>
      <point x="313" y="495" type="curve" smooth="yes"/>
      <point x="198" y="495"/>
      <point x="129" y="420"/>
      <point x="108" y="292" type="curve" smooth="yes"/>
      <point x="94" y="200" type="line" smooth="yes"/>
      <point x="72" y="66"/>
      <point x="131" y="-10"/>
    </contour>
    <contour>
      <point x="264" y="35" type="curve" smooth="yes"/>
      <point x="171" y="35"/>
      <point x="127" y="95"/>
      <point x="144" y="200" type="curve" smooth="yes"/>
      <point x="158" y="292" type="line" smooth="yes"/>
      <point x="175" y="397"/>
      <point x="237" y="457"/>
      <point x="329" y="457" type="curve" smooth="yes"/>
      <point x="421" y="457"/>
      <point x="465" y="397"/>
      <point x="448" y="292" type="curve" smooth="yes"/>
      <point x="434" y="200" type="line" smooth="yes"/>
      <point x="417" y="95"/>
      <point x="356" y="35"/>
    </contour>
  </outline>
</glyph>
<glyph name="epsilon" format="2">
  <advance width="600"/>
  <unicode hex="03B5"/>
  <outline>
    <contour>
      <point x="281" y="-10" type="line" smooth="yes"/>
      <point x="392" y="-10"/>
      <point x="461" y="41"/>
      <point x="491" y="125" type="curve"/>
      <point x="441" y="125" type="line"/>
      <point x="416" y="71"/>
      <point x="367" y="35"/>
      <point x="289" y="35" type="curve" smooth="yes"/>
      <point x="233" y="35" type="line" smooth="yes"/>
      <point x="161" y="35"/>
      <point x="115" y="85"/>
      <point x="125" y="146" type="curve" smooth="yes"/>
      <point x="135" y="210"/>
      <point x="191" y="261"/>
      <point x="263" y="261" type="curve" smooth="yes"/>
      <point x="391" y="261" type="line"/>
      <point x="398" y="306" type="line"/>
      <point x="270" y="306" type="line" smooth="yes"/>
      <point x="204" y="306"/>
      <point x="167" y="348"/>
      <point x="176" y="406" type="curve" smooth="yes"/>
      <point x="185" y="464"/>
      <point x="248" y="515"/>
      <point x="314" y="515" type="curve" smooth="yes"/>
      <point x="370" y="515" type="line" smooth="yes"/>
      <point x="448" y="515"/>
      <point x="476" y="479"/>
      <point x="483" y="425" type="curve"/>
      <point x="533" y="425" type="line"/>
      <point x="531" y="509"/>
      <point x="488" y="560"/>
      <point x="377" y="560" type="curve" smooth="yes"/>
      <point x="321" y="560" type="line" smooth="yes"/>
      <point x="222" y="560"/>
      <point x="140" y="495"/>
      <point x="127" y="410" type="curve" smooth="yes"/>
      <point x="116" y="339"/>
      <point x="144" y="287"/>
      <point x="207" y="283" type="curve"/>
      <point x="206" y="279" type="line"/>
      <point x="136" y="274"/>
      <point x="86" y="217"/>
      <point x="75" y="146" type="curve" smooth="yes"/>
      <point x="61" y="55"/>
      <point x="120" y="-10"/>
      <point x="225" y="-10" type="curve" smooth="yes"/>
    </contour>
  </outline>
</glyph>
<glyph name="zeta" format="2">
  <advance width="600"/>
  <unicode hex="03B6"/>
  <outline>
    <contour>
      <point x="394" y="-180" type="line"/>
      <point x="444" y="-180" type="line"/>
      <point x="466" y="-46" type="line" smooth="yes"/>
      <point x="475" y="10"/>
      <point x="443" y="45"/>
      <point x="383" y="45" type="curve" smooth="yes"/>
      <point x="229" y="45" type="line" smooth="yes"/>
      <point x="144" y="45"/>
      <point x="105" y="89"/>
      <point x="118" y="171" type="curve" smooth="yes"/>
      <point x="129" y="243"/>
      <point x="175" y="322"/>
      <point x="428" y="554" type="curve" smooth="yes"/>
      <point x="559" y="674" type="line"/>
      <point x="568" y="730" type="line"/>
      <point x="168" y="730" type="line"/>
      <point x="160" y="685" type="line"/>
      <point x="512" y="685" type="line"/>
      <point x="398" y="583" type="line" smooth="yes"/>
      <point x="125" y="332"/>
      <point x="81" y="251"/>
      <point x="68" y="171" type="curve" smooth="yes"/>
      <point x="51" y="60"/>
      <point x="104" y="0"/>
      <point x="222" y="0" type="curve" smooth="yes"/>
      <point x="376" y="0" type="line" smooth="yes"/>
      <point x="405" y="0"/>
      <point x="420" y="-18"/>
      <point x="416" y="-46" type="curve" smooth="yes"/>
    </contour>
  </outline>
</glyph>
<glyph name="xi" format="2">
  <advance width="600"/>
  <unicode hex="03BE"/>
  <outline>
    <contour>
      <point x="427" y="-180" type="line"/>
      <point x="477" y="-180" type="line"/>
      <point x="499" y="-46" type="line" smooth="yes"/>
      <point x="508" y="10"/>
      <point x="476" y="45"/>
      <point x="416" y="45" type="curve" smooth="yes"/>
      <point x="284" y="45" type="line" smooth="yes"/>
      <point x="182" y="45"/>
      <point x="128" y="107"/>
      <point x="144" y="206" type="curve" smooth="yes"/>
      <point x="159" y="305"/>
      <point x="233" y="367"/>
      <point x="335" y="367" type="curve" smooth="yes"/>
      <point x="484" y="367" type="line"/>
      <point x="491" y="412" type="line"/>
      <point x="342" y="412" type="line" smooth="yes"/>
      <point x="249" y="412"/>
      <point x="199" y="464"/>
      <point x="213" y="548" type="curve" smooth="yes"/>
      <point x="226" y="632"/>
      <point x="294" y="685"/>
      <point x="390" y="685" type="curve" smooth="yes"/>
      <point x="566" y="685" type="line"/>
      <point x="574" y="730" type="line"/>
      <point x="398" y="730" type="line" smooth="yes"/>
      <point x="271" y="730"/>
      <point x="181" y="660"/>
      <point x="163" y="548" type="curve" smooth="yes"/>
      <point x="147" y="449"/>
      <point x="200" y="387"/>
      <point x="301" y="387" type="curve"/>
      <point x="302" y="393" type="line"/>
      <point x="192" y="393"/>
      <point x="112" y="321"/>
      <point x="94" y="206" type="curve" smooth="yes"/>
      <point x="74" y="79"/>
      <point x="144" y="0"/>
      <point x="277" y="0" type="curve" smooth="yes"/>
      <point x="409" y="0" type="line" smooth="yes"/>
      <point x="438" y="0"/>
      <point x="453" y="-18"/>
      <point x="449" y="-46" type="curve" smooth="yes"/>
    </contour>
  </outline>
</glyph>
<glyph name="pi" format="2">
  <advance width="600"/>
  <unicode hex="03C0"/>
  <outline>
    <contour>
      <point x="473" y="-5" type="curve" smooth="yes"/>
      <point x="501" y="-5" type="line"/>
      <point x="508" y="40" type="line"/>
      <point x="480" y="40" type="line" smooth="yes"/>
      <point x="434" y="40"/>
      <point x="411" y="73"/>
      <point x="419" y="125" type="curve" smooth="yes"/>
      <point x="479" y="505" type="line"/>
      <point x="582" y="505" type="line"/>
      <point x="589" y="550" type="line"/>
      <point x="79" y="550" type="line"/>
      <point x="72" y="505" type="line"/>
      <point x="162" y="505" type="line"/>
      <point x="82" y="0" type="line"/>
      <point x="132" y="0" type="line"/>
      <point x="212" y="505" type="line"/>
      <point x="429" y="505" type="line"/>
      <point x="369" y="125" type="line" smooth="yes"/>
      <point x="356" y="45"/>
      <point x="396" y="-5"/>
    </contour>
  </outline>
</glyph>
<glyph name="sigmafinal" format="2">
  <advance width="600"/>
  <unicode hex="03C2"/>
  <outline>
    <contour>
      <point x="394" y="-180" type="line"/>
      <point x="444" y="-180" type="line"/>
      <point x="466" y="-46" type="line" smooth="yes"/>
      <point x="475" y="10"/>
      <point x="443" y="46"/>
      <point x="383" y="46" type="curve" smooth="yes"/>
      <point x="266" y="46" type="line" smooth="yes"/>
      <point x="175" y="46"/>
      <point x="128" y="104"/>
      <point x="144" y="200" type="curve" smooth="yes"/>
      <point x="169" y="360" type="line" smooth="yes"/>
      <point x="184" y="457"/>
      <point x="249" y="514"/>
      <point x="340" y="514" type="curve" smooth="yes"/>
      <point x="432" y="514"/>
      <point x="480" y="460"/>
      <point x="466" y="370" type="curve"/>
      <point x="516" y="370" type="line"/>
      <point x="534" y="486"/>
      <point x="469" y="560"/>
      <point x="348" y="560" type="curve" smooth="yes"/>
      <point x="228" y="560"/>
      <point x="138" y="481"/>
      <point x="119" y="360" type="curve" smooth="yes"/>
      <point x="94" y="200" type="line" smooth="yes"/>
      <point x="74" y="78"/>
      <point x="138" y="0"/>
      <point x="259" y="0" type="curve" smooth="yes"/>
      <point x="376" y="0" type="line" smooth="yes"/>
      <point x="405" y="0"/>
      <point x="420" y="-18"/>
      <point x="416" y="-46" type="curve" smooth="yes"/>
    </contour>
  </outline>
</glyph>
<glyph name="sigma" format="2">
  <advance width="600"/>
  <unicode hex="03C3"/>
  <outline>
    <contour>
      <point x="254" y="-10" type="curve" smooth="yes"/>
      <point x="373" y="-10"/>
      <point x="462" y="68"/>
      <point x="481" y="190" type="curve" smooth="yes"/>
      <point x="508" y="360" type="line" smooth="yes"/>
      <point x="522" y="450"/>
      <point x="479" y="512"/>
      <point x="402" y="512" type="curve"/>
      <point x="436" y="488" type="line"/>
      <point x="439" y="506" type="line"/>
      <point x="556" y="506" type="line"/>
      <point x="563" y="550" type="line"/>
      <point x="343" y="550" type="line" smooth="yes"/>
      <point x="227" y="550"/>
      <point x="136" y="473"/>
      <point x="118" y="360" type="curve" smooth="yes"/>
      <point x="91" y="190" type="line" smooth="yes"/>
      <point x="72" y="68"/>
      <point x="136" y="-10"/>
    </contour>
    <contour>
      <point x="261" y="34" type="curve" smooth="yes"/>
      <point x="169" y="34"/>
      <point x="125" y="91"/>
      <point x="141" y="190" type="curve" smooth="yes"/>
      <point x="168" y="360" type="line" smooth="yes"/>
      <point x="184" y="458"/>
      <point x="245" y="506"/>
      <point x="336" y="506" type="curve" smooth="yes"/>
      <point x="447" y="506"/>
      <point x="474" y="458"/>
      <point x="458" y="360" type="curve" smooth="yes"/>
      <point x="431" y="190" type="line" smooth="yes"/>
      <point x="415" y="91"/>
      <point x="353" y="34"/>
    </contour>
  </outline>
</glyph>
<glyph name="tau" format="2">
  <advance width="600"/>
  <unicode hex="03C4"/>
  <outline>
    <contour>
      <point x="341" y="0" type="curve" smooth="yes"/>
      <point x="451" y="0" type="line"/>
      <point x="458" y="45" type="line"/>
      <point x="348" y="45" type="line" smooth="yes"/>
      <point x="296" y="45"/>
      <point x="273" y="73"/>
      <point x="281" y="125" type="curve" smooth="yes"/>
      <point x="341" y="505" type="line"/>
      <point x="541" y="505" type="line"/>
      <point x="548" y="550" type="line"/>
      <point x="113" y="550" type="line"/>
      <point x="106" y="505" type="line"/>
      <point x="291" y="505" type="line"/>
      <point x="231" y="125" type="line" smooth="yes"/>
      <point x="218" y="44"/>
      <point x="257" y="0"/>
    </contour>
  </outline>
</glyph>
<glyph name="phi" format="2">
  <advance width="600"/>
  <unicode hex="03C6"/>
  <outline>
    <contour>
      <point x="202" y="-180" type="line"/>
      <point x="252" y="-180" type="line"/>
      <point x="281" y="0" type="line"/>
      <point x="412" y="0"/>
      <point x="498" y="75"/>
      <point x="518" y="202" type="curve" smooth="yes"/>
      <point x="547" y="382" type="line" smooth="yes"/>
      <point x="563" y="487"/>
      <point x="510" y="550"/>
      <point x="405" y="550" type="curve" smooth="yes"/>
      <point x="320" y="550" type="line"/>
      <point x="240" y="44" type="line"/>
      <point x="138" y="44"/>
      <point x="90" y="103"/>
      <point x="106" y="202" type="curve" smooth="yes"/>
      <point x="161" y="550" type="line"/>
      <point x="113" y="550" type="line"/>
      <point x="58" y="202" type="line" smooth="yes"/>
      <point x="38" y="75"/>
      <point x="100" y="0"/>
      <point x="231" y="0" type="curve"/>
    </contour>
    <contour>
      <point x="286" y="44" type="curve"/>
      <point x="359" y="506" type="line"/>
      <point x="398" y="506" type="line" smooth="yes"/>
      <point x="473" y="506"/>
      <point x="511" y="460"/>
      <point x="499" y="382" type="curve" smooth="yes"/>
      <point x="470" y="202" type="line" smooth="yes"/>
      <point x="454" y="103"/>
      <point x="388" y="44"/>
    </contour>
  </outline>
</glyph>
<glyph name="psi" format="2">
  <advance width="600"/>
  <unicode hex="03C8"/>
  <outline>
    <contour>
      <point x="202" y="-180" type="line"/>
      <point x="252" y="-180" type="line"/>
      <point x="281" y="0" type="line"/>
      <point x="410" y="0"/>
      <point x="494" y="78"/>
      <point x="514" y="202" type="curve" smooth="yes"/>
      <point x="569" y="550" type="line"/>
      <point x="521" y="550" type="line"/>
      <point x="466" y="202" type="line" smooth="yes"/>
      <point x="450" y="101"/>
      <point x="386" y="48"/>
      <point x="287" y="48" type="curve"/>
      <point x="366" y="550" type="line"/>
      <point x="320" y="550" type="line"/>
      <point x="241" y="48" type="line"/>
      <point x="142" y="48"/>
      <point x="94" y="101"/>
      <point x="110" y="202" type="curve" smooth="yes"/>
      <point x="165" y="550" type="line"/>
      <point x="117" y="550" type="line"/>
      <point x="62" y="202" type="line" smooth="yes"/>
      <point x="42" y="78"/>
      <point x="102" y="0"/>
      <point x="231" y="0" type="curve"/>
    </contour>
  </outline>
</glyph>
<glyph name="omega" format="2">
  <advance width="600"/>
  <unicode hex="03C9"/>
  <outline>
    <contour>
      <point x="148" y="-10" type="curve" smooth="yes"/>
      <point x="216" y="-10"/>
      <point x="266" y="38"/>
      <point x="278" y="115" type="curve"/>
      <point x="272" y="115" type="line"/>
      <point x="260" y="38"/>
      <point x="294" y="-10"/>
      <point x="362" y="-10" type="curve" smooth="yes"/>
      <point x="437" y="-10"/>
      <point x="495" y="48"/>
      <point x="509" y="140" type="curve" smooth="yes"/>
      <point x="548" y="382" type="line" smooth="yes"/>
      <point x="563" y="478"/>
      <point x="522" y="544"/>
      <point x="438" y="560" type="curve"/>
      <point x="430" y="514" type="line"/>
      <point x="484" y="497"/>
      <point x="510" y="448"/>
      <point x="500" y="382" type="curve" smooth="yes"/>
      <point x="461" y="140" type="line" smooth="yes"/>
      <point x="450" y="70"/>
      <point x="414" y="34"/>
      <point x="364" y="34" type="curve" smooth="yes"/>
      <point x="314" y="34"/>
      <point x="291" y="70"/>
      <point x="302" y="140" type="curve" smooth="yes"/>
      <point x="341" y="382" type="line"/>
      <point x="295" y="382" type="line"/>
      <point x="256" y="140" type="line" smooth="yes"/>
      <point x="245" y="70"/>
      <point x="209" y="34"/>
      <point x="159" y="34" type="curve" smooth="yes"/>
      <point x="109" y="34"/>
      <point x="86" y="70"/>
      <point x="97" y="140" type="curve" smooth="yes"/>
      <point x="136" y="382" type="line" smooth="yes"/>
      <point x="146" y="448"/>
      <point x="188" y="497"/>
      <point x="246" y="514" type="curve"/>
      <point x="254" y="560" type="line"/>
      <point x="164" y="544"/>
      <point x="103" y="478"/>
      <point x="88" y="382" type="curve" smooth="yes"/>
      <point x="49" y="140" type="line" smooth="yes"/>
      <point x="35" y="48"/>
      <point x="73" y="-10"/>
    </contour>
  </outline>
</glyph>
<glyph name="KaiSymbol" format="2">
  <advance width="600"/>
  <unicode hex="03CF"/>
  <anchor x="256" y="0" name="bottom"/>
  <anchor x="372" y="730" name="top"/>
  <outline>
    <contour>
      <point x="292" y="-180" type="line"/>
      <point x="337" y="-180" type="line" smooth="yes"/>
      <point x="434" y="-180"/>
      <point x="496" y="-129"/>
      <point x="510" y="-35" type="curve" smooth="yes"/>
      <point x="524" y="51" type="line"/>
      <point x="474" y="51" type="line"/>
      <point x="460" y="-35" type="line" smooth="yes"/>
      <point x="450" y="-99"/>
      <point x="409" y="-135"/>
      <point x="345" y="-135" type="curve" smooth="yes"/>
      <point x="300" y="-135" type="line"/>
    </contour>
    <component base="K"/>
  </outline>
</glyph>
<glyph name="piSymbol" format="2">
  <advance width="600"/>
  <unicode hex="03D6"/>
  <outline>
    <contour>
      <point x="147" y="-10" type="curve" smooth="yes"/>
      <point x="204" y="-10"/>
      <point x="249" y="24"/>
      <point x="269" y="81" type="curve"/>
      <point x="271" y="24"/>
      <point x="304" y="-10"/>
      <point x="361" y="-10" type="curve" smooth="yes"/>
      <point x="436" y="-10"/>
      <point x="494" y="48"/>
      <point x="508" y="140" type="curve" smooth="yes"/>
      <point x="548" y="393" type="line" smooth="yes"/>
      <point x="561" y="471"/>
      <point x="519" y="522"/>
      <point x="443" y="522" type="curve"/>
      <point x="486" y="502" type="line"/>
      <point x="486" y="505" type="line"/>
      <point x="616" y="505" type="line"/>
      <point x="623" y="550" type="line"/>
      <point x="63" y="550" type="line"/>
      <point x="56" y="505" type="line"/>
      <point x="185" y="505" type="line"/>
      <point x="185" y="502" type="line"/>
      <point x="235" y="522" type="line"/>
      <point x="159" y="522"/>
      <point x="101" y="471"/>
      <point x="88" y="393" type="curve" smooth="yes"/>
      <point x="48" y="140" type="line" smooth="yes"/>
      <point x="34" y="48"/>
      <point x="72" y="-10"/>
    </contour>
    <contour>
      <point x="158" y="34" type="curve" smooth="yes"/>
      <point x="108" y="34"/>
      <point x="85" y="70"/>
      <point x="96" y="140" type="curve" smooth="yes"/>
      <point x="137" y="399" type="line" smooth="yes"/>
      <point x="148" y="469"/>
      <point x="183" y="505"/>
      <point x="233" y="505" type="curve" smooth="yes"/>
      <point x="438" y="505" type="line" smooth="yes"/>
      <point x="488" y="505"/>
      <point x="512" y="469"/>
      <point x="501" y="399" type="curve" smooth="yes"/>
      <point x="460" y="140" type="line" smooth="yes"/>
      <point x="449" y="70"/>
      <point x="413" y="34"/>
      <point x="363" y="34" type="curve" smooth="yes"/>
      <point x="313" y="34"/>
      <point x="290" y="70"/>
      <point x="301" y="140" type="curve" smooth="yes"/>
      <point x="340" y="382" type="line"/>
      <point x="294" y="382" type="line"/>
      <point x="255" y="140" type="line" smooth="yes"/>
      <point x="244" y="70"/>
      <point x="208" y="34"/>
    </contour>
  </outline>
</glyph>
<glyph name="kaiSymbol" format="2">
  <advance width="600"/>
  <unicode hex="03D7"/>
  <outline>
    <contour>
      <point x="252" y="-180" type="line"/>
      <point x="297" y="-180" type="line" smooth="yes"/>
      <point x="394" y="-180"/>
      <point x="456" y="-129"/>
      <point x="470" y="-35" type="curve" smooth="yes"/>
      <point x="484" y="51" type="line"/>
      <point x="454" y="51" type="line"/>
      <point x="533" y="550" type="line"/>
      <point x="465" y="550" type="line"/>
      <point x="119" y="45" type="line"/>
      <point x="127" y="82"/>
      <point x="140" y="149"/>
      <point x="148" y="200" type="curve" smooth="yes"/>
      <point x="203" y="550" type="line"/>
      <point x="153" y="550" type="line"/>
      <point x="66" y="0" type="line"/>
      <point x="133" y="0" type="line"/>
      <point x="480" y="505" type="line"/>
      <point x="472" y="468"/>
      <point x="460" y="401"/>
      <point x="451" y="350" type="curve" smooth="yes"/>
      <point x="396" y="0" type="line"/>
      <point x="426" y="0" type="line"/>
      <point x="420" y="-35" type="line" smooth="yes"/>
      <point x="410" y="-99"/>
      <point x="369" y="-135"/>
      <point x="305" y="-135" type="curve" smooth="yes"/>
      <point x="260" y="-135" type="line"/>
    </contour>
  </outline>
</glyph>
<glyph name="Zhe-cy" format="2">
  <advance width="600"/>
  <unicode hex="0416"/>
  <outline>
    <contour>
      <point x="-15" y="0" type="line"/>
      <point x="38" y="0" type="line"/>
      <point x="219" y="354" type="line"/>
      <point x="289" y="354" type="line"/>
      <point x="233" y="0" type="line"/>
      <point x="277" y="0" type="line"/>
      <point x="333" y="354" type="line"/>
      <point x="406" y="354" type="line"/>
      <point x="475" y="0" type="line"/>
      <point x="526" y="0" type="line"/>
      <point x="450" y="376" type="line"/>
      <point x="632" y="730" type="line"/>
      <point x="580" y="730" type="line"/>
      <point x="410" y="396" type="line"/>
      <point x="340" y="396" type="line"/>
      <point x="393" y="730" type="line"/>
      <point x="349" y="730" type="line"/>
      <point x="296" y="396" type="line"/>
      <point x="223" y="396" type="line"/>
      <point x="160" y="730" type="line"/>
      <point x="110" y="730" type="line"/>
      <point x="180" y="382" type="line"/>
    </contour>
  </outline>
</glyph>
<glyph name="Ze-cy" format="2">
  <advance width="600"/>
  <unicode hex="0417"/>
  <outline>
    <contour>
      <point x="244" y="-10" type="curve" smooth="yes"/>
      <point x="378" y="-10"/>
      <point x="484" y="74"/>
      <point x="503" y="196" type="curve" smooth="yes"/>
      <point x="520" y="305"/>
      <point x="456" y="380"/>
      <point x="346" y="380" type="curve"/>
      <point x="345" y="370" type="line"/>
      <point x="445" y="370"/>
      <point x="524" y="442"/>
      <point x="541" y="547" type="curve" smooth="yes"/>
      <point x="559" y="661"/>
      <point x="484" y="740"/>
      <point x="358" y="740" type="curve" smooth="yes"/>
      <point x="232" y="740"/>
      <point x="133" y="661"/>
      <point x="115" y="547" type="curve"/>
      <point x="165" y="547" type="line"/>
      <point x="179" y="635"/>
      <point x="254" y="696"/>
      <point x="351" y="696" type="curve" smooth="yes"/>
      <point x="448" y="696"/>
      <point x="505" y="635"/>
      <point x="491" y="547" type="curve" smooth="yes"/>
      <point x="477" y="459"/>
      <point x="401" y="398"/>
      <point x="304" y="398" type="curve" smooth="yes"/>
      <point x="234" y="398" type="line"/>
      <point x="227" y="353" type="line"/>
      <point x="302" y="353" type="line" smooth="yes"/>
      <point x="406" y="353"/>
      <point x="468" y="288"/>
      <point x="453" y="193" type="curve" smooth="yes"/>
      <point x="438" y="99"/>
      <point x="356" y="35"/>
      <point x="252" y="35" type="curve" smooth="yes"/>
      <point x="148" y="35"/>
      <point x="86" y="99"/>
      <point x="101" y="193" type="curve"/>
      <point x="51" y="193" type="line"/>
      <point x="32" y="73"/>
      <point x="110" y="-10"/>
    </contour>
  </outline>
</glyph>
<glyph name="Ii-cy" format="2">
  <advance width="600"/>
  <unicode hex="0418"/>
  <anchor x="536" y="0" name="bottomright"/>
  <anchor x="372" y="730" name="top"/>
  <outline>
    <contour>
      <point x="65" y="0" type="line"/>
      <point x="134" y="0" type="line"/>
      <point x="510" y="675" type="line"/>
      <point x="502" y="635"/>
      <point x="490" y="575"/>
      <point x="488" y="560" type="curve" smooth="yes"/>
      <point x="399" y="0" type="line"/>
      <point x="447" y="0" type="line"/>
      <point x="563" y="730" type="line"/>
      <point x="493" y="730" type="line"/>
      <point x="120" y="55" type="line"/>
      <point x="124" y="74"/>
      <point x="132" y="119"/>
      <point x="140" y="170" type="curve" smooth="yes"/>
      <point x="229" y="730" type="line"/>
      <point x="181" y="730" type="line"/>
    </contour>
  </outline>
</glyph>
<glyph name="U-cy" format="2">
  <advance width="600"/>
  <unicode hex="0423"/>
  <anchor x="372" y="730" name="top"/>
  <outline>
    <contour>
      <point x="163" y="0" type="line"/>
      <point x="222" y="0" type="line"/>
      <point x="604" y="730" type="line"/>
      <point x="548" y="730" type="line"/>
      <point x="363" y="373" type="line" smooth="yes"/>
      <point x="340" y="329"/>
      <point x="315" y="274"/>
      <point x="303" y="246" type="curve"/>
      <point x="298" y="274"/>
      <point x="286" y="329"/>
      <point x="276" y="373" type="curve" smooth="yes"/>
      <point x="195" y="730" type="line"/>
      <point x="140" y="730" type="line"/>
      <point x="267" y="192" type="line"/>
    </contour>
  </outline>
</glyph>
<glyph name="Che-cy" format="2">
  <advance width="600"/>
  <unicode hex="0427"/>
  <outline>
    <contour>
      <point x="396" y="0" type="line"/>
      <point x="446" y="0" type="line"/>
      <point x="562" y="730" type="line"/>
      <point x="512" y="730" type="line"/>
      <point x="452" y="356" type="line"/>
      <point x="416" y="349"/>
      <point x="363" y="345"/>
      <point x="320" y="345" type="curve" smooth="yes"/>
      <point x="200" y="345"/>
      <point x="157" y="387"/>
      <point x="174" y="491" type="curve" smooth="yes"/>
      <point x="212" y="730" type="line"/>
      <point x="162" y="730" type="line"/>
      <point x="124" y="491" type="line" smooth="yes"/>
      <point x="104" y="366"/>
      <point x="166" y="300"/>
      <point x="303" y="300" type="curve" smooth="yes"/>
      <point x="352" y="300"/>
      <point x="409" y="305"/>
      <point x="446" y="312" type="curve"/>
    </contour>
  </outline>
</glyph>
<glyph name="Ereversed-cy" format="2">
  <advance width="600"/>
  <unicode hex="042D"/>
  <outline>
    <contour>
      <point x="253" y="-10" type="curve" smooth="yes"/>
      <point x="375" y="-10"/>
      <point x="467" y="69"/>
      <point x="486" y="190" type="curve" smooth="yes"/>
      <point x="542" y="540" type="line" smooth="yes"/>
      <point x="561" y="662"/>
      <point x="494" y="740"/>
      <point x="372" y="740" type="curve" smooth="yes"/>
      <point x="248" y="740"/>
      <point x="155" y="658"/>
      <point x="135" y="530" type="curve"/>
      <point x="185" y="530" type="line"/>
      <point x="201" y="632"/>
      <point x="270" y="695"/>
      <point x="365" y="695" type="curve" smooth="yes"/>
      <point x="458" y="695"/>
      <point x="507" y="636"/>
      <point x="492" y="540" type="curve" smooth="yes"/>
      <point x="468" y="391" type="line"/>
      <point x="233" y="391" type="line"/>
      <point x="226" y="346" type="line"/>
      <point x="461" y="346" type="line"/>
      <point x="436" y="190" type="line" smooth="yes"/>
      <point x="421" y="94"/>
      <point x="355" y="35"/>
      <point x="261" y="35" type="curve" smooth="yes"/>
      <point x="165" y="35"/>
      <point x="117" y="98"/>
      <point x="133" y="200" type="curve"/>
      <point x="83" y="200" type="line"/>
      <point x="62" y="72"/>
      <point x="129" y="-10"/>
    </contour>
  </outline>
</glyph>
<glyph name="Ia-cy" format="2">
  <advance width="600"/>
  <unicode hex="042F"/>
  <outline>
    <contour>
      <point x="28" y="0" type="line"/>
      <point x="88" y="0" type="line"/>
      <point x="304" y="330" type="line"/>
      <point x="448" y="330" type="line"/>
      <point x="396" y="0" type="line"/>
      <point x="446" y="0" type="line"/>
      <point x="562" y="730" type="line"/>
      <point x="357" y="730" type="line" smooth="yes"/>
      <point x="228" y="730"/>
      <point x="134" y="652"/>
      <point x="115" y="528" type="curve" smooth="yes"/>
      <point x="97" y="416"/>
      <point x="155" y="339"/>
      <point x="266" y="330" type="curve"/>
      <point x="261" y="351" type="line"/>
    </contour>
    <contour>
      <point x="300" y="375" type="line" smooth="yes"/>
      <point x="203" y="375"/>
      <point x="150" y="436"/>
      <point x="165" y="530" type="curve" smooth="yes"/>
      <point x="180" y="624"/>
      <point x="252" y="685"/>
      <point x="349" y="685" type="curve" smooth="yes"/>
      <point x="504" y="685" type="line"/>
      <point x="455" y="375" type="line"/>
    </contour>
  </outline>
</glyph>
<glyph name="ge-cy" format="2">
  <advance width="600"/>
  <unicode hex="0433"/>
  <anchor x="266" y="0" name="bottom"/>
  <anchor x="373" y="550" name="top"/>
  <outline>
    <contour>
      <point x="283" y="-10" type="line" smooth="yes"/>
      <point x="383" y="-10"/>
      <point x="462" y="50"/>
      <point x="485" y="135" type="curve"/>
      <point x="435" y="135" type="line"/>
      <point x="416" y="77"/>
      <point x="358" y="35"/>
      <point x="289" y="35" type="curve" smooth="yes"/>
      <point x="222" y="35" type="line" smooth="yes"/>
      <point x="149" y="35"/>
      <point x="110" y="76"/>
      <point x="121" y="140" type="curve" smooth="yes"/>
      <point x="130" y="197"/>
      <point x="174" y="241"/>
      <point x="233" y="249" type="curve" smooth="yes"/>
      <point x="342" y="264" type="line" smooth="yes"/>
      <point x="438" y="277"/>
      <point x="500" y="329"/>
      <point x="513" y="411" type="curve" smooth="yes"/>
      <point x="527" y="502"/>
      <point x="469" y="560"/>
      <point x="363" y="560" type="curve" smooth="yes"/>
      <point x="321" y="560" type="line" smooth="yes"/>
      <point x="221" y="560"/>
      <point x="145" y="506"/>
      <point x="123" y="425" type="curve"/>
      <point x="173" y="425" type="line"/>
      <point x="188" y="477"/>
      <point x="243" y="515"/>
      <point x="313" y="515" type="curve" smooth="yes"/>
      <point x="355" y="515" type="line" smooth="yes"/>
      <point x="430" y="515"/>
      <point x="473" y="475"/>
      <point x="463" y="412" type="curve" smooth="yes"/>
      <point x="453" y="357"/>
      <point x="411" y="323"/>
      <point x="341" y="313" type="curve" smooth="yes"/>
      <point x="235" y="298" type="line" smooth="yes"/>
      <point x="149" y="286"/>
      <point x="85" y="228"/>
      <point x="73" y="147" type="curve" smooth="yes"/>
      <point x="58" y="52"/>
      <point x="114" y="-10"/>
      <point x="216" y="-10" type="curve" smooth="yes"/>
    </contour>
  </outline>
</glyph>
<glyph name="de-cy" format="2">
  <advance width="600"/>
  <unicode hex="0434"/>
  <outline>
    <contour>
      <point x="254" y="-10" type="curve" smooth="yes"/>
      <point x="379" y="-10"/>
      <point x="462" y="66"/>
      <point x="483" y="200" type="curve" smooth="yes"/>
      <point x="527" y="475" type="line" smooth="yes"/>
      <point x="553" y="640"/>
      <point x="481" y="730"/>
      <point x="326" y="730" type="curve" smooth="yes"/>
      <point x="201" y="730" type="line"/>
      <point x="194" y="680" type="line"/>
      <point x="319" y="680" type="line" smooth="yes"/>
      <point x="441" y="680"/>
      <point x="497" y="606"/>
      <point x="477" y="475" type="curve" smooth="yes"/>
      <point x="464" y="393" type="line"/>
      <point x="450" y="393" type="line"/>
      <point x="458" y="358" type="line"/>
      <point x="472" y="445"/>
      <point x="423" y="495"/>
      <point x="324" y="495" type="curve" smooth="yes"/>
      <point x="205" y="495"/>
      <point x="128" y="421"/>
      <point x="106" y="285" type="curve" smooth="yes"/>
      <point x="93" y="200" type="line" smooth="yes"/>
      <point x="72" y="66"/>
      <point x="130" y="-10"/>
    </contour>
    <contour>
      <point x="260" y="35" type="curve" smooth="yes"/>
      <point x="170" y="35"/>
      <point x="127" y="97"/>
      <point x="143" y="200" type="curve" smooth="yes"/>
      <point x="156" y="285" type="line" smooth="yes"/>
      <point x="172" y="389"/>
      <point x="236" y="452"/>
      <point x="326" y="452" type="curve" smooth="yes"/>
      <point x="420" y="452"/>
      <point x="462" y="385"/>
      <point x="446" y="285" type="curve" smooth="yes"/>
      <point x="433" y="200" type="line" smooth="yes"/>
      <point x="417" y="97"/>
      <point x="351" y="35"/>
    </contour>
  </outline>
</glyph>
<glyph name="zhe-cy" format="2">
  <advance width="600"/>
  <unicode hex="0436"/>
  <outline>
    <contour>
      <point x="-9" y="0" type="line"/>
      <point x="45" y="0" type="line"/>
      <point x="197" y="260" type="line"/>
      <point x="275" y="260" type="line"/>
      <point x="234" y="0" type="line"/>
      <point x="278" y="0" type="line"/>
      <point x="319" y="260" type="line"/>
      <point x="399" y="260" type="line"/>
      <point x="472" y="0" type="line"/>
      <point x="521" y="0" type="line"/>
      <point x="443" y="282" type="line"/>
      <point x="600" y="550" type="line"/>
      <point x="548" y="550" type="line"/>
      <point x="402" y="300" type="line"/>
      <point x="326" y="300" type="line"/>
      <point x="365" y="550" type="line"/>
      <point x="321" y="550" type="line"/>
      <point x="282" y="300" type="line"/>
      <point x="202" y="300" type="line"/>
      <point x="136" y="550" type="line"/>
      <point x="86" y="550" type="line"/>
      <point x="159" y="285" type="line"/>
    </contour>
  </outline>
</glyph>
<glyph name="ii-cy" format="2">
  <advance width="600"/>
  <unicode hex="0438"/>
  <anchor x="536" y="0" name="bottomright"/>
  <anchor x="344" y="550" name="top"/>
  <outline>
    <contour>
      <point x="242" y="-10" type="curve" smooth="yes"/>
      <point x="340" y="-10"/>
      <point x="412" y="51"/>
      <point x="427" y="146" type="curve"/>
      <point x="389" y="95" type="line"/>
      <point x="412" y="95" type="line"/>
      <point x="397" y="0" type="line"/>
      <point x="447" y="0" type="line"/>
      <point x="534" y="550" type="line"/>
      <point x="484" y="550" type="line"/>
      <point x="427" y="190" type="line" smooth="yes"/>
      <point x="412" y="93"/>
      <point x="347" y="33"/>
      <point x="259" y="33" type="curve" smooth="yes"/>
      <point x="173" y="33"/>
      <point x="129" y="91"/>
      <point x="145" y="190" type="curve" smooth="yes"/>
      <point x="202" y="550" type="line"/>
      <point x="152" y="550" type="line"/>
      <point x="94" y="183" type="line" smooth="yes"/>
      <point x="75" y="65"/>
      <point x="134" y="-10"/>
    </contour>
  </outline>
</glyph>
<glyph name="ef-cy" format="2">
  <advance width="600"/>
  <unicode hex="0444"/>
  <outline>
    <contour>
      <point x="239" y="43" type="line"/>
      <point x="139" y="43"/>
      <point x="88" y="102"/>
      <point x="104" y="202" type="curve" smooth="yes"/>
      <point x="127" y="350" type="line" smooth="yes"/>
      <point x="142" y="449"/>
      <point x="212" y="507"/>
      <point x="312" y="507" type="curve"/>
    </contour>
    <contour>
      <point x="287" y="43" type="curve"/>
      <point x="360" y="507" type="line"/>
      <point x="460" y="507"/>
      <point x="510" y="449"/>
      <point x="495" y="350" type="curve" smooth="yes"/>
      <point x="472" y="202" type="line" smooth="yes"/>
      <point x="456" y="102"/>
      <point x="387" y="43"/>
    </contour>
    <contour>
      <point x="223" y="-55" type="line" smooth="yes"/>
      <point x="215" y="-106"/>
      <point x="181" y="-135"/>
      <point x="130" y="-135" type="curve" smooth="yes"/>
      <point x="17" y="-135" type="line"/>
      <point x="9" y="-180" type="line"/>
      <point x="122" y="-180" type="line" smooth="yes"/>
      <point x="203" y="-180"/>
      <point x="261" y="-133"/>
      <point x="272" y="-55" type="curve" smooth="yes"/>
      <point x="280" y="0" type="line"/>
      <point x="408" y="0"/>
      <point x="501" y="77"/>
      <point x="520" y="202" type="curve" smooth="yes"/>
      <point x="543" y="350" type="line" smooth="yes"/>
      <point x="562" y="474"/>
      <point x="495" y="550"/>
      <point x="367" y="550" type="curve"/>
      <point x="376" y="605" type="line" smooth="yes"/>
      <point x="384" y="656"/>
      <point x="418" y="685"/>
      <point x="469" y="685" type="curve" smooth="yes"/>
      <point x="585" y="685" type="line"/>
      <point x="593" y="730" type="line"/>
      <point x="477" y="730" type="line" smooth="yes"/>
      <point x="396" y="730"/>
      <point x="338" y="683"/>
      <point x="327" y="605" type="curve" smooth="yes"/>
      <point x="319" y="550" type="line"/>
      <point x="191" y="550"/>
      <point x="98" y="474"/>
      <point x="79" y="350" type="curve" smooth="yes"/>
      <point x="56" y="202" type="line" smooth="yes"/>
      <point x="37" y="77"/>
      <point x="104" y="0"/>
      <point x="232" y="0" type="curve"/>
    </contour>
  </outline>
</glyph>
<glyph name="ia-cy" format="2">
  <advance width="600"/>
  <unicode hex="044F"/>
  <outline>
    <contour>
      <point x="43" y="0" type="line"/>
      <point x="100" y="0" type="line"/>
      <point x="263" y="208" type="line"/>
      <point x="429" y="208" type="line"/>
      <point x="396" y="0" type="line"/>
      <point x="446" y="0" type="line"/>
      <point x="533" y="550" type="line"/>
      <point x="323" y="550" type="line" smooth="yes"/>
      <point x="204" y="550"/>
      <point x="118" y="484"/>
      <point x="101" y="379" type="curve" smooth="yes"/>
      <point x="86" y="285"/>
      <point x="135" y="223"/>
      <point x="230" y="211" type="curve"/>
      <point x="227" y="233" type="line"/>
    </contour>
    <contour>
      <point x="276" y="254" type="line" smooth="yes"/>
      <point x="188" y="254"/>
      <point x="139" y="303"/>
      <point x="151" y="379" type="curve" smooth="yes"/>
      <point x="163" y="454"/>
      <point x="229" y="505"/>
      <point x="316" y="505" type="curve" smooth="yes"/>
      <point x="476" y="505" type="line"/>
      <point x="436" y="254" type="line"/>
    </contour>
  </outline>
</glyph>
<glyph name="tshe-cy" format="2">
  <advance width="600"/>
  <unicode hex="045B"/>
  <outline>
    <contour>
      <point x="58" y="586" type="line"/>
      <point x="159" y="586" type="line"/>
      <point x="66" y="0" type="line"/>
      <point x="116" y="0" type="line"/>
      <point x="164" y="300" type="line" smooth="yes"/>
      <point x="179" y="397"/>
      <point x="243" y="457"/>
      <point x="331" y="457" type="curve" smooth="yes"/>
      <point x="417" y="457"/>
      <point x="461" y="399"/>
      <point x="446" y="300" type="curve" smooth="yes"/>
      <point x="398" y="0" type="line"/>
      <point x="448" y="0" type="line"/>
      <point x="497" y="307" type="line" smooth="yes"/>
      <point x="515" y="425"/>
      <point x="456" y="500"/>
      <point x="348" y="500" type="curve" smooth="yes"/>
      <point x="275" y="500"/>
      <point x="216" y="466"/>
      <point x="185" y="410" type="curve"/>
      <point x="181" y="410" type="line"/>
      <point x="194" y="490" type="line"/>
      <point x="209" y="586" type="line"/>
      <point x="388" y="586" type="line"/>
      <point x="395" y="631" type="line"/>
      <point x="216" y="631" type="line"/>
      <point x="232" y="730" type="line"/>
      <point x="182" y="730" type="line"/>
      <point x="166" y="631" type="line"/>
      <point x="65" y="631" type="line"/>
    </contour>
  </outline>
</glyph>
<glyph name="Gheupturn-cy" format="2">
  <advance width="600"/>
  <unicode hex="0490"/>
  <outline>
    <contour>
      <point x="96" y="0" type="line"/>
      <point x="146" y="0" type="line"/>
      <point x="254" y="685" type="line"/>
      <point x="609" y="685" type="line"/>
      <point x="632" y="825" type="line"/>
      <point x="582" y="825" type="line"/>
      <point x="567" y="730" type="line"/>
      <point x="212" y="730" type="line"/>
    </contour>
  </outline>
</glyph>
<glyph name="ghestroke-cy" format="2">
  <advance width="600"/>
  <unicode hex="0493"/>
  <anchor x="383" y="550" name="top"/>
  <outline>
    <contour>
      <point x="116" y="0" type="line"/>
      <point x="166" y="0" type="line"/>
      <point x="208" y="265" type="line"/>
      <point x="398" y="265" type="line"/>
      <point x="405" y="310" type="line"/>
      <point x="215" y="310" type="line"/>
      <point x="246" y="505" type="line"/>
      <point x="571" y="505" type="line"/>
      <point x="578" y="550" type="line"/>
      <point x="203" y="550" type="line"/>
      <point x="165" y="310" type="line"/>
      <point x="65" y="310" type="line"/>
      <point x="58" y="265" type="line"/>
      <point x="158" y="265" type="line"/>
    </contour>
  </outline>
</glyph>
<glyph name="Kadescender-cy" format="2">
  <advance width="600"/>
  <unicode hex="049A"/>
  <anchor x="251" y="0" name="bottom"/>
  <anchor x="367" y="730" name="top"/>
  <outline>
    <contour>
      <point x="444" y="-140" type="line"/>
      <point x="494" y="-140" type="line"/>
      <point x="523" y="45" type="line"/>
      <point x="473" y="45" type="line"/>
    </contour>
    <component base="K" xOffset="-5"/>
  </outline>
</glyph>
<glyph name="Endescender-cy" format="2">
  <advance width="600"/>
  <unicode hex="04A2"/>
  <anchor x="254" y="0" name="bottom"/>
  <anchor x="312" y="365" name="center"/>
  <anchor x="370" y="730" name="top"/>
  <anchor x="90" y="730" name="topleft"/>
  <outline>
    <contour>
      <point x="419" y="-140" type="line"/>
      <point x="469" y="-140" type="line"/>
      <point x="498" y="45" type="line"/>
      <point x="448" y="45" type="line"/>
    </contour>
    <component base="H" xOffset="-2"/>
  </outline>
</glyph>
<glyph name="endescender-cy" format="2">
  <advance width="600"/>
  <unicode hex="04A3"/>
  <anchor x="446" y="0" name="stick-cy"/>
  <outline>
    <contour>
      <point x="64" y="0" type="line"/>
      <point x="114" y="0" type="line"/>
      <point x="155" y="259" type="line"/>
      <point x="434" y="259" type="line"/>
      <point x="393" y="0" type="line"/>
      <point x="444" y="0" type="line"/>
      <point x="531" y="550" type="line"/>
      <point x="480" y="550" type="line"/>
      <point x="441" y="304" type="line"/>
      <point x="162" y="304" type="line"/>
      <point x="201" y="550" type="line"/>
      <point x="151" y="550" type="line"/>
    </contour>
    <contour>
      <point x="419" y="-140" type="line"/>
      <point x="469" y="-140" type="line"/>
      <point x="498" y="45" type="line"/>
      <point x="448" y="45" type="line"/>
    </contour>
  </outline>
</glyph>
<glyph name="ustraightstroke-cy" format="2">
  <advance width="600"/>
  <unicode hex="04B1"/>
  <outline>
    <contour>
      <point x="84" y="-45" type="line"/>
      <point x="414" y="-45" type="line"/>
      <point x="421" y="0" type="line"/>
      <point x="91" y="0" type="line"/>
    </contour>
    <component base="gamma"/>
  </outline>
</glyph>
<glyph name="Chedescender-cy" format="2">
  <advance width="600"/>
  <unicode hex="04B6"/>
  <outline>
    <contour>
      <point x="411" y="-140" type="line"/>
      <point x="461" y="-140" type="line"/>
      <point x="490" y="45" type="line"/>
      <point x="440" y="45" type="line"/>
    </contour>
    <component base="Che-cy" xOffset="-10"/>
  </outline>
</glyph>
<glyph name="chedescender-cy" format="2">
  <advance width="600"/>
  <unicode hex="04B7"/>
  <outline>
    <contour>
      <point x="414" y="-140" type="line"/>
      <point x="464" y="-140" type="line"/>
      <point x="493" y="45" type="line"/>
      <point x="443" y="45" type="line"/>
    </contour>
    <component base="che-cy" xOffset="-3"/>
  </outline>
</glyph>
<glyph name="Schwa-cy" format="2">
  <advance width="600"/>
  <unicode hex="04D8"/>
  <outline>
    <contour>
      <point x="252" y="-10" type="curve" smooth="yes"/>
      <point x="376" y="-10"/>
      <point x="467" y="67"/>
      <point x="486" y="190" type="curve" smooth="yes"/>
      <point x="542" y="540" type="line" smooth="yes"/>
      <point x="561" y="663"/>
      <point x="495" y="740"/>
      <point x="371" y="740" type="curve" smooth="yes"/>
      <point x="246" y="740"/>
      <point x="155" y="659"/>
      <point x="135" y="530" type="curve"/>
      <point x="185" y="530" type="line"/>
      <point x="201" y="632"/>
      <point x="270" y="695"/>
      <point x="364" y="695" type="curve" smooth="yes"/>
      <point x="458" y="695"/>
      <point x="507" y="635"/>
      <point x="492" y="540" type="curve" smooth="yes"/>
      <point x="468" y="391" type="line"/>
      <point x="113" y="391" type="line"/>
      <point x="83" y="200" type="line" smooth="yes"/>
      <point x="62" y="71"/>
      <point x="127" y="-10"/>
    </contour>
    <contour>
      <point x="260" y="35" type="curve" smooth="yes"/>
      <point x="166" y="35"/>
      <point x="117" y="98"/>
      <point x="133" y="200" type="curve" smooth="yes"/>
      <point x="156" y="346" type="line"/>
      <point x="461" y="346" type="line"/>
      <point x="436" y="190" type="line" smooth="yes"/>
      <point x="421" y="95"/>
      <point x="354" y="35"/>
    </contour>
  </outline>
</glyph>
<glyph name="four-gujarati" format="2">
  <advance width="600"/>
  <unicode hex="0AEA"/>
  <outline>
    <contour>
      <point x="300" y="-10" type="curve" smooth="yes"/>
      <point x="419" y="-10"/>
      <point x="500" y="67"/>
      <point x="500" y="174" type="curve" smooth="yes"/>
      <point x="500" y="230"/>
      <point x="471" y="286"/>
      <point x="431" y="332" type="curve" smooth="yes"/>
      <point x="155" y="650" type="line"/>
      <point x="96" y="650" type="line"/>
      <point x="393" y="305" type="line" smooth="yes"/>
      <point x="426" y="267"/>
      <point x="450" y="223"/>
      <point x="450" y="177" type="curve" smooth="yes"/>
      <point x="450" y="96"/>
      <point x="389" y="34"/>
      <point x="300" y="34" type="curve" smooth="yes"/>
      <point x="211" y="34"/>
      <point x="150" y="96"/>
      <point x="150" y="177" type="curve" smooth="yes"/>
      <point x="150" y="224"/>
      <point x="168" y="260"/>
      <point x="205" y="303" type="curve" smooth="yes"/>
      <point x="504" y="650" type="line"/>
      <point x="447" y="650" type="line"/>
      <point x="171" y="332" type="line" smooth="yes"/>
      <point x="125" y="279"/>
      <point x="100" y="225"/>
      <point x="100" y="174" type="curve" smooth="yes"/>
      <point x="100" y="67"/>
      <point x="181" y="-10"/>
    </contour>
  </outline>
</glyph>
<glyph name="Germandbls" format="2">
  <advance width="600"/>
  <unicode hex="1E9E"/>
  <outline>
    <contour>
      <point x="66" y="0" type="line"/>
      <point x="116" y="0" type="line"/>
      <point x="202" y="543" type="line" smooth="yes"/>
      <point x="216" y="629"/>
      <point x="281" y="685"/>
      <point x="369" y="685" type="curve" smooth="yes"/>
      <point x="528" y="685" type="line"/>
      <point x="291" y="411" type="line"/>
      <point x="284" y="368" type="line"/>
      <point x="324" y="368" type="line" smooth="yes"/>
      <point x="421" y="368"/>
      <point x="474" y="305"/>
      <point x="459" y="208" type="curve" smooth="yes"/>
      <point x="443" y="109"/>
      <point x="370" y="45"/>
      <point x="273" y="45" type="curve" smooth="yes"/>
      <point x="211" y="45" type="line"/>
      <point x="204" y="0" type="line"/>
      <point x="266" y="0" type="line" smooth="yes"/>
      <point x="394" y="0"/>
      <point x="489" y="82"/>
      <point x="509" y="210" type="curve" smooth="yes"/>
      <point x="528" y="330"/>
      <point x="458" y="407"/>
      <point x="330" y="407" type="curve"/>
      <point x="331" y="396" type="line"/>
      <point x="581" y="684" type="line"/>
      <point x="589" y="730" type="line"/>
      <point x="377" y="730" type="line" smooth="yes"/>
      <point x="259" y="730"/>
      <point x="170" y="657"/>
      <point x="152" y="543" type="curve" smooth="yes"/>
    </contour>
  </outline>
</glyph>
<glyph name="emdash" format="2">
  <advance width="600"/>
  <unicode hex="2014"/>
  <outline>
    <contour>
      <point x="6" y="309" type="line"/>
      <point x="605" y="309" type="line"/>
      <point x="612" y="354" type="line"/>
      <point x="13" y="354" type="line"/>
    </contour>
  </outline>
</glyph>
<glyph name="guilsinglleft" format="2">
  <advance width="600"/>
  <unicode hex="2039"/>
  <outline>
    <contour>
      <point x="333" y="40" type="line"/>
      <point x="390" y="40" type="line"/>
      <point x="230" y="277" type="line"/>
      <point x="465" y="520" type="line"/>
      <point x="406" y="520" type="line"/>
      <point x="170" y="280" type="line"/>
    </contour>
  </outline>
</glyph>
<glyph name="guilsinglright" format="2">
  <advance width="600"/>
  <unicode hex="203A"/>
  <outline>
    <contour>
      <point x="135" y="40" type="line"/>
      <point x="194" y="40" type="line"/>
      <point x="430" y="280" type="line"/>
      <point x="267" y="520" type="line"/>
      <point x="210" y="520" type="line"/>
      <point x="370" y="283" type="line"/>
    </contour>
  </outline>
</glyph>
<glyph name="foursuperior" format="2">
  <advance width="600"/>
  <unicode hex="2074"/>
  <outline>
    <contour>
      <point x="390" y="405" type="line"/>
      <point x="435" y="405" type="line"/>
      <point x="475" y="656" type="line"/>
      <point x="430" y="656" type="line"/>
      <point x="413" y="550" type="line"/>
      <point x="248" y="550" type="line"/>
      <point x="251" y="566" type="line"/>
      <point x="471" y="830" type="line"/>
      <point x="419" y="830" type="line"/>
      <point x="208" y="580" type="line"/>
      <point x="197" y="510" type="line"/>
      <point x="407" y="510" type="line"/>
    </contour>
  </outline>
</glyph>
<glyph name="sevensuperior" format="2">
  <advance width="600"/>
  <unicode hex="2077"/>
  <outline>
    <contour>
      <point x="241" y="405" type="line"/>
      <point x="292" y="405" type="line"/>
      <point x="525" y="785" type="line"/>
      <point x="532" y="830" type="line"/>
      <point x="252" y="830" type="line"/>
      <point x="232" y="703" type="line"/>
      <point x="277" y="703" type="line"/>
      <point x="291" y="790" type="line"/>
      <point x="480" y="790" type="line"/>
    </contour>
  </outline>
</glyph>
<glyph name="eightsuperior" format="2">
  <advance width="600"/>
  <unicode hex="2078"/>
  <outline>
    <contour>
      <point x="319" y="395" type="curve" smooth="yes"/>
      <point x="407" y="395"/>
      <point x="465" y="436"/>
      <point x="476" y="505" type="curve" smooth="yes"/>
      <point x="483" y="550"/>
      <point x="455" y="593"/>
      <point x="401" y="621" type="curve" smooth="yes"/>
      <point x="320" y="664" type="line" smooth="yes"/>
      <point x="294" y="678"/>
      <point x="283" y="704"/>
      <point x="287" y="735" type="curve" smooth="yes"/>
      <point x="294" y="776"/>
      <point x="330" y="800"/>
      <point x="383" y="800" type="curve" smooth="yes"/>
      <point x="436" y="800"/>
      <point x="464" y="776"/>
      <point x="457" y="735" type="curve" smooth="yes"/>
      <point x="453" y="704"/>
      <point x="431" y="678"/>
      <point x="400" y="664" type="curve" smooth="yes"/>
      <point x="302" y="620" type="line" smooth="yes"/>
      <point x="243" y="593"/>
      <point x="203" y="550"/>
      <point x="196" y="505" type="curve" smooth="yes"/>
      <point x="185" y="436"/>
      <point x="231" y="395"/>
    </contour>
    <contour>
      <point x="325" y="435" type="curve" smooth="yes"/>
      <point x="265" y="435"/>
      <point x="234" y="461"/>
      <point x="241" y="504" type="curve" smooth="yes"/>
      <point x="247" y="540"/>
      <point x="273" y="572"/>
      <point x="310" y="589" type="curve" smooth="yes"/>
      <point x="408" y="632" type="line" smooth="yes"/>
      <point x="461" y="655"/>
      <point x="496" y="694"/>
      <point x="503" y="737" type="curve" smooth="yes"/>
      <point x="513" y="802"/>
      <point x="471" y="840"/>
      <point x="389" y="840" type="curve" smooth="yes"/>
      <point x="307" y="840"/>
      <point x="253" y="802"/>
      <point x="243" y="737" type="curve" smooth="yes"/>
      <point x="236" y="695"/>
      <point x="258" y="657"/>
      <point x="301" y="634" type="curve" smooth="yes"/>
      <point x="383" y="590" type="line" smooth="yes"/>
      <point x="418" y="571"/>
      <point x="436" y="539"/>
      <point x="431" y="504" type="curve" smooth="yes"/>
      <point x="424" y="461"/>
      <point x="385" y="435"/>
    </contour>
  </outline>
</glyph>
<glyph name="ninesuperior" format="2">
  <advance width="600"/>
  <unicode hex="2079"/>
  <outline>
    <contour>
      <point x="265" y="405" type="line"/>
      <point x="313" y="405" type="line"/>
      <point x="448" y="577" type="line" smooth="yes"/>
      <point x="476" y="612"/>
      <point x="504" y="658"/>
      <point x="511" y="702" type="curve" smooth="yes"/>
      <point x="524" y="786"/>
      <point x="476" y="840"/>
      <point x="388" y="840" type="curve" smooth="yes"/>
      <point x="301" y="840"/>
      <point x="236" y="786"/>
      <point x="223" y="702" type="curve" smooth="yes"/>
      <point x="210" y="621"/>
      <point x="253" y="568"/>
      <point x="332" y="568" type="curve" smooth="yes"/>
      <point x="372" y="568"/>
      <point x="410" y="588"/>
      <point x="429" y="619" type="curve"/>
      <point x="398" y="609" type="line"/>
      <point x="426" y="609" type="line"/>
    </contour>
    <contour>
      <point x="352" y="604" type="curve" smooth="yes"/>
      <point x="292" y="604"/>
      <point x="259" y="642"/>
      <point x="268" y="702" type="curve" smooth="yes"/>
      <point x="278" y="762"/>
      <point x="323" y="800"/>
      <point x="383" y="800" type="curve" smooth="yes"/>
      <point x="443" y="800"/>
      <point x="476" y="762"/>
      <point x="466" y="702" type="curve" smooth="yes"/>
      <point x="457" y="642"/>
      <point x="412" y="604"/>
    </contour>
  </outline>
</glyph>
<glyph name="tugrik" format="2">
  <advance width="600"/>
  <unicode hex="20AE"/>
  <outline>
    <contour>
      <point x="232" y="0" type="line"/>
      <point x="282" y="0" type="line"/>
      <point x="320" y="237" type="line"/>
      <point x="503" y="287" type="line"/>
      <point x="509" y="329" type="line"/>
      <point x="326" y="279" type="line"/>
      <point x="345" y="396" type="line"/>
      <point x="528" y="446" type="line"/>
      <point x="534" y="488" type="line"/>
      <point x="351" y="438" type="line"/>
      <point x="390" y="685" type="line"/>
      <point x="604" y="685" type="line"/>
      <point x="612" y="730" type="line"/>
      <point x="132" y="730" type="line"/>
      <point x="124" y="685" type="line"/>
      <point x="340" y="685" type="line"/>
      <point x="299" y="423" type="line"/>
      <point x="116" y="373" type="line"/>
      <point x="110" y="331" type="line"/>
      <point x="293" y="381" type="line"/>
      <point x="274" y="264" type="line"/>
      <point x="91" y="214" type="line"/>
      <point x="84" y="172" type="line"/>
      <point x="267" y="222" type="line"/>
    </contour>
  </outline>
</glyph>
<glyph name="bitcoin" format="2">
  <advance width="600"/>
  <unicode hex="20BF"/>
  <outline>
    <contour>
      <point x="126" y="-140" type="line"/>
      <point x="164" y="-140" type="line"/>
      <point x="186" y="0" type="line"/>
      <point x="266" y="0" type="line"/>
      <point x="244" y="-140" type="line"/>
      <point x="282" y="-140" type="line"/>
      <point x="305" y="4" type="line"/>
      <point x="411" y="20"/>
      <point x="487" y="93"/>
      <point x="504" y="200" type="curve" smooth="yes"/>
      <point x="519" y="294"/>
      <point x="480" y="358"/>
      <point x="401" y="376" type="curve"/>
      <point x="474" y="394"/>
      <point x="526" y="456"/>
      <point x="540" y="542" type="curve" smooth="yes"/>
      <point x="555" y="639"/>
      <point x="508" y="708"/>
      <point x="419" y="725" type="curve"/>
      <point x="442" y="871" type="line"/>
      <point x="404" y="871" type="line"/>
      <point x="382" y="730" type="line"/>
      <point x="302" y="730" type="line"/>
      <point x="324" y="871" type="line"/>
      <point x="286" y="871" type="line"/>
      <point x="264" y="730" type="line"/>
      <point x="182" y="730" type="line"/>
      <point x="66" y="0" type="line"/>
      <point x="148" y="0" type="line"/>
    </contour>
    <contour>
      <point x="123" y="45" type="line"/>
      <point x="172" y="353" type="line"/>
      <point x="313" y="353" type="line" smooth="yes"/>
      <point x="415" y="353"/>
      <point x="469" y="294"/>
      <point x="454" y="199" type="curve" smooth="yes"/>
      <point x="438" y="104"/>
      <point x="366" y="45"/>
      <point x="264" y="45" type="curve" smooth="yes"/>
    </contour>
    <contour>
      <point x="179" y="398" type="line"/>
      <point x="224" y="685" type="line"/>
      <point x="362" y="685" type="line" smooth="yes"/>
      <point x="455" y="685"/>
      <point x="504" y="630"/>
      <point x="490" y="541" type="curve" smooth="yes"/>
      <point x="476" y="452"/>
      <point x="411" y="398"/>
      <point x="317" y="398" type="curve" smooth="yes"/>
    </contour>
  </outline>
</glyph>
<glyph name="numero" format="2">
  <advance width="600"/>
  <unicode hex="2116"/>
  <outline>
    <contour>
      <point x="1" y="0" type="line"/>
      <point x="43" y="0" type="line"/>
      <point x="130" y="550" type="line" smooth="yes"/>
      <point x="137" y="594"/>
      <point x="144" y="644"/>
      <point x="147" y="670" type="curve"/>
      <point x="150" y="634"/>
      <point x="156" y="571"/>
      <point x="161" y="529" type="curve" smooth="yes"/>
      <point x="225" y="0" type="line"/>
      <point x="285" y="0" type="line"/>
      <point x="401" y="730" type="line"/>
      <point x="359" y="730" type="line"/>
      <point x="272" y="180" type="line" smooth="yes"/>
      <point x="265" y="136"/>
      <point x="258" y="85"/>
      <point x="256" y="59" type="curve"/>
      <point x="254" y="90"/>
      <point x="248" y="148"/>
      <point x="243" y="190" type="curve" smooth="yes"/>
      <point x="177" y="730" type="line"/>
      <point x="117" y="730" type="line"/>
    </contour>
    <contour>
      <point x="504" y="300" type="curve" smooth="yes"/>
      <point x="559" y="300"/>
      <point x="599" y="336"/>
      <point x="608" y="390" type="curve" smooth="yes"/>
      <point x="649" y="650" type="line" smooth="yes"/>
      <point x="658" y="704"/>
      <point x="628" y="740"/>
      <point x="573" y="740" type="curve" smooth="yes"/>
      <point x="518" y="740"/>
      <point x="478" y="704"/>
      <point x="469" y="650" type="curve" smooth="yes"/>
      <point x="428" y="390" type="line" smooth="yes"/>
      <point x="419" y="336"/>
      <point x="449" y="300"/>
    </contour>
    <contour>
      <point x="510" y="338" type="curve" smooth="yes"/>
      <point x="482" y="338"/>
      <point x="465" y="360"/>
      <point x="470" y="390" type="curve" smooth="yes"/>
      <point x="511" y="650" type="line" smooth="yes"/>
      <point x="516" y="680"/>
      <point x="539" y="702"/>
      <point x="567" y="702" type="curve" smooth="yes"/>
      <point x="595" y="702"/>
      <point x="612" y="680"/>
      <point x="607" y="650" type="curve" smooth="yes"/>
      <point x="566" y="390" type="line" smooth="yes"/>
      <point x="561" y="360"/>
      <point x="538" y="338"/>
    </contour>
  </outline>
</glyph>
<glyph name="trademark" format="2">
  <advance width="600"/>
  <unicode hex="2122"/>
  <outline>
    <contour>
      <point x="142" y="370" type="line"/>
      <point x="178" y="370" type="line"/>
      <point x="230" y="699" type="line"/>
      <point x="335" y="699" type="line"/>
      <point x="340" y="730" type="line"/>
      <point x="94" y="730" type="line"/>
      <point x="89" y="699" type="line"/>
      <point x="194" y="699" type="line"/>
    </contour>
    <contour>
      <point x="329" y="370" type="line"/>
      <point x="365" y="370" type="line"/>
      <point x="401" y="601" type="line" smooth="yes"/>
      <point x="405" y="627"/>
      <point x="411" y="678"/>
      <point x="414" y="710" type="curve"/>
      <point x="420" y="686"/>
      <point x="428" y="646"/>
      <point x="433" y="621" type="curve" smooth="yes"/>
      <point x="455" y="528" type="line"/>
      <point x="497" y="528" type="line"/>
      <point x="544" y="620" type="line" smooth="yes"/>
      <point x="557" y="644"/>
      <point x="578" y="685"/>
      <point x="591" y="710" type="curve"/>
      <point x="584" y="678"/>
      <point x="574" y="627"/>
      <point x="570" y="601" type="curve" smooth="yes"/>
      <point x="534" y="370" type="line"/>
      <point x="570" y="370" type="line"/>
      <point x="627" y="730" type="line"/>
      <point x="574" y="730" type="line"/>
      <point x="518" y="628" type="line" smooth="yes"/>
      <point x="507" y="608"/>
      <point x="489" y="570"/>
      <point x="480" y="548" type="curve"/>
      <point x="475" y="570"/>
      <point x="468" y="608"/>
      <point x="463" y="628" type="curve" smooth="yes"/>
      <point x="440" y="730" type="line"/>
      <point x="386" y="730" type="line"/>
    </contour>
  </outline>
</glyph>
<glyph name="leftRightWaveArrow" format="2">
  <advance width="600"/>
  <unicode hex="21AD"/>
  <outline>
    <contour>
      <point x="76" y="75" type="line"/>
      <point x="182" y="75" type="line"/>
      <point x="95" y="185" type="line" smooth="yes"/>
      <point x="76" y="209"/>
      <point x="52" y="229"/>
      <point x="15" y="248" type="curve"/>
      <point x="15" y="210" type="line"/>
      <point x="149" y="211" type="line" smooth="yes"/>
      <point x="240" y="212"/>
      <point x="245" y="320"/>
      <point x="300" y="320" type="curve" smooth="yes"/>
      <point x="355" y="320"/>
      <point x="360" y="212"/>
      <point x="451" y="211" type="curve" smooth="yes"/>
      <point x="586" y="210" type="line"/>
      <point x="586" y="248" type="line"/>
      <point x="548" y="229"/>
      <point x="524" y="209"/>
      <point x="505" y="185" type="curve" smooth="yes"/>
      <point x="418" y="75" type="line"/>
      <point x="524" y="75" type="line"/>
      <point x="680" y="275" type="line"/>
      <point x="524" y="475" type="line"/>
      <point x="418" y="475" type="line"/>
      <point x="505" y="366" type="line" smooth="yes"/>
      <point x="548" y="312"/>
      <point x="565" y="297"/>
      <point x="586" y="278" type="curve"/>
      <point x="586" y="290" type="line"/>
      <point x="455" y="290" type="line" smooth="yes"/>
      <point x="405" y="290"/>
      <point x="380" y="405"/>
      <point x="300" y="405" type="curve" smooth="yes"/>
      <point x="220" y="405"/>
      <point x="195" y="290"/>
      <point x="145" y="290" type="curve" smooth="yes"/>
      <point x="15" y="290" type="line"/>
      <point x="15" y="278" type="line"/>
      <point x="36" y="297"/>
      <point x="52" y="312"/>
      <point x="95" y="366" type="curve" smooth="yes"/>
      <point x="182" y="475" type="line"/>
      <point x="76" y="475" type="line"/>
      <point x="-80" y="275" type="line"/>
    </contour>
  </outline>
</glyph>
<glyph name="rightWhiteArrow" format="2">
  <advance width="600"/>
  <unicode hex="21E8"/>
  <outline>
    <contour>
      <point x="339" y="-10" type="line"/>
      <point x="660" y="275" type="line"/>
      <point x="339" y="560" type="line"/>
      <point x="339" y="432" type="line"/>
      <point x="1" y="432" type="line" smooth="yes"/>
      <point x="-16" y="432"/>
      <point x="-30" y="418"/>
      <point x="-30" y="401" type="curve" smooth="yes"/>
      <point x="-30" y="151" type="line" smooth="yes"/>
      <point x="-30" y="134"/>
      <point x="-16" y="120"/>
      <point x="1" y="120" type="curve" smooth="yes"/>
      <point x="339" y="120" type="line"/>
    </contour>
    <contour>
      <point x="379" y="79" type="line"/>
      <point x="379" y="160" type="line"/>
      <point x="15" y="160" type="line"/>
      <point x="15" y="392" type="line"/>
      <point x="379" y="392" type="line"/>
      <point x="379" y="471" type="line"/>
      <point x="600" y="275" type="line"/>
    </contour>
  </outline>
</glyph>
<glyph name="universal" format="2">
  <advance width="600"/>
  <unicode hex="2200"/>
  <outline>
    <contour>
      <point x="225" y="0" type="line"/>
      <point x="287" y="0" type="line"/>
      <point x="604" y="730" type="line"/>
      <point x="552" y="730" type="line"/>
      <point x="458" y="510" type="line"/>
      <point x="214" y="510" type="line"/>
      <point x="190" y="730" type="line"/>
      <point x="140" y="730" type="line"/>
    </contour>
    <contour>
      <point x="264" y="41" type="curve"/>
      <point x="219" y="465" type="line"/>
      <point x="439" y="465" type="line"/>
      <point x="317" y="180" type="line" smooth="yes"/>
      <point x="292" y="122"/>
      <point x="272" y="68"/>
    </contour>
  </outline>
</glyph>
<glyph name="partialdiff" format="2">
  <advance width="600"/>
  <unicode hex="2202"/>
  <outline>
    <contour>
      <point x="253" y="-10" type="curve" smooth="yes"/>
      <point x="378" y="-10"/>
      <point x="461" y="66"/>
      <point x="483" y="200" type="curve" smooth="yes"/>
      <point x="514" y="395" type="line" smooth="yes"/>
      <point x="537" y="542"/>
      <point x="425" y="672"/>
      <point x="336" y="730" type="curve"/>
      <point x="259" y="730" type="line"/>
      <point x="360" y="667"/>
      <point x="486" y="535"/>
      <point x="465" y="405" type="curve" smooth="yes"/>
      <point x="463" y="393" type="line"/>
      <point x="449" y="393" type="line"/>
      <point x="458" y="358" type="line"/>
      <point x="471" y="445"/>
      <point x="422" y="495"/>
      <point x="323" y="495" type="curve" smooth="yes"/>
      <point x="204" y="495"/>
      <point x="128" y="421"/>
      <point x="106" y="285" type="curve" smooth="yes"/>
      <point x="93" y="200" type="line" smooth="yes"/>
      <point x="71" y="66"/>
      <point x="129" y="-10"/>
    </contour>
    <contour>
      <point x="261" y="35" type="curve" smooth="yes"/>
      <point x="171" y="35"/>
      <point x="126" y="97"/>
      <point x="143" y="200" type="curve" smooth="yes"/>
      <point x="156" y="285" type="line" smooth="yes"/>
      <point x="173" y="389"/>
      <point x="237" y="452"/>
      <point x="327" y="452" type="curve" smooth="yes"/>
      <point x="421" y="452"/>
      <point x="462" y="385"/>
      <point x="446" y="285" type="curve" smooth="yes"/>
      <point x="433" y="200" type="line" smooth="yes"/>
      <point x="416" y="97"/>
      <point x="352" y="35"/>
    </contour>
  </outline>
</glyph>
<glyph name="theredoesnotexist" format="2">
  <advance width="600"/>
  <unicode hex="2204"/>
  <outline>
    <contour>
      <point x="19" y="-110" type="line"/>
      <point x="67" y="-110" type="line"/>
      <point x="560" y="830" type="line"/>
      <point x="512" y="830" type="line"/>
    </contour>
    <component base="existential"/>
  </outline>
</glyph>
<glyph name="summation" format="2">
  <advance width="600"/>
  <unicode hex="2211"/>
  <outline>
    <contour>
      <point x="-18" y="-180" type="line"/>
      <point x="467" y="-180" type="line"/>
      <point x="475" y="-135" type="line"/>
      <point x="51" y="-135" type="line"/>
      <point x="428" y="278" type="line"/>
      <point x="177" y="685" type="line"/>
      <point x="604" y="685" type="line"/>
      <point x="612" y="730" type="line"/>
      <point x="127" y="730" type="line"/>
      <point x="119" y="683" type="line"/>
      <point x="365" y="283" type="line"/>
      <point x="-10" y="-133" type="line"/>
    </contour>
  </outline>
</glyph>
<glyph name="doesnotdivide" format="2">
  <advance width="600"/>
  <unicode hex="2224"/>
  <outline>
    <contour>
      <point x="146" y="140" type="line"/>
      <point x="194" y="140" type="line"/>
      <point x="483" y="590" type="line"/>
      <point x="435" y="590" type="line"/>
    </contour>
    <component base="divides"/>
  </outline>
</glyph>
<glyph name="logicaland" format="2">
  <advance width="600"/>
  <unicode hex="2227"/>
  <outline>
    <contour>
      <point x="40" y="50" type="line"/>
      <point x="94" y="50" type="line"/>
      <point x="339" y="509" type="line"/>
      <point x="438" y="50" type="line"/>
      <point x="488" y="50" type="line"/>
      <point x="374" y="550" type="line"/>
      <point x="312" y="550" type="line"/>
    </contour>
  </outline>
</glyph>
<glyph name="logicalor" format="2">
  <advance width="600"/>
  <unicode hex="2228"/>
  <outline>
    <contour>
      <point x="233" y="50" type="line"/>
      <point x="295" y="50" type="line"/>
      <point x="567" y="550" type="line"/>
      <point x="514" y="550" type="line"/>
      <point x="271" y="94" type="line"/>
      <point x="169" y="550" type="line"/>
      <point x="119" y="550" type="line"/>
    </contour>
  </outline>
</glyph>
<glyph name="intersection" format="2">
  <advance width="600"/>
  <unicode hex="2229"/>
  <outline>
    <contour>
      <point x="321" y="580" type="line" smooth="yes"/>
      <point x="196" y="580"/>
      <point x="105" y="501"/>
      <point x="85" y="375" type="curve" smooth="yes"/>
      <point x="39" y="80" type="line"/>
      <point x="89" y="80" type="line"/>
      <point x="135" y="375" type="line" smooth="yes"/>
      <point x="151" y="475"/>
      <point x="219" y="535"/>
      <point x="316" y="535" type="curve" smooth="yes"/>
      <point x="366" y="535" type="line" smooth="yes"/>
      <point x="463" y="535"/>
      <point x="511" y="475"/>
      <point x="495" y="375" type="curve" smooth="yes"/>
      <point x="449" y="80" type="line"/>
      <point x="499" y="80" type="line"/>
      <point x="545" y="375" type="line" smooth="yes"/>
      <point x="565" y="501"/>
      <point x="500" y="580"/>
      <point x="375" y="580" type="curve" smooth="yes"/>
    </contour>
  </outline>
</glyph>
<glyph name="union" format="2">
  <advance width="600"/>
  <unicode hex="222A"/>
  <outline>
    <contour>
      <point x="242" y="80" type="curve" smooth="yes"/>
      <point x="296" y="80" type="line" smooth="yes"/>
      <point x="421" y="80"/>
      <point x="511" y="159"/>
      <point x="531" y="285" type="curve" smooth="yes"/>
      <point x="578" y="580" type="line"/>
      <point x="528" y="580" type="line"/>
      <point x="481" y="285" type="line" smooth="yes"/>
      <point x="465" y="185"/>
      <point x="398" y="125"/>
      <point x="301" y="125" type="curve" smooth="yes"/>
      <point x="251" y="125" type="line" smooth="yes"/>
      <point x="154" y="125"/>
      <point x="105" y="185"/>
      <point x="121" y="285" type="curve" smooth="yes"/>
      <point x="168" y="580" type="line"/>
      <point x="118" y="580" type="line"/>
      <point x="71" y="285" type="line" smooth="yes"/>
      <point x="51" y="159"/>
      <point x="117" y="80"/>
    </contour>
  </outline>
</glyph>
<glyph name="ratio" format="2">
  <advance width="600"/>
  <unicode hex="2236"/>
  <outline>
    <contour>
      <point x="300" y="416" type="curve" smooth="yes"/>
      <point x="344" y="416"/>
      <point x="373" y="445"/>
      <point x="373" y="488" type="curve" smooth="yes"/>
      <point x="373" y="531"/>
      <point x="344" y="560"/>
      <point x="300" y="560" type="curve" smooth="yes"/>
      <point x="256" y="560"/>
      <point x="227" y="531"/>
      <point x="227" y="488" type="curve" smooth="yes"/>
      <point x="227" y="445"/>
      <point x="256" y="416"/>
    </contour>
    <contour>
      <point x="300" y="-10" type="curve" smooth="yes"/>
      <point x="344" y="-10"/>
      <point x="373" y="19"/>
      <point x="373" y="62" type="curve" smooth="yes"/>
      <point x="373" y="105"/>
      <point x="344" y="134"/>
      <point x="300" y="134" type="curve" smooth="yes"/>
      <point x="256" y="134"/>
      <point x="227" y="105"/>
      <point x="227" y="62" type="curve" smooth="yes"/>
      <point x="227" y="19"/>
      <point x="256" y="-10"/>
    </contour>
  </outline>
</glyph>
<glyph name="dotminus" format="2">
  <advance width="600"/>
  <unicode hex="2238"/>
  <outline>
    <contour>
      <point x="310" y="336" type="curve" smooth="yes"/>
      <point x="354" y="336"/>
      <point x="387" y="365"/>
      <point x="394" y="408" type="curve" smooth="yes"/>
      <point x="401" y="451"/>
      <point x="377" y="480"/>
      <point x="333" y="480" type="curve" smooth="yes"/>
      <point x="289" y="480"/>
      <point x="255" y="451"/>
      <point x="248" y="408" type="curve" smooth="yes"/>
      <point x="241" y="365"/>
      <point x="266" y="336"/>
    </contour>
    <component base="minus" xOffset="-18" yOffset="-113"/>
  </outline>
</glyph>
<glyph name="asymptoticallyequal" format="2">
  <advance width="600"/>
  <unicode hex="2243"/>
  <outline>
    <contour>
      <point x="77" y="195" type="line"/>
      <point x="497" y="195" type="line"/>
      <point x="504" y="240" type="line"/>
      <point x="84" y="240" type="line"/>
    </contour>
    <component base="asciitilde" xOffset="18" yOffset="114"/>
  </outline>
</glyph>
<glyph name="congruent" format="2">
  <advance width="600"/>
  <unicode hex="2245"/>
  <outline>
    <contour>
      <point x="64" y="114" type="line"/>
      <point x="484" y="114" type="line"/>
      <point x="491" y="158" type="line"/>
      <point x="71" y="158" type="line"/>
    </contour>
    <contour>
      <point x="95" y="308" type="line"/>
      <point x="515" y="308" type="line"/>
      <point x="522" y="352" type="line"/>
      <point x="102" y="352" type="line"/>
    </contour>
    <component base="asciitilde" xOffset="29" yOffset="185"/>
  </outline>
</glyph>
<glyph name="neitherapproximatelynoractuallyequalto" format="2">
  <advance width="600"/>
  <unicode hex="2247"/>
  <outline>
    <contour>
      <point x="67" y="-100" type="line"/>
      <point x="113" y="-100" type="line"/>
      <point x="552" y="780" type="line"/>
      <point x="506" y="780" type="line"/>
    </contour>
    <contour>
      <point x="64" y="114" type="line"/>
      <point x="484" y="114" type="line"/>
      <point x="491" y="158" type="line"/>
      <point x="71" y="158" type="line"/>
    </contour>
    <contour>
      <point x="95" y="308" type="line"/>
      <point x="515" y="308" type="line"/>
      <point x="522" y="352" type="line"/>
      <point x="102" y="352" type="line"/>
    </contour>
    <component base="asciitilde" xOffset="20" yOffset="185"/>
  </outline>
</glyph>
<glyph name="notalmostequalto" format="2">
  <advance width="600"/>
  <unicode hex="2249"/>
  <outline>
    <contour>
      <point x="76" y="-60" type="line"/>
      <point x="124" y="-60" type="line"/>
      <point x="550" y="780" type="line"/>
      <point x="502" y="780" type="line"/>
    </contour>
    <component base="asciitilde" xOffset="15" yOffset="95"/>
    <component base="asciitilde" xOffset="-22" yOffset="-140"/>
  </outline>
</glyph>
<glyph name="ringequalto" format="2">
  <advance width="600"/>
  <unicode hex="2257"/>
  <outline>
    <contour>
      <point x="100" y="309" type="line"/>
      <point x="510" y="309" type="line"/>
      <point x="517" y="354" type="line"/>
      <point x="107" y="354" type="line"/>
    </contour>
    <contour>
      <point x="69" y="114" type="line"/>
      <point x="479" y="114" type="line"/>
      <point x="486" y="159" type="line"/>
      <point x="76" y="159" type="line"/>
    </contour>
    <component base="ringcomb" xOffset="581" yOffset="-115"/>
  </outline>
</glyph>
<glyph name="questionedequalto" format="2">
  <advance width="600"/>
  <unicode hex="225F"/>
  <outline>
    <contour>
      <point x="304" y="533" type="line"/>
      <point x="342" y="533" type="line"/>
      <point x="350" y="580" type="line"/>
      <point x="380" y="580" type="line" smooth="yes"/>
      <point x="434" y="580"/>
      <point x="479" y="618"/>
      <point x="487" y="670" type="curve" smooth="yes"/>
      <point x="495" y="722"/>
      <point x="462" y="760"/>
      <point x="408" y="760" type="curve" smooth="yes"/>
      <point x="280" y="760" type="line"/>
      <point x="275" y="725" type="line"/>
      <point x="403" y="725" type="line" smooth="yes"/>
      <point x="435" y="725"/>
      <point x="454" y="702"/>
      <point x="449" y="670" type="curve" smooth="yes"/>
      <point x="444" y="638"/>
      <point x="417" y="615"/>
      <point x="385" y="615" type="curve" smooth="yes"/>
      <point x="317" y="615" type="line"/>
    </contour>
    <contour>
      <point x="69" y="114" type="line"/>
      <point x="479" y="114" type="line"/>
      <point x="486" y="159" type="line"/>
      <point x="76" y="159" type="line"/>
    </contour>
    <contour>
      <point x="100" y="309" type="line"/>
      <point x="510" y="309" type="line"/>
      <point x="517" y="354" type="line"/>
      <point x="107" y="354" type="line"/>
    </contour>
    <contour>
      <point x="306" y="423" type="curve" smooth="yes"/>
      <point x="326" y="423"/>
      <point x="341" y="436"/>
      <point x="344" y="456" type="curve" smooth="yes"/>
      <point x="347" y="476"/>
      <point x="336" y="489"/>
      <point x="316" y="489" type="curve" smooth="yes"/>
      <point x="295" y="489"/>
      <point x="279" y="476"/>
      <point x="276" y="456" type="curve" smooth="yes"/>
      <point x="273" y="436"/>
      <point x="285" y="423"/>
    </contour>
  </outline>
</glyph>
<glyph name="notidentical" format="2">
  <advance width="600"/>
  <unicode hex="2262"/>
  <outline>
    <contour>
      <point x="98" y="-50" type="line"/>
      <point x="146" y="-50" type="line"/>
      <point x="520" y="720" type="line"/>
      <point x="472" y="720" type="line"/>
    </contour>
    <component base="equivalence"/>
  </outline>
</glyph>
<glyph name="muchless" format="2">
  <advance width="600"/>
  <unicode hex="226A"/>
  <outline>
    <contour>
      <point x="569" y="80" type="line"/>
      <point x="577" y="131" type="line"/>
      <point x="396" y="274" type="line" smooth="yes"/>
      <point x="371" y="294"/>
      <point x="341" y="317"/>
      <point x="323" y="330" type="curve"/>
      <point x="344" y="341"/>
      <point x="373" y="357"/>
      <point x="413" y="382" type="curve" smooth="yes"/>
      <point x="639" y="522" type="line"/>
      <point x="648" y="579" type="line"/>
      <point x="282" y="353" type="line"/>
      <point x="275" y="306" type="line"/>
    </contour>
    <contour>
      <point x="299" y="80" type="line"/>
      <point x="307" y="131" type="line"/>
      <point x="126" y="274" type="line" smooth="yes"/>
      <point x="101" y="294"/>
      <point x="71" y="317"/>
      <point x="53" y="330" type="curve"/>
      <point x="74" y="341"/>
      <point x="103" y="357"/>
      <point x="143" y="382" type="curve" smooth="yes"/>
      <point x="369" y="522" type="line"/>
      <point x="378" y="579" type="line"/>
      <point x="12" y="353" type="line"/>
      <point x="5" y="306" type="line"/>
    </contour>
  </outline>
</glyph>
<glyph name="notless" format="2">
  <advance width="600"/>
  <unicode hex="226E"/>
  <outline>
    <contour>
      <point x="79" y="-70" type="line"/>
      <point x="127" y="-70" type="line"/>
      <point x="532" y="730" type="line"/>
      <point x="484" y="730" type="line"/>
    </contour>
    <component base="less"/>
  </outline>
</glyph>
<glyph name="notgreater" format="2">
  <advance width="600"/>
  <unicode hex="226F"/>
  <outline>
    <contour>
      <point x="79" y="-70" type="line"/>
      <point x="127" y="-70" type="line"/>
      <point x="532" y="730" type="line"/>
      <point x="484" y="730" type="line"/>
    </contour>
    <component base="greater"/>
  </outline>
</glyph>
<glyph name="notlessnorequal" format="2">
  <advance width="600"/>
  <unicode hex="2270"/>
  <outline>
    <contour>
      <point x="46" y="0" type="line"/>
      <point x="466" y="0" type="line"/>
      <point x="474" y="45" type="line"/>
      <point x="54" y="45" type="line"/>
    </contour>
    <contour>
      <point x="65" y="-110" type="line"/>
      <point x="113" y="-110" type="line"/>
      <point x="552" y="780" type="line"/>
      <point x="504" y="780" type="line"/>
    </contour>
    <component base="less" xOffset="20" yOffset="125"/>
  </outline>
</glyph>
<glyph name="notgreaternorequal" format="2">
  <advance width="600"/>
  <unicode hex="2271"/>
  <outline>
    <contour>
      <point x="35" y="-110" type="line"/>
      <point x="83" y="-110" type="line"/>
      <point x="522" y="780" type="line"/>
      <point x="474" y="780" type="line"/>
    </contour>
    <contour>
      <point x="46" y="0" type="line"/>
      <point x="466" y="0" type="line"/>
      <point x="473" y="45" type="line"/>
      <point x="53" y="45" type="line"/>
    </contour>
    <component base="greater" xOffset="20" yOffset="126"/>
  </outline>
</glyph>
<glyph name="lessorequivalent" format="2">
  <advance width="600"/>
  <unicode hex="2272"/>
  <outline>
    <contour>
      <point x="42" y="0" type="line"/>
      <point x="87" y="0" type="line"/>
      <point x="90" y="18" type="line" smooth="yes"/>
      <point x="96" y="58"/>
      <point x="125" y="83"/>
      <point x="165" y="83" type="curve" smooth="yes"/>
      <point x="238" y="83"/>
      <point x="276" y="0"/>
      <point x="362" y="0" type="curve" smooth="yes"/>
      <point x="424" y="0"/>
      <point x="479" y="44"/>
      <point x="489" y="110" type="curve" smooth="yes"/>
      <point x="492" y="125" type="line"/>
      <point x="447" y="125" type="line"/>
      <point x="444" y="107" type="line" smooth="yes"/>
      <point x="438" y="67"/>
      <point x="409" y="42"/>
      <point x="369" y="42" type="curve" smooth="yes"/>
      <point x="296" y="42"/>
      <point x="263" y="125"/>
      <point x="172" y="125" type="curve" smooth="yes"/>
      <point x="106" y="125"/>
      <point x="55" y="81"/>
      <point x="44" y="15" type="curve" smooth="yes"/>
    </contour>
    <component base="less" xOffset="20" yOffset="125"/>
  </outline>
</glyph>
<glyph name="precedes" format="2">
  <advance width="600"/>
  <unicode hex="227A"/>
  <outline>
    <contour>
      <point x="445" y="55" type="curve"/>
      <point x="490" y="55" type="line"/>
      <point x="498" y="218"/>
      <point x="375" y="324"/>
      <point x="177" y="330" type="curve"/>
      <point x="176" y="328" type="line"/>
      <point x="376" y="332"/>
      <point x="533" y="441"/>
      <point x="576" y="600" type="curve"/>
      <point x="531" y="600" type="line"/>
      <point x="489" y="454"/>
      <point x="315" y="360"/>
      <point x="88" y="360" type="curve"/>
      <point x="79" y="300" type="line"/>
      <point x="306" y="300"/>
      <point x="449" y="204"/>
    </contour>
  </outline>
</glyph>
<glyph name="precedesorequalto" format="2">
  <advance width="600"/>
  <unicode hex="227C"/>
  <outline>
    <contour>
      <point x="31" y="0" type="line"/>
      <point x="481" y="0" type="line"/>
      <point x="488" y="45" type="line"/>
      <point x="38" y="45" type="line"/>
    </contour>
    <component base="precedes" xOffset="20" yOffset="125"/>
  </outline>
</glyph>
<glyph name="notsuperset" format="2">
  <advance width="600"/>
  <unicode hex="2285"/>
  <outline>
    <contour>
      <point x="76" y="-60" type="line"/>
      <point x="124" y="-60" type="line"/>
      <point x="550" y="780" type="line"/>
      <point x="502" y="780" type="line"/>
    </contour>
    <component base="superset"/>
  </outline>
</glyph>
<glyph name="neitherasubsetofnorequalto" format="2">
  <advance width="600"/>
  <unicode hex="2288"/>
  <outline>
    <contour>
      <point x="51" y="-110" type="line"/>
      <point x="99" y="-110" type="line"/>
      <point x="592" y="830" type="line"/>
      <point x="544" y="830" type="line"/>
    </contour>
    <component base="reflexsuperset" xScale="-1" yxScale="0.31677" xOffset="512"/>
  </outline>
</glyph>
<glyph name="squareimageof" format="2">
  <advance width="600"/>
  <unicode hex="228F"/>
  <outline>
    <contour>
      <point x="27" y="100" type="line"/>
      <point x="527" y="100" type="line"/>
      <point x="534" y="145" type="line"/>
      <point x="83" y="145" type="line"/>
      <point x="142" y="515" type="line"/>
      <point x="593" y="515" type="line"/>
      <point x="600" y="560" type="line"/>
      <point x="100" y="560" type="line"/>
    </contour>
  </outline>
</glyph>
<glyph name="squareoriginalof" format="2">
  <advance width="600"/>
  <unicode hex="2290"/>
  <outline>
    <contour>
      <point x="17" y="100" type="line"/>
      <point x="517" y="100" type="line"/>
      <point x="590" y="560" type="line"/>
      <point x="90" y="560" type="line"/>
      <point x="83" y="515" type="line"/>
      <point x="534" y="515" type="line"/>
      <point x="475" y="145" type="line"/>
      <point x="24" y="145" type="line"/>
    </contour>
  </outline>
</glyph>
<glyph name="squareimageoforequalto" format="2">
  <advance width="600"/>
  <unicode hex="2291"/>
  <outline>
    <contour>
      <point x="40" y="210" type="line"/>
      <point x="540" y="210" type="line"/>
      <point x="547" y="255" type="line"/>
      <point x="97" y="255" type="line"/>
      <point x="156" y="625" type="line"/>
      <point x="606" y="625" type="line"/>
      <point x="613" y="670" type="line"/>
      <point x="113" y="670" type="line"/>
    </contour>
    <contour>
      <point x="7" y="0" type="line"/>
      <point x="507" y="0" type="line"/>
      <point x="514" y="45" type="line"/>
      <point x="14" y="45" type="line"/>
    </contour>
  </outline>
</glyph>
<glyph name="squarecap" format="2">
  <advance width="600"/>
  <unicode hex="2293"/>
  <outline>
    <contour>
      <point x="39" y="80" type="line"/>
      <point x="89" y="80" type="line"/>
      <point x="161" y="535" type="line"/>
      <point x="521" y="535" type="line"/>
      <point x="449" y="80" type="line"/>
      <point x="499" y="80" type="line"/>
      <point x="578" y="580" type="line"/>
      <point x="118" y="580" type="line"/>
    </contour>
  </outline>
</glyph>
<glyph name="squarecup" format="2">
  <advance width="600"/>
  <unicode hex="2294"/>
  <outline>
    <contour>
      <point x="39" y="80" type="line"/>
      <point x="499" y="80" type="line"/>
      <point x="578" y="580" type="line"/>
      <point x="528" y="580" type="line"/>
      <point x="456" y="125" type="line"/>
      <point x="96" y="125" type="line"/>
      <point x="168" y="580" type="line"/>
      <point x="118" y="580" type="line"/>
    </contour>
  </outline>
</glyph>
<glyph name="multiply.circled" format="2">
  <advance width="600"/>
  <unicode hex="2297"/>
  <outline>
    <contour>
      <point x="309" y="20" type="curve" smooth="yes"/>
      <point x="486" y="20"/>
      <point x="619" y="153"/>
      <point x="619" y="330" type="curve" smooth="yes"/>
      <point x="619" y="507"/>
      <point x="486" y="640"/>
      <point x="309" y="640" type="curve" smooth="yes"/>
      <point x="132" y="640"/>
      <point x="-1" y="507"/>
      <point x="-1" y="330" type="curve" smooth="yes"/>
      <point x="-1" y="153"/>
      <point x="132" y="20"/>
    </contour>
    <contour>
      <point x="309" y="70" type="curve" smooth="yes"/>
      <point x="161" y="70"/>
      <point x="49" y="182"/>
      <point x="49" y="330" type="curve" smooth="yes"/>
      <point x="49" y="478"/>
      <point x="161" y="590"/>
      <point x="309" y="590" type="curve" smooth="yes"/>
      <point x="457" y="590"/>
      <point x="569" y="478"/>
      <point x="569" y="330" type="curve" smooth="yes"/>
      <point x="569" y="182"/>
      <point x="457" y="70"/>
    </contour>
    <contour>
      <point x="126" y="113" type="line"/>
      <point x="308" y="295" type="line"/>
      <point x="492" y="111" type="line"/>
      <point x="528" y="146" type="line"/>
      <point x="344" y="330" type="line"/>
      <point x="530" y="516" type="line"/>
      <point x="493" y="550" type="line"/>
      <point x="308" y="365" type="line"/>
      <point x="118" y="555" type="line"/>
      <point x="78" y="525" type="line"/>
      <point x="273" y="330" type="line"/>
      <point x="89" y="146" type="line"/>
    </contour>
  </outline>
</glyph>
<glyph name="fraction.circled" format="2">
  <advance width="600"/>
  <unicode hex="2298"/>
  <outline>
    <contour>
      <point x="309" y="20" type="curve" smooth="yes"/>
      <point x="486" y="20"/>
      <point x="619" y="153"/>
      <point x="619" y="330" type="curve" smooth="yes"/>
      <point x="619" y="507"/>
      <point x="486" y="640"/>
      <point x="309" y="640" type="curve" smooth="yes"/>
      <point x="132" y="640"/>
      <point x="-1" y="507"/>
      <point x="-1" y="330" type="curve" smooth="yes"/>
      <point x="-1" y="153"/>
      <point x="132" y="20"/>
    </contour>
    <contour>
      <point x="309" y="70" type="curve" smooth="yes"/>
      <point x="161" y="70"/>
      <point x="49" y="182"/>
      <point x="49" y="330" type="curve" smooth="yes"/>
      <point x="49" y="478"/>
      <point x="161" y="590"/>
      <point x="309" y="590" type="curve" smooth="yes"/>
      <point x="457" y="590"/>
      <point x="569" y="478"/>
      <point x="569" y="330" type="curve" smooth="yes"/>
      <point x="569" y="182"/>
      <point x="457" y="70"/>
    </contour>
    <contour>
      <point x="124" y="108" type="line"/>
      <point x="160" y="82" type="line"/>
      <point x="486" y="553" type="line"/>
      <point x="447" y="574" type="line"/>
    </contour>
  </outline>
</glyph>
<glyph name="asteriskoperator.circled" format="2">
  <advance width="600"/>
  <unicode hex="229B"/>
  <outline>
    <contour>
      <point x="309" y="20" type="curve" smooth="yes"/>
      <point x="486" y="20"/>
      <point x="619" y="153"/>
      <point x="619" y="330" type="curve" smooth="yes"/>
      <point x="619" y="507"/>
      <point x="486" y="640"/>
      <point x="309" y="640" type="curve" smooth="yes"/>
      <point x="132" y="640"/>
      <point x="-1" y="507"/>
      <point x="-1" y="330" type="curve" smooth="yes"/>
      <point x="-1" y="153"/>
      <point x="132" y="20"/>
    </contour>
    <contour>
      <point x="309" y="70" type="curve" smooth="yes"/>
      <point x="161" y="70"/>
      <point x="49" y="182"/>
      <point x="49" y="330" type="curve" smooth="yes"/>
      <point x="49" y="478"/>
      <point x="161" y="590"/>
      <point x="309" y="590" type="curve" smooth="yes"/>
      <point x="457" y="590"/>
      <point x="569" y="478"/>
      <point x="569" y="330" type="curve" smooth="yes"/>
      <point x="569" y="182"/>
      <point x="457" y="70"/>
    </contour>
    <contour>
      <point x="176" y="93" type="line"/>
      <point x="248" y="196" type="line" smooth="yes"/>
      <point x="285" y="249"/>
      <point x="295" y="276"/>
      <point x="303" y="299" type="curve"/>
      <point x="314" y="299" type="line"/>
      <point x="323" y="275"/>
      <point x="333" y="249"/>
      <point x="369" y="197" type="curve" smooth="yes"/>
      <point x="442" y="92" type="line"/>
      <point x="486" y="123" type="line"/>
      <point x="413" y="227" type="line" smooth="yes"/>
      <point x="377" y="278"/>
      <point x="359" y="293"/>
      <point x="336" y="312" type="curve"/>
      <point x="341" y="326" type="line"/>
      <point x="364" y="328"/>
      <point x="392" y="331"/>
      <point x="446" y="351" type="curve" smooth="yes"/>
      <point x="567" y="395" type="line"/>
      <point x="549" y="445" type="line"/>
      <point x="426" y="402" type="line" smooth="yes"/>
      <point x="374" y="384"/>
      <point x="349" y="366"/>
      <point x="332" y="353" type="curve"/>
      <point x="323" y="360" type="line"/>
      <point x="330" y="384"/>
      <point x="336" y="410"/>
      <point x="336" y="469" type="curve" smooth="yes"/>
      <point x="336" y="599" type="line"/>
      <point x="282" y="599" type="line"/>
      <point x="282" y="469" type="line" smooth="yes"/>
      <point x="282" y="410"/>
      <point x="288" y="384"/>
      <point x="295" y="360" type="curve"/>
      <point x="286" y="354" type="line"/>
      <point x="267" y="368"/>
      <point x="244" y="383"/>
      <point x="189" y="403" type="curve" smooth="yes"/>
      <point x="70" y="446" type="line"/>
      <point x="51" y="396" type="line"/>
      <point x="171" y="352" type="line" smooth="yes"/>
      <point x="225" y="332"/>
      <point x="249" y="330"/>
      <point x="276" y="328" type="curve"/>
      <point x="281" y="313" type="line"/>
      <point x="264" y="299"/>
      <point x="241" y="279"/>
      <point x="204" y="227" type="curve" smooth="yes"/>
      <point x="131" y="124" type="line"/>
    </contour>
  </outline>
</glyph>
<glyph name="equals.circled" format="2">
  <advance width="600"/>
  <unicode hex="229C"/>
  <outline>
    <contour>
      <point x="309" y="20" type="curve" smooth="yes"/>
      <point x="486" y="20"/>
      <point x="619" y="153"/>
      <point x="619" y="330" type="curve" smooth="yes"/>
      <point x="619" y="507"/>
      <point x="486" y="640"/>
      <point x="309" y="640" type="curve" smooth="yes"/>
      <point x="132" y="640"/>
      <point x="-1" y="507"/>
      <point x="-1" y="330" type="curve" smooth="yes"/>
      <point x="-1" y="153"/>
      <point x="132" y="20"/>
    </contour>
    <contour>
      <point x="309" y="70" type="curve" smooth="yes"/>
      <point x="161" y="70"/>
      <point x="49" y="182"/>
      <point x="49" y="330" type="curve" smooth="yes"/>
      <point x="49" y="478"/>
      <point x="161" y="590"/>
      <point x="309" y="590" type="curve" smooth="yes"/>
      <point x="457" y="590"/>
      <point x="569" y="478"/>
      <point x="569" y="330" type="curve" smooth="yes"/>
      <point x="569" y="182"/>
      <point x="457" y="70"/>
    </contour>
    <contour>
      <point x="34" y="405" type="line"/>
      <point x="584" y="405" type="line"/>
      <point x="565" y="455" type="line"/>
      <point x="54" y="455" type="line"/>
    </contour>
    <contour>
      <point x="54" y="210" type="line"/>
      <point x="565" y="210" type="line"/>
      <point x="584" y="260" type="line"/>
      <point x="34" y="260" type="line"/>
    </contour>
  </outline>
</glyph>
<glyph name="squareddotoperator" format="2">
  <advance width="600"/>
  <unicode hex="22A1"/>
  <outline>
    <contour>
      <point x="300" y="274" type="curve" smooth="yes"/>
      <point x="268" y="274"/>
      <point x="244" y="298"/>
      <point x="244" y="330" type="curve" smooth="yes"/>
      <point x="244" y="362"/>
      <point x="268" y="386"/>
      <point x="300" y="386" type="curve" smooth="yes"/>
      <point x="332" y="386"/>
      <point x="356" y="362"/>
      <point x="356" y="330" type="curve" smooth="yes"/>
      <point x="356" y="298"/>
      <point x="332" y="274"/>
    </contour>
    <component base="whiteSquare" yOffset="-30"/>
  </outline>
</glyph>
<glyph name="righttack" format="2">
  <advance width="600"/>
  <unicode hex="22A2"/>
  <outline>
    <contour>
      <point x="0" y="278" type="line"/>
      <point x="600" y="278" type="line"/>
      <point x="600" y="323" type="line"/>
      <point x="0" y="323" type="line"/>
    </contour>
    <contour>
      <point x="0" y="0" type="line"/>
      <point x="50" y="0" type="line"/>
      <point x="50" y="600" type="line"/>
      <point x="0" y="600" type="line"/>
    </contour>
  </outline>
</glyph>
